<?xml version="1.0" encoding="utf-8" standalone="no"?>
<!DOCTYPE svg PUBLIC "-//W3C//DTD SVG 1.1//EN"
  "http://www.w3.org/Graphics/SVG/1.1/DTD/svg11.dtd">
<svg xmlns:xlink="http://www.w3.org/1999/xlink" width="540pt" height="360pt" viewBox="0 0 540 360" xmlns="http://www.w3.org/2000/svg" version="1.1">
 <metadata>
  <rdf:RDF xmlns:dc="http://purl.org/dc/elements/1.1/" xmlns:cc="http://creativecommons.org/ns#" xmlns:rdf="http://www.w3.org/1999/02/22-rdf-syntax-ns#">
   <cc:Work>
    <dc:type rdf:resource="http://purl.org/dc/dcmitype/StillImage"/>
    <dc:date>2024-05-19T23:18:26.779425</dc:date>
    <dc:format>image/svg+xml</dc:format>
    <dc:creator>
     <cc:Agent>
      <dc:title>Matplotlib v3.8.3, https://matplotlib.org/</dc:title>
     </cc:Agent>
    </dc:creator>
   </cc:Work>
  </rdf:RDF>
 </metadata>
 <defs>
  <style type="text/css">*{stroke-linejoin: round; stroke-linecap: butt}</style>
 </defs>
 <g id="figure_1">
  <g id="patch_1">
   <path d="M 0 360 
L 540 360 
L 540 0 
L 0 0 
z
" style="fill: #ffffff"/>
  </g>
  <g id="axes_1">
   <g id="patch_2">
    <path d="M 54 288 
L 486 288 
L 486 36 
L 54 36 
z
" style="fill: #ffffff"/>
   </g>
   <g id="matplotlib.axis_1">
    <g id="xtick_1">
     <g id="line2d_1">
      <defs>
       <path id="m528281216c" d="M 0 0 
L 0 3.5 
" style="stroke: #000000; stroke-width: 0.8"/>
      </defs>
      <g>
       <use xlink:href="#m528281216c" x="54" y="288" style="stroke: #000000; stroke-width: 0.8"/>
      </g>
     </g>
     <g id="text_1">
      <!-- $\mathdefault{0}$ -->
      <g transform="translate(51.073505 303.30218) scale(0.12 -0.12)">
       <defs>
        <path id="CMR17-30" d="M 2688 2025 
C 2688 2416 2682 3080 2413 3591 
C 2176 4039 1798 4198 1466 4198 
C 1158 4198 768 4058 525 3597 
C 269 3118 243 2524 243 2025 
C 243 1661 250 1106 448 619 
C 723 -39 1216 -128 1466 -128 
C 1760 -128 2208 -7 2470 600 
C 2662 1042 2688 1559 2688 2025 
z
M 1466 -26 
C 1056 -26 813 325 723 812 
C 653 1188 653 1738 653 2096 
C 653 2588 653 2997 736 3387 
C 858 3929 1216 4096 1466 4096 
C 1728 4096 2067 3923 2189 3400 
C 2272 3036 2278 2607 2278 2096 
C 2278 1680 2278 1169 2202 792 
C 2067 95 1690 -26 1466 -26 
z
" transform="scale(0.015625)"/>
       </defs>
       <use xlink:href="#CMR17-30" transform="scale(0.996264)"/>
      </g>
     </g>
    </g>
    <g id="xtick_2">
     <g id="line2d_2">
      <g>
       <use xlink:href="#m528281216c" x="126" y="288" style="stroke: #000000; stroke-width: 0.8"/>
      </g>
     </g>
     <g id="text_2">
      <!-- $\mathdefault{2}$ -->
      <g transform="translate(123.073505 303.30218) scale(0.12 -0.12)">
       <defs>
        <path id="CMR17-32" d="M 2669 989 
L 2554 989 
C 2490 536 2438 459 2413 420 
C 2381 369 1920 369 1830 369 
L 602 369 
C 832 619 1280 1072 1824 1597 
C 2214 1967 2669 2402 2669 3035 
C 2669 3790 2067 4224 1395 4224 
C 691 4224 262 3604 262 3030 
C 262 2780 448 2748 525 2748 
C 589 2748 781 2787 781 3010 
C 781 3207 614 3264 525 3264 
C 486 3264 448 3258 422 3245 
C 544 3790 915 4058 1306 4058 
C 1862 4058 2227 3617 2227 3035 
C 2227 2479 1901 2000 1536 1584 
L 262 146 
L 262 0 
L 2515 0 
L 2669 989 
z
" transform="scale(0.015625)"/>
       </defs>
       <use xlink:href="#CMR17-32" transform="scale(0.996264)"/>
      </g>
     </g>
    </g>
    <g id="xtick_3">
     <g id="line2d_3">
      <g>
       <use xlink:href="#m528281216c" x="198" y="288" style="stroke: #000000; stroke-width: 0.8"/>
      </g>
     </g>
     <g id="text_3">
      <!-- $\mathdefault{4}$ -->
      <g transform="translate(195.073505 303.30218) scale(0.12 -0.12)">
       <defs>
        <path id="CMR17-34" d="M 2150 4122 
C 2150 4256 2144 4256 2029 4256 
L 128 1254 
L 128 1088 
L 1779 1088 
L 1779 457 
C 1779 224 1766 160 1318 160 
L 1197 160 
L 1197 0 
C 1402 0 1747 0 1965 0 
C 2182 0 2528 0 2733 0 
L 2733 160 
L 2611 160 
C 2163 160 2150 224 2150 457 
L 2150 1088 
L 2803 1088 
L 2803 1254 
L 2150 1254 
L 2150 4122 
z
M 1798 3703 
L 1798 1254 
L 256 1254 
L 1798 3703 
z
" transform="scale(0.015625)"/>
       </defs>
       <use xlink:href="#CMR17-34" transform="scale(0.996264)"/>
      </g>
     </g>
    </g>
    <g id="xtick_4">
     <g id="line2d_4">
      <g>
       <use xlink:href="#m528281216c" x="270" y="288" style="stroke: #000000; stroke-width: 0.8"/>
      </g>
     </g>
     <g id="text_4">
      <!-- $\mathdefault{6}$ -->
      <g transform="translate(267.073505 303.30218) scale(0.12 -0.12)">
       <defs>
        <path id="CMR17-36" d="M 678 2176 
C 678 3690 1395 4032 1811 4032 
C 1946 4032 2272 4009 2400 3776 
C 2298 3776 2106 3776 2106 3553 
C 2106 3381 2246 3323 2336 3323 
C 2394 3323 2566 3348 2566 3560 
C 2566 3954 2246 4179 1805 4179 
C 1043 4179 243 3390 243 1984 
C 243 253 966 -128 1478 -128 
C 2099 -128 2688 427 2688 1283 
C 2688 2081 2170 2662 1517 2662 
C 1126 2662 838 2407 678 1960 
L 678 2176 
z
M 1478 25 
C 691 25 691 1200 691 1436 
C 691 1896 909 2560 1504 2560 
C 1613 2560 1926 2560 2138 2120 
C 2253 1870 2253 1609 2253 1289 
C 2253 944 2253 690 2118 434 
C 1978 171 1773 25 1478 25 
z
" transform="scale(0.015625)"/>
       </defs>
       <use xlink:href="#CMR17-36" transform="scale(0.996264)"/>
      </g>
     </g>
    </g>
    <g id="xtick_5">
     <g id="line2d_5">
      <g>
       <use xlink:href="#m528281216c" x="342" y="288" style="stroke: #000000; stroke-width: 0.8"/>
      </g>
     </g>
     <g id="text_5">
      <!-- $\mathdefault{8}$ -->
      <g transform="translate(339.073505 303.30218) scale(0.12 -0.12)">
       <defs>
        <path id="CMR17-38" d="M 1741 2264 
C 2144 2467 2554 2773 2554 3263 
C 2554 3841 1990 4179 1472 4179 
C 890 4179 378 3759 378 3180 
C 378 3021 416 2747 666 2505 
C 730 2442 998 2251 1171 2130 
C 883 1983 211 1634 211 934 
C 211 279 838 -128 1459 -128 
C 2144 -128 2720 362 2720 1010 
C 2720 1590 2330 1857 2074 2029 
L 1741 2264 
z
M 902 2822 
C 851 2854 595 3051 595 3351 
C 595 3739 998 4032 1459 4032 
C 1965 4032 2336 3676 2336 3262 
C 2336 2669 1670 2331 1638 2331 
C 1632 2331 1626 2331 1574 2370 
L 902 2822 
z
M 2080 1519 
C 2176 1449 2483 1240 2483 851 
C 2483 381 2010 25 1472 25 
C 890 25 448 438 448 940 
C 448 1443 838 1862 1280 2060 
L 2080 1519 
z
" transform="scale(0.015625)"/>
       </defs>
       <use xlink:href="#CMR17-38" transform="scale(0.996264)"/>
      </g>
     </g>
    </g>
    <g id="xtick_6">
     <g id="line2d_6">
      <g>
       <use xlink:href="#m528281216c" x="414" y="288" style="stroke: #000000; stroke-width: 0.8"/>
      </g>
     </g>
     <g id="text_6">
      <!-- $\mathdefault{10}$ -->
      <g transform="translate(408.14701 303.30218) scale(0.12 -0.12)">
       <defs>
        <path id="CMR17-31" d="M 1702 4058 
C 1702 4192 1696 4192 1606 4192 
C 1357 3916 979 3827 621 3827 
C 602 3827 570 3827 563 3808 
C 557 3795 557 3782 557 3648 
C 755 3648 1088 3686 1344 3839 
L 1344 461 
C 1344 236 1331 160 781 160 
L 589 160 
L 589 0 
C 896 0 1216 0 1523 0 
C 1830 0 2150 0 2458 0 
L 2458 160 
L 2266 160 
C 1715 160 1702 230 1702 458 
L 1702 4058 
z
" transform="scale(0.015625)"/>
       </defs>
       <use xlink:href="#CMR17-31" transform="scale(0.996264)"/>
       <use xlink:href="#CMR17-30" transform="translate(45.690477 0) scale(0.996264)"/>
      </g>
     </g>
    </g>
    <g id="xtick_7">
     <g id="line2d_7">
      <g>
       <use xlink:href="#m528281216c" x="486" y="288" style="stroke: #000000; stroke-width: 0.8"/>
      </g>
     </g>
     <g id="text_7">
      <!-- $\mathdefault{12}$ -->
      <g transform="translate(480.14701 303.30218) scale(0.12 -0.12)">
       <use xlink:href="#CMR17-31" transform="scale(0.996264)"/>
       <use xlink:href="#CMR17-32" transform="translate(45.690477 0) scale(0.996264)"/>
      </g>
     </g>
    </g>
    <g id="text_8">
     <!-- $N$ -->
     <g transform="translate(489.171942 319.312652) scale(0.14 -0.14)">
      <defs>
       <path id="CMMI12-4e" d="M 4736 3698 
C 4806 3974 4909 4166 5395 4166 
C 5414 4166 5491 4166 5491 4279 
C 5491 4352 5434 4352 5408 4352 
C 5280 4352 4954 4352 4826 4352 
L 4518 4352 
C 4429 4352 4314 4352 4224 4352 
C 4186 4352 4109 4352 4109 4230 
C 4109 4166 4160 4166 4205 4166 
C 4589 4166 4614 4019 4614 3903 
C 4614 3846 4608 3826 4589 3737 
L 3866 850 
L 2496 4249 
C 2451 4352 2445 4352 2304 4352 
L 1523 4352 
C 1395 4352 1338 4352 1338 4230 
C 1338 4166 1382 4166 1504 4166 
C 1536 4166 1914 4166 1914 4115 
C 1914 4102 1901 4051 1894 4032 
L 1043 635 
C 966 320 813 186 390 186 
C 358 186 294 186 294 67 
C 294 0 358 0 378 0 
C 506 0 832 0 960 0 
L 1267 0 
C 1357 0 1466 0 1555 0 
C 1600 0 1670 0 1670 122 
C 1670 180 1606 186 1581 186 
C 1370 186 1165 224 1165 454 
C 1165 505 1178 562 1190 613 
L 2054 4032 
C 2093 3968 2093 3956 2118 3898 
L 3642 115 
C 3674 38 3686 0 3744 0 
C 3808 0 3814 19 3840 128 
L 4736 3698 
z
" transform="scale(0.015625)"/>
      </defs>
      <use xlink:href="#CMMI12-4e" transform="scale(0.996264)"/>
     </g>
    </g>
   </g>
   <g id="matplotlib.axis_2">
    <g id="ytick_1">
     <g id="line2d_8">
      <defs>
       <path id="m0f759b9d70" d="M 0 0 
L -3.5 0 
" style="stroke: #000000; stroke-width: 0.8"/>
      </defs>
      <g>
       <use xlink:href="#m0f759b9d70" x="54" y="276.545455" style="stroke: #000000; stroke-width: 0.8"/>
      </g>
     </g>
     <g id="line2d_9">
      <defs>
       <path id="m0d6fe1571a" d="M 0 0 
L 3.5 0 
" style="stroke: #000000; stroke-width: 0.8"/>
      </defs>
      <g>
       <use xlink:href="#m0d6fe1571a" x="486" y="276.545455" style="stroke: #000000; stroke-width: 0.8"/>
      </g>
     </g>
     <g id="text_9">
      <!-- $0$ -->
      <g transform="translate(41.14701 280.696544) scale(0.12 -0.12)">
       <use xlink:href="#CMR17-30" transform="scale(0.996264)"/>
      </g>
     </g>
    </g>
    <g id="ytick_2">
     <g id="line2d_10">
      <g>
       <use xlink:href="#m0f759b9d70" x="54" y="162" style="stroke: #000000; stroke-width: 0.8"/>
      </g>
     </g>
     <g id="line2d_11">
      <g>
       <use xlink:href="#m0d6fe1571a" x="486" y="162" style="stroke: #000000; stroke-width: 0.8"/>
      </g>
     </g>
     <g id="text_10">
      <!-- $1$ -->
      <g transform="translate(41.14701 166.15109) scale(0.12 -0.12)">
       <use xlink:href="#CMR17-31" transform="scale(0.996264)"/>
      </g>
     </g>
    </g>
    <g id="ytick_3">
     <g id="line2d_12">
      <g>
       <use xlink:href="#m0f759b9d70" x="54" y="123.818182" style="stroke: #000000; stroke-width: 0.8"/>
      </g>
     </g>
     <g id="line2d_13">
      <g>
       <use xlink:href="#m0d6fe1571a" x="486" y="123.818182" style="stroke: #000000; stroke-width: 0.8"/>
      </g>
     </g>
     <g id="text_11">
      <!-- $4/3$ -->
      <g transform="translate(29.441029 128.30137) scale(0.12 -0.12)">
       <defs>
        <path id="CMMI12-3d" d="M 2746 4562 
C 2746 4569 2784 4666 2784 4678 
C 2784 4755 2720 4800 2669 4800 
C 2637 4800 2579 4800 2528 4659 
L 384 -1363 
C 384 -1370 346 -1465 346 -1478 
C 346 -1555 410 -1600 461 -1600 
C 499 -1600 557 -1593 602 -1459 
L 2746 4562 
z
" transform="scale(0.015625)"/>
        <path id="CMR17-33" d="M 1414 2157 
C 1984 2157 2234 1662 2234 1090 
C 2234 320 1824 25 1453 25 
C 1114 25 563 194 390 693 
C 422 680 454 680 486 680 
C 640 680 755 782 755 948 
C 755 1133 614 1216 486 1216 
C 378 1216 211 1165 211 926 
C 211 335 787 -128 1466 -128 
C 2176 -128 2720 430 2720 1085 
C 2720 1707 2208 2157 1600 2227 
C 2086 2328 2554 2756 2554 3329 
C 2554 3820 2048 4179 1472 4179 
C 890 4179 378 3829 378 3329 
C 378 3110 544 3072 627 3072 
C 762 3072 877 3155 877 3321 
C 877 3486 762 3569 627 3569 
C 602 3569 570 3569 544 3557 
C 730 3959 1235 4032 1459 4032 
C 1683 4032 2106 3925 2106 3320 
C 2106 3143 2080 2828 1862 2550 
C 1670 2304 1453 2304 1242 2284 
C 1210 2284 1062 2269 1037 2269 
C 992 2263 966 2257 966 2208 
C 966 2163 973 2157 1101 2157 
L 1414 2157 
z
" transform="scale(0.015625)"/>
       </defs>
       <use xlink:href="#CMR17-34" transform="scale(0.996264)"/>
       <use xlink:href="#CMMI12-3d" transform="translate(45.690477 0) scale(0.996264)"/>
       <use xlink:href="#CMR17-33" transform="translate(94.465396 0) scale(0.996264)"/>
      </g>
     </g>
    </g>
    <g id="ytick_4">
     <g id="line2d_14">
      <g>
       <use xlink:href="#m0f759b9d70" x="54" y="47.454545" style="stroke: #000000; stroke-width: 0.8"/>
      </g>
     </g>
     <g id="line2d_15">
      <g>
       <use xlink:href="#m0d6fe1571a" x="486" y="47.454545" style="stroke: #000000; stroke-width: 0.8"/>
      </g>
     </g>
     <g id="text_12">
      <!-- $2$ -->
      <g transform="translate(41.14701 51.605635) scale(0.12 -0.12)">
       <use xlink:href="#CMR17-32" transform="scale(0.996264)"/>
      </g>
     </g>
    </g>
    <g id="text_13">
     <!-- $\gamma_\phi$ -->
     <g transform="translate(18.912852 26.969426) scale(0.14 -0.14)">
      <defs>
       <path id="CMMI12-d" d="M 2419 760 
C 2406 1071 2394 1561 2150 2133 
C 2022 2452 1805 2788 1338 2788 
C 550 2788 122 1790 122 1625 
C 122 1567 166 1567 186 1567 
C 243 1567 243 1580 275 1663 
C 410 2057 819 2368 1261 2368 
C 2150 2368 2278 1383 2278 754 
C 2278 352 2234 220 2195 92 
C 2074 -302 1862 -1090 1862 -1268 
C 1862 -1319 1882 -1376 1933 -1376 
C 2029 -1376 2086 -1166 2157 -912 
C 2310 -353 2349 -73 2381 181 
C 2400 334 2765 1384 3270 2382 
C 3315 2483 3405 2655 3405 2674 
C 3405 2680 3398 2725 3341 2725 
C 3328 2725 3296 2725 3283 2699 
C 3270 2687 3046 2254 2854 1822 
C 2758 1606 2630 1320 2419 760 
z
" transform="scale(0.015625)"/>
       <path id="CMMI12-1e" d="M 2752 4390 
C 2752 4448 2707 4448 2688 4448 
C 2630 4448 2624 4435 2598 4326 
L 2253 2939 
C 2234 2856 2227 2849 2221 2843 
C 2214 2830 2170 2824 2157 2824 
C 1107 2734 301 1864 301 1057 
C 301 361 832 -64 1498 -64 
C 1446 -261 1402 -463 1350 -659 
C 1261 -995 1210 -1204 1210 -1229 
C 1210 -1241 1210 -1280 1274 -1280 
C 1293 -1280 1318 -1280 1331 -1254 
C 1344 -1241 1382 -1089 1408 -1008 
L 1645 -64 
C 2739 -64 3571 854 3571 1680 
C 3571 2343 3085 2816 2374 2816 
L 2752 4390 
z
M 2336 2701 
C 2758 2701 3181 2463 3181 1828 
C 3181 1097 2675 128 1677 50 
L 2336 2701 
z
M 1530 50 
C 1216 50 691 220 691 938 
C 691 1761 1274 2676 2195 2676 
L 1530 50 
z
" transform="scale(0.015625)"/>
      </defs>
      <use xlink:href="#CMMI12-d" transform="scale(0.996264)"/>
      <use xlink:href="#CMMI12-1e" transform="translate(50.599133 -14.943915) scale(0.697382)"/>
     </g>
    </g>
   </g>
   <g id="line2d_16">
    <path d="M 54 47.454545 
L 486.043204 47.454545 
L 486.043204 47.454545 
" clip-path="url(#p0659d9fde2)" style="fill: none; stroke: #0000ff; stroke-opacity: 0.4; stroke-width: 0.5; stroke-linecap: square"/>
   </g>
   <g id="line2d_17">
    <path d="M 54 53.660934 
L 56.052205 55.019728 
L 57.9964 56.570594 
L 59.886589 58.369046 
L 61.668767 60.370798 
L 63.450945 62.715047 
L 65.179118 65.360781 
L 66.907291 68.419755 
L 68.635464 71.938516 
L 70.363636 75.961941 
L 72.145815 80.68217 
L 73.981998 86.187999 
L 75.926193 92.75185 
L 77.978398 100.496116 
L 80.246625 109.972816 
L 82.838884 121.807169 
L 86.40324 139.226093 
L 92.343834 168.281525 
L 95.044104 180.303362 
L 97.366337 189.660546 
L 99.472547 197.26135 
L 101.470747 203.667545 
L 103.414941 209.161225 
L 105.305131 213.837298 
L 107.141314 217.79639 
L 108.977498 221.230479 
L 110.813681 224.191702 
L 112.649865 226.731933 
L 114.486049 228.900816 
L 116.376238 230.794314 
L 118.320432 232.430762 
L 120.372637 233.8646 
L 122.532853 235.097923 
L 124.80108 236.138131 
L 127.285329 237.030991 
L 130.039604 237.778333 
L 133.117912 238.377416 
L 136.682268 238.8368 
L 140.948695 239.151778 
L 146.29523 239.312105 
L 153.80198 239.29707 
L 169.517552 238.984233 
L 192.145815 238.612844 
L 217.960396 238.43714 
L 267.267327 238.369432 
L 486.043204 238.363636 
L 486.043204 238.363636 
" clip-path="url(#p0659d9fde2)" style="fill: none; stroke: #0000ff; stroke-opacity: 0.4; stroke-width: 0.5; stroke-linecap: square"/>
   </g>
   <g id="line2d_18">
    <path d="M 54 71.607542 
L 55.782178 75.574419 
L 57.618362 80.207322 
L 59.508551 85.583326 
L 61.506751 91.950102 
L 63.666967 99.610101 
L 66.043204 108.899985 
L 68.79748 120.609867 
L 72.739874 138.456583 
L 78.356436 163.77056 
L 81.218722 175.61283 
L 83.648965 184.76796 
L 85.917192 192.465581 
L 88.023402 198.852637 
L 90.075608 204.379837 
L 92.073807 209.130508 
L 94.018002 213.194627 
L 95.962196 216.753499 
L 97.906391 219.854985 
L 99.850585 222.547141 
L 101.848785 224.936246 
L 103.90099 227.040191 
L 106.007201 228.879372 
L 108.167417 230.475623 
L 110.489649 231.912421 
L 112.919892 233.155106 
L 115.566157 234.256427 
L 118.428443 235.206408 
L 121.614761 236.028486 
L 125.233123 236.728458 
L 129.445545 237.309519 
L 134.468047 237.769251 
L 140.732673 238.10947 
L 149.157516 238.330493 
L 162.334833 238.429437 
L 199.706571 238.392574 
L 317.870387 238.363712 
L 486.043204 238.363636 
L 486.043204 238.363636 
" clip-path="url(#p0659d9fde2)" style="fill: none; stroke: #0000ff; stroke-opacity: 0.4; stroke-width: 0.5; stroke-linecap: square"/>
   </g>
   <g id="line2d_19">
    <path d="M 54 99.349575 
L 56.376238 108.468055 
L 59.184518 120.166892 
L 63.288929 138.348254 
L 68.743474 162.363052 
L 71.659766 174.181537 
L 74.144014 183.36058 
L 76.412241 190.928942 
L 78.572457 197.386915 
L 80.678668 202.986508 
L 82.730873 207.809154 
L 84.729073 211.943506 
L 86.727273 215.569253 
L 88.725473 218.734403 
L 90.723672 221.487209 
L 92.775878 223.934062 
L 94.828083 226.042239 
L 96.988299 227.942868 
L 99.20252 229.59836 
L 101.578758 231.093712 
L 104.063006 232.394189 
L 106.763276 233.554159 
L 109.679568 234.563803 
L 112.919892 235.447932 
L 116.592259 236.213322 
L 120.80468 236.857209 
L 125.773177 237.384403 
L 131.875788 237.798685 
L 139.760576 238.099479 
L 151.047705 238.289778 
L 171.083708 238.370999 
L 279.742574 238.363838 
L 486.043204 238.363636 
L 486.043204 238.363636 
" clip-path="url(#p0659d9fde2)" style="fill: none; stroke: #0000ff; stroke-opacity: 0.4; stroke-width: 0.5; stroke-linecap: square"/>
   </g>
   <g id="line2d_20">
    <path d="M 54 133.880753 
L 60.642664 162.918222 
L 63.50495 174.358393 
L 65.989199 183.412639 
L 68.257426 190.878622 
L 70.417642 197.252671 
L 72.523852 202.784513 
L 74.576058 207.554578 
L 76.574257 211.649785 
L 78.572457 215.24717 
L 80.570657 218.393416 
L 82.568857 221.135382 
L 84.621062 223.578074 
L 86.727273 225.739222 
L 88.887489 227.638866 
L 91.155716 229.335534 
L 93.531953 230.8334 
L 96.070207 232.166699 
L 98.770477 233.333135 
L 101.740774 234.370298 
L 105.035104 235.278524 
L 108.707471 236.055879 
L 112.919892 236.715949 
L 117.888389 237.263147 
L 123.936994 237.697812 
L 131.713771 238.022782 
L 142.622862 238.239127 
L 160.876688 238.348971 
L 216.934293 238.365525 
L 486.043204 238.363636 
L 486.043204 238.363636 
" clip-path="url(#p0659d9fde2)" style="fill: none; stroke: #0000ff; stroke-opacity: 0.4; stroke-width: 0.5; stroke-linecap: square"/>
   </g>
   <g id="line2d_21">
    <path d="M 54 171.459089 
L 56.592259 181.139973 
L 58.914491 188.985012 
L 61.128713 195.697272 
L 63.234923 201.388274 
L 65.287129 206.306875 
L 67.285329 210.537767 
L 69.283528 214.260456 
L 71.281728 217.520928 
L 73.279928 220.365965 
L 75.332133 222.903276 
L 77.438344 225.150406 
L 79.59856 227.127483 
L 81.812781 228.85614 
L 84.135014 230.391424 
L 86.619262 231.766867 
L 89.265527 232.977857 
L 92.127813 234.044263 
L 95.314131 234.9905 
L 98.878488 235.811245 
L 102.928893 236.510192 
L 107.681368 237.096596 
L 113.405941 237.569014 
L 120.588659 237.928345 
L 130.363636 238.179516 
L 145.539154 238.323068 
L 179.724572 238.366891 
L 486.043204 238.363636 
L 486.043204 238.363636 
" clip-path="url(#p0659d9fde2)" style="fill: none; stroke: #0000ff; stroke-opacity: 0.4; stroke-width: 0.5; stroke-linecap: square"/>
   </g>
   <g id="line2d_22">
    <path d="M 54 208.012385 
L 55.9982 212.100779 
L 57.9964 215.68689 
L 59.994599 218.818414 
L 61.992799 221.543108 
L 64.045005 223.966236 
L 66.151215 226.106104 
L 68.311431 227.9833 
L 70.579658 229.656286 
L 72.955896 231.129701 
L 75.494149 232.437707 
L 78.194419 233.578516 
L 81.164716 234.589281 
L 84.459046 235.470609 
L 88.185419 236.230511 
L 92.451845 236.867597 
L 97.528353 237.39237 
L 103.738974 237.801601 
L 111.839784 238.100005 
L 123.50495 238.287969 
L 144.513051 238.367959 
L 263.324932 238.363733 
L 486.043204 238.363636 
L 486.043204 238.363636 
" clip-path="url(#p0659d9fde2)" style="fill: none; stroke: #0000ff; stroke-opacity: 0.4; stroke-width: 0.5; stroke-linecap: square"/>
   </g>
   <g id="line2d_23">
    <path d="M 54 239.579525 
L 59.022502 239.704934 
L 66.043204 239.640477 
L 80.786679 239.221777 
L 100.066607 238.762424 
L 120.372637 238.519803 
L 151.587759 238.396363 
L 236.754275 238.363983 
L 486.043204 238.363636 
L 486.043204 238.363636 
" clip-path="url(#p0659d9fde2)" style="fill: none; stroke: #0000ff; stroke-opacity: 0.4; stroke-width: 0.5; stroke-linecap: square"/>
   </g>
   <g id="line2d_24">
    <path d="M 54 262.739721 
L 56.808281 259.149323 
L 59.346535 256.253766 
L 61.830783 253.753137 
L 64.315032 251.56797 
L 66.853285 249.634407 
L 69.445545 247.938671 
L 72.145815 246.434971 
L 75.008101 245.093132 
L 78.086409 243.895082 
L 81.434743 242.83141 
L 85.161116 241.885923 
L 89.319532 241.06534 
L 94.072007 240.359693 
L 99.634563 239.765328 
L 106.331233 239.280829 
L 114.810081 238.901135 
L 126.259226 238.626163 
L 143.648965 238.453076 
L 178.158416 238.374635 
L 363.558956 238.363637 
L 486.043204 238.363636 
L 486.043204 238.363636 
" clip-path="url(#p0659d9fde2)" style="fill: none; stroke: #0000ff; stroke-opacity: 0.4; stroke-width: 0.5; stroke-linecap: square"/>
   </g>
   <g id="line2d_25">
    <path d="M 54 274.983204 
L 55.242124 273.601465 
L 56.970297 271.313668 
L 60.372637 266.341626 
L 63.882988 261.375739 
L 66.529253 258.016312 
L 69.013501 255.222054 
L 71.443744 252.824774 
L 73.873987 250.739525 
L 76.358236 248.90042 
L 78.950495 247.260568 
L 81.650765 245.815889 
L 84.513051 244.535251 
L 87.645365 243.381788 
L 91.047705 242.370258 
L 94.828083 241.482967 
L 99.094509 240.715231 
L 104.009001 240.062385 
L 109.841584 239.519144 
L 117.024302 239.083425 
L 126.313231 238.754848 
L 139.436544 238.529845 
L 161.416742 238.403904 
L 219.79658 238.364676 
L 486.043204 238.363636 
L 486.043204 238.363636 
" clip-path="url(#p0659d9fde2)" style="fill: none; stroke: #0000ff; stroke-opacity: 0.4; stroke-width: 0.5; stroke-linecap: square"/>
   </g>
   <g id="line2d_26">
    <path d="M 54 274.983204 
L 54.70207 275.842887 
L 55.350135 276.317514 
L 55.9982 276.527303 
L 56.646265 276.509181 
L 57.348335 276.27121 
L 58.212421 275.721304 
L 59.238524 274.779404 
L 60.534653 273.267099 
L 62.370837 270.750398 
L 70.579658 259.069174 
L 73.063906 256.121856 
L 75.440144 253.638192 
L 77.816382 251.467767 
L 80.246625 249.5452 
L 82.784878 247.823691 
L 85.431143 246.301469 
L 88.239424 244.947222 
L 91.209721 243.761796 
L 94.450045 242.708457 
L 98.068407 241.77197 
L 102.118812 240.96041 
L 106.763276 240.264688 
L 112.163816 239.686765 
L 118.752475 239.214481 
L 127.069307 238.851591 
L 138.464446 238.592106 
L 156.178218 238.434446 
L 193.927993 238.369708 
L 486.043204 238.363636 
L 486.043204 238.363636 
" clip-path="url(#p0659d9fde2)" style="fill: none; stroke: #0000ff; stroke-opacity: 0.4; stroke-width: 0.5; stroke-linecap: square"/>
   </g>
   <g id="line2d_27">
    <path d="M 54 262.739721 
L 54.972097 267.58644 
L 55.836184 270.85839 
L 56.646265 273.142624 
L 57.40234 274.675348 
L 58.10441 275.647373 
L 58.752475 276.209404 
L 59.40054 276.492506 
L 60.048605 276.535126 
L 60.750675 276.350483 
L 61.560756 275.88981 
L 62.532853 275.058635 
L 63.774977 273.671044 
L 65.449145 271.431968 
L 68.635464 266.708543 
L 72.253825 261.486516 
L 74.846085 258.128961 
L 77.276328 255.335793 
L 79.652565 252.937087 
L 82.028803 250.847624 
L 84.459046 249.001419 
L 86.9973 247.351732 
L 89.643564 245.895657 
L 92.451845 244.602373 
L 95.476148 243.453491 
L 98.824482 242.424517 
L 102.49685 241.53234 
L 106.655266 240.755759 
L 111.461746 240.091974 
L 117.132313 239.541701 
L 124.045005 239.102352 
L 133.009901 238.767428 
L 145.593159 238.537132 
L 166.385239 238.407013 
L 219.688569 238.364969 
L 486.043204 238.363636 
L 486.043204 238.363636 
" clip-path="url(#p0659d9fde2)" style="fill: none; stroke: #0000ff; stroke-opacity: 0.4; stroke-width: 0.5; stroke-linecap: square"/>
   </g>
   <g id="line2d_28">
    <path d="M 54 239.579525 
L 55.188119 250.663093 
L 56.268227 258.765467 
L 57.240324 264.522445 
L 58.158416 268.734353 
L 59.022502 271.725549 
L 59.832583 273.77589 
L 60.588659 275.116287 
L 61.290729 275.931605 
L 61.938794 276.36678 
L 62.586859 276.539027 
L 63.234923 276.485596 
L 63.990999 276.182908 
L 64.855086 275.57794 
L 65.935194 274.521984 
L 67.339334 272.800866 
L 69.391539 269.886828 
L 75.872187 260.46679 
L 78.410441 257.276107 
L 80.840684 254.577392 
L 83.216922 252.268376 
L 85.593159 250.262328 
L 88.077408 248.457034 
L 90.615662 246.884322 
L 93.315932 245.47223 
L 96.178218 244.225413 
L 99.310531 243.107127 
L 102.712871 242.130925 
L 106.547255 241.268287 
L 110.867687 240.530061 
L 115.890189 239.904165 
L 121.884788 239.389305 
L 129.337534 238.982523 
L 139.166517 238.681949 
L 153.531953 238.484523 
L 179.454545 238.384993 
L 272.883888 238.363687 
L 486.043204 238.363636 
L 486.043204 238.363636 
" clip-path="url(#p0659d9fde2)" style="fill: none; stroke: #0000ff; stroke-opacity: 0.4; stroke-width: 0.5; stroke-linecap: square"/>
   </g>
   <g id="line2d_29">
    <path d="M 54 208.012385 
L 55.620162 228.86883 
L 56.916292 242.86641 
L 58.050405 252.906129 
L 59.130513 260.549188 
L 60.10261 265.919533 
L 61.020702 269.800104 
L 61.884788 272.51411 
L 62.694869 274.33644 
L 63.450945 275.491473 
L 64.153015 276.157325 
L 64.80108 276.472669 
L 65.449145 276.541184 
L 66.151215 276.378401 
L 66.961296 275.936195 
L 67.933393 275.11943 
L 69.121512 273.806947 
L 70.741674 271.656003 
L 73.657966 267.332747 
L 77.546355 261.663853 
L 80.192619 258.207267 
L 82.622862 255.393391 
L 84.9991 252.977461 
L 87.375338 250.87383 
L 89.805581 249.016047 
L 92.343834 247.357 
L 94.990099 245.893647 
L 97.79838 244.594869 
L 100.822682 243.442068 
L 104.117012 242.425422 
L 107.789379 241.528749 
L 111.947795 240.749218 
L 116.70027 240.09023 
L 122.316832 239.541978 
L 129.229523 239.10019 
L 138.140414 238.765925 
L 150.669667 238.535909 
L 171.353735 238.406437 
L 224.60306 238.364896 
L 486.043204 238.363636 
L 486.043204 238.363636 
" clip-path="url(#p0659d9fde2)" style="fill: none; stroke: #0000ff; stroke-opacity: 0.4; stroke-width: 0.5; stroke-linecap: square"/>
   </g>
   <g id="line2d_30">
    <path d="M 54 171.459089 
L 56.970297 214.517027 
L 58.482448 233.151453 
L 59.724572 245.898001 
L 60.858686 255.356337 
L 61.884788 262.154191 
L 62.856886 267.15864 
L 63.774977 270.729787 
L 64.585059 273.057635 
L 65.341134 274.621698 
L 66.043204 275.615769 
L 66.691269 276.192966 
L 67.339334 276.486995 
L 67.987399 276.536973 
L 68.689469 276.356983 
L 69.49955 275.898261 
L 70.471647 275.065805 
L 71.659766 273.739271 
L 73.333933 271.499515 
L 76.412241 266.919605 
L 80.138614 261.506642 
L 82.730873 258.131359 
L 85.161116 255.324836 
L 87.537354 252.916153 
L 89.913591 250.819444 
L 92.343834 248.968208 
L 94.882088 247.315339 
L 97.528353 245.857695 
L 100.336634 244.5642 
L 103.360936 243.416274 
L 106.655266 242.404093 
L 110.327633 241.511514 
L 114.486049 240.735689 
L 119.238524 240.079976 
L 124.909091 239.530292 
L 131.821782 239.092569 
L 140.786679 238.760066 
L 153.369937 238.532623 
L 174.270027 238.404942 
L 228.869487 238.364742 
L 486.043204 238.363636 
L 486.043204 238.363636 
" clip-path="url(#p0659d9fde2)" style="fill: none; stroke: #0000ff; stroke-opacity: 0.4; stroke-width: 0.5; stroke-linecap: square"/>
   </g>
   <g id="line2d_31">
    <path d="M 54 133.880753 
L 55.890189 160.904017 
L 59.832583 218.032881 
L 61.290729 235.510683 
L 62.532853 247.831541 
L 63.612961 256.513442 
L 64.639064 263.061013 
L 65.611161 267.849944 
L 66.475248 271.069427 
L 67.285329 273.305292 
L 68.041404 274.794676 
L 68.743474 275.728652 
L 69.391539 276.257788 
L 70.039604 276.510333 
L 70.687669 276.524838 
L 71.389739 276.31253 
L 72.19982 275.823496 
L 73.171917 274.963121 
L 74.414041 273.545306 
L 76.142214 271.198879 
L 79.814581 265.714365 
L 83.108911 261.001178 
L 85.70117 257.681296 
L 88.131413 254.928839 
L 90.507651 252.570752 
L 92.883888 250.520488 
L 95.314131 248.711719 
L 97.852385 247.097688 
L 100.552655 245.648324 
L 103.414941 244.368631 
L 106.493249 243.238844 
L 109.841584 242.247883 
L 113.567957 241.378763 
L 117.780378 240.627428 
L 122.694869 239.983817 
L 128.527453 239.453011 
L 135.710171 239.032057 
L 145.107111 238.716797 
L 158.554455 238.505748 
L 181.884788 238.393211 
L 252.847885 238.363914 
L 486.043204 238.363636 
L 486.043204 238.363636 
" clip-path="url(#p0659d9fde2)" style="fill: none; stroke: #0000ff; stroke-opacity: 0.4; stroke-width: 0.5; stroke-linecap: square"/>
   </g>
   <g id="line2d_32">
    <path d="M 54 99.349575 
L 55.242124 112.473476 
L 56.646265 129.748227 
L 58.428443 154.694757 
L 63.180918 222.946014 
L 64.585059 239.026525 
L 65.773177 250.219084 
L 66.853285 258.416593 
L 67.879388 264.535571 
L 68.79748 268.746703 
L 69.661566 271.736351 
L 70.471647 273.784723 
L 71.227723 275.122983 
L 71.929793 275.936162 
L 72.577858 276.369302 
L 73.225923 276.539507 
L 73.873987 276.48407 
L 74.630063 276.179128 
L 75.494149 275.571742 
L 76.574257 274.513052 
L 77.978398 272.788905 
L 80.030603 269.871513 
L 86.457246 260.519313 
L 88.9955 257.320817 
L 91.425743 254.614966 
L 93.80198 252.299655 
L 96.178218 250.288102 
L 98.662466 248.477895 
L 101.20072 246.900984 
L 103.90099 245.485227 
L 106.763276 244.235295 
L 109.89559 243.114345 
L 113.29793 242.135953 
L 117.078308 241.282206 
L 121.39874 240.539878 
L 126.421242 239.91065 
L 132.415842 239.3932 
L 139.814581 238.98681 
L 149.589559 238.685068 
L 163.846985 238.486433 
L 189.49955 238.385657 
L 280.336634 238.363697 
L 486.043204 238.363636 
L 486.043204 238.363636 
" clip-path="url(#p0659d9fde2)" style="fill: none; stroke: #0000ff; stroke-opacity: 0.4; stroke-width: 0.5; stroke-linecap: square"/>
   </g>
   <g id="line2d_33">
    <path d="M 54 71.607542 
L 55.080108 77.730176 
L 56.160216 85.156626 
L 57.294329 94.519592 
L 58.536454 106.745639 
L 59.886589 122.383308 
L 61.452745 143.244283 
L 63.936994 179.866387 
L 66.367237 214.642271 
L 67.879388 233.189282 
L 69.121512 245.881985 
L 70.255626 255.308341 
L 71.281728 262.091049 
L 72.253825 267.091688 
L 73.171917 270.666845 
L 73.981998 273.002916 
L 74.738074 274.577527 
L 75.440144 275.583103 
L 76.142214 276.207593 
L 76.790279 276.491887 
L 77.438344 276.535356 
L 78.140414 276.351312 
L 78.950495 275.890994 
L 79.922592 275.059883 
L 81.164716 273.671975 
L 82.838884 271.432062 
L 86.025203 266.706666 
L 89.643564 261.482737 
L 92.235824 258.124241 
L 94.666067 255.330503 
L 97.042304 252.931483 
L 99.418542 250.841899 
L 101.848785 248.995722 
L 104.387039 247.346185 
L 107.033303 245.890355 
L 109.841584 244.597396 
L 112.865887 243.448903 
L 116.214221 242.420379 
L 119.886589 241.528689 
L 124.045005 240.752629 
L 128.851485 240.089387 
L 134.522052 239.539661 
L 141.488749 239.098167 
L 150.453645 238.764973 
L 163.036904 238.535966 
L 183.882988 238.406514 
L 237.564356 238.364916 
L 486.043204 238.363636 
L 486.043204 238.363636 
" clip-path="url(#p0659d9fde2)" style="fill: none; stroke: #0000ff; stroke-opacity: 0.4; stroke-width: 0.5; stroke-linecap: square"/>
   </g>
   <g id="line2d_34">
    <path d="M 54 53.660934 
L 55.080108 55.383653 
L 56.106211 57.44285 
L 57.132313 60.008949 
L 58.158416 63.191313 
L 59.184518 67.114513 
L 60.210621 71.915817 
L 61.290729 78.077281 
L 62.370837 85.537044 
L 63.50495 94.923546 
L 64.747075 107.154172 
L 66.09721 122.76242 
L 67.717372 144.294967 
L 70.363636 183.129695 
L 72.685869 215.871207 
L 74.19802 234.093948 
L 75.440144 246.535837 
L 76.574257 255.764601 
L 77.60036 262.401316 
L 78.572457 267.293587 
L 79.490549 270.791681 
L 80.30063 273.077988 
L 81.056706 274.619494 
L 81.758776 275.60413 
L 82.460846 276.215558 
L 83.108911 276.493557 
L 83.756976 276.535218 
L 84.459046 276.353226 
L 85.269127 275.899192 
L 86.241224 275.079445 
L 87.483348 273.709535 
L 89.157516 271.495878 
L 92.289829 266.895597 
L 96.016202 261.551826 
L 98.662466 258.14852 
L 101.092709 255.3754 
L 103.468947 252.991136 
L 105.89919 250.867733 
L 108.383438 248.996318 
L 110.921692 247.361235 
L 113.621962 245.889097 
L 116.484248 244.585733 
L 119.562556 243.431717 
L 122.910891 242.416339 
L 126.637264 241.522715 
L 130.849685 240.747141 
L 135.710171 240.08587 
L 141.434743 239.538677 
L 148.455446 239.099521 
L 157.528353 238.76633 
L 170.273627 238.537025 
L 191.389739 238.407119 
L 245.611161 238.364998 
L 486.043204 238.363636 
L 486.043204 238.363636 
" clip-path="url(#p0659d9fde2)" style="fill: none; stroke: #0000ff; stroke-opacity: 0.4; stroke-width: 0.5; stroke-linecap: square"/>
   </g>
   <g id="line2d_35">
    <path d="M 54 47.454545 
L 426.421242 47.565083 
L 433.333933 47.803819 
L 437.546355 48.157618 
L 440.678668 48.636427 
L 443.108911 49.223572 
L 445.161116 49.934297 
L 446.943294 50.777711 
L 448.563456 51.787815 
L 450.075608 53.000072 
L 451.479748 54.418142 
L 452.829883 56.107849 
L 454.126013 58.095388 
L 455.368137 60.404401 
L 456.610261 63.180044 
L 457.852385 66.49887 
L 459.148515 70.628853 
L 460.444644 75.532037 
L 461.794779 81.557328 
L 463.19892 88.907186 
L 464.657066 97.776204 
L 466.223222 108.721438 
L 467.951395 122.412255 
L 470.057606 140.966363 
L 477.672367 209.938862 
L 479.454545 223.07575 
L 481.020702 233.072862 
L 482.532853 241.315042 
L 483.936994 247.786056 
L 485.287129 253.02397 
L 486.043204 255.574227 
L 486.043204 255.574227 
" clip-path="url(#p0659d9fde2)" style="fill: none; stroke: #0000ff; stroke-opacity: 0.4; stroke-width: 0.5; stroke-linecap: square"/>
   </g>
   <g id="line2d_36">
    <path d="M 54 47.605065 
L 58.320432 47.865505 
L 61.128713 48.241972 
L 63.288929 48.750423 
L 65.017102 49.381595 
L 66.475248 50.1437 
L 67.771377 51.065301 
L 68.959496 52.17777 
L 70.093609 53.547639 
L 71.173717 55.20549 
L 72.253825 57.292567 
L 73.279928 59.763132 
L 74.306031 62.809582 
L 75.332133 66.543841 
L 76.412241 71.352579 
L 77.492349 77.209256 
L 78.626463 84.6471 
L 79.814581 94.011842 
L 81.056706 105.639452 
L 82.406841 120.414584 
L 84.027003 140.769521 
L 86.40324 173.894871 
L 89.211521 212.396622 
L 90.777678 230.894479 
L 92.073807 243.776546 
L 93.261926 253.479495 
L 94.342034 260.569778 
L 95.368137 265.872468 
L 96.286229 269.540578 
L 97.150315 272.164908 
L 97.960396 273.982078 
L 98.716472 275.18651 
L 99.418542 275.934103 
L 100.120612 276.37133 
L 100.822682 276.540356 
L 101.524752 276.479743 
L 102.334833 276.169829 
L 103.252925 275.564769 
L 104.387039 274.529544 
L 105.845185 272.869125 
L 107.951395 270.094522 
L 115.188119 260.305238 
L 117.834383 257.22006 
L 120.372637 254.598913 
L 122.856886 252.346958 
L 125.39514 250.343977 
L 127.987399 248.579063 
L 130.687669 247.007054 
L 133.549955 245.598156 
L 136.628263 244.334711 
L 139.922592 243.224263 
L 143.540954 242.240488 
L 147.591359 241.37368 
L 152.181818 240.623925 
L 157.528353 239.983868 
L 163.90099 239.454561 
L 171.785779 239.033837 
L 182.10081 238.71937 
L 196.952295 238.50772 
L 222.712871 238.394361 
L 300.264626 238.363973 
L 486.043204 238.363636 
L 486.043204 238.363636 
" clip-path="url(#p0659d9fde2)" style="fill: none; stroke: #0000ff; stroke-opacity: 0.4; stroke-width: 0.5; stroke-linecap: square"/>
   </g>
   <g id="line2d_37">
    <path d="M 54 47.628173 
L 58.212421 47.906622 
L 61.020702 48.304752 
L 63.180918 48.830624 
L 64.909091 49.47066 
L 66.421242 50.262793 
L 67.771377 51.220051 
L 69.013501 52.37442 
L 70.20162 53.792352 
L 71.335734 55.504224 
L 72.415842 57.535017 
L 73.49595 60.039441 
L 74.576058 63.110783 
L 75.656166 66.852837 
L 76.790279 71.626078 
L 77.924392 77.394566 
L 79.112511 84.642897 
L 80.354635 93.668395 
L 81.650765 104.752141 
L 83.108911 119.241366 
L 84.783078 138.22188 
L 87.213321 168.66211 
L 90.453645 208.866674 
L 92.127813 226.910436 
L 93.531953 239.829469 
L 94.828083 249.79242 
L 96.016202 257.277395 
L 97.150315 263.033102 
L 98.176418 267.170389 
L 99.148515 270.248116 
L 100.066607 272.487341 
L 100.984698 274.156843 
L 101.848785 275.274044 
L 102.658866 275.974081 
L 103.468947 276.382948 
L 104.279028 276.540751 
L 105.143114 276.473099 
L 106.061206 276.177143 
L 107.141314 275.587927 
L 108.437444 274.613169 
L 110.057606 273.100232 
L 112.325833 270.647788 
L 122.640864 259.102444 
L 125.611161 256.299784 
L 128.527453 253.853463 
L 131.443744 251.700302 
L 134.414041 249.787543 
L 137.438344 248.103182 
L 140.624662 246.583387 
L 143.972997 245.231758 
L 147.591359 244.01295 
L 151.533753 242.924775 
L 155.854185 241.967756 
L 160.660666 241.134462 
L 166.169217 240.411702 
L 172.541854 239.806091 
L 180.210621 239.308799 
L 189.823582 238.919479 
L 202.622862 238.637487 
L 221.794779 238.458348 
L 258.734473 238.375851 
L 440.948695 238.363637 
L 486.043204 238.363636 
L 486.043204 238.363636 
" clip-path="url(#p0659d9fde2)" style="fill: none; stroke: #0000ff; stroke-opacity: 0.4; stroke-width: 0.5; stroke-linecap: square"/>
   </g>
   <g id="line2d_38">
    <path d="M 54 47.657039 
L 58.050405 47.952404 
L 60.80468 48.364722 
L 62.964896 48.907307 
L 64.747075 49.582138 
L 66.259226 50.385536 
L 67.609361 51.344709 
L 68.905491 52.544946 
L 70.093609 53.949916 
L 71.227723 55.628798 
L 72.361836 57.710658 
L 73.49595 60.279116 
L 74.630063 63.429226 
L 75.764176 67.26617 
L 76.89829 71.90224 
L 78.086409 77.740415 
L 79.274527 84.704099 
L 80.570657 93.702528 
L 81.920792 104.708709 
L 83.432943 118.989222 
L 85.161116 137.541456 
L 87.645365 166.898533 
L 91.047705 206.736033 
L 92.775878 224.392681 
L 94.288029 237.640063 
L 95.638164 247.571486 
L 96.880288 255.137676 
L 98.068407 261.045363 
L 99.20252 265.576069 
L 100.282628 268.990621 
L 101.308731 271.516542 
L 102.280828 273.344787 
L 103.19892 274.63161 
L 104.117012 275.547242 
L 104.981098 276.114955 
L 105.89919 276.448902 
L 106.817282 276.545198 
L 107.789379 276.427996 
L 108.923492 276.054924 
L 110.219622 275.378397 
L 111.785779 274.290058 
L 113.729973 272.650383 
L 116.484248 270.007106 
L 127.123312 259.518377 
L 130.525653 256.613794 
L 133.765977 254.133792 
L 137.006301 251.933155 
L 140.246625 249.999127 
L 143.594959 248.259827 
L 147.051305 246.714255 
L 150.723672 245.318303 
L 154.612061 244.080282 
L 158.824482 242.975964 
L 163.414941 242.005721 
L 168.545455 241.154255 
L 174.324032 240.426069 
L 181.020702 239.812521 
L 189.013501 239.31135 
L 198.950495 238.920641 
L 212.181818 238.636753 
L 231.839784 238.457635 
L 269.643564 238.375517 
L 458.338434 238.363637 
L 486.043204 238.363636 
L 486.043204 238.363636 
" clip-path="url(#p0659d9fde2)" style="fill: none; stroke: #0000ff; stroke-opacity: 0.4; stroke-width: 0.5; stroke-linecap: square"/>
   </g>
   <g id="line2d_39">
    <path d="M 54 47.693748 
L 57.834383 48.00476 
L 60.534653 48.434569 
L 62.640864 48.982724 
L 64.423042 49.670001 
L 65.989199 50.513512 
L 67.393339 51.52626 
L 68.689469 52.74051 
L 69.931593 54.222503 
L 71.119712 56.001596 
L 72.253825 58.101876 
L 73.387939 60.674082 
L 74.522052 63.806259 
L 75.656166 67.595048 
L 76.844284 72.38008 
L 78.032403 78.116649 
L 79.274527 85.250871 
L 80.570657 94.041461 
L 81.974797 105.185531 
L 83.486949 119.037931 
L 85.269127 137.523168 
L 87.861386 167.046023 
L 91.209721 204.761359 
L 92.991899 222.375643 
L 94.50405 235.273106 
L 95.908191 245.407318 
L 97.20432 253.195122 
L 98.446445 259.326125 
L 99.634563 264.076638 
L 100.768677 267.704055 
L 101.848785 270.433508 
L 102.874887 272.454195 
L 103.90099 273.990963 
L 104.873087 275.060785 
L 105.845185 275.807055 
L 106.817282 276.275375 
L 107.789379 276.506041 
L 108.869487 276.526401 
L 110.0036 276.324541 
L 111.29973 275.865452 
L 112.811881 275.08666 
L 114.648065 273.877537 
L 116.970297 272.065167 
L 120.318632 269.13877 
L 131.011701 259.610611 
L 134.846085 256.587881 
L 138.464446 254.018369 
L 141.974797 251.797389 
L 145.485149 249.838263 
L 149.049505 248.101811 
L 152.775878 246.536461 
L 156.664266 245.147343 
L 160.768677 243.91834 
L 165.19712 242.826614 
L 170.057606 241.862468 
L 175.40414 241.031914 
L 181.452745 240.320597 
L 188.473447 239.723933 
L 196.89829 239.23896 
L 207.429343 238.865366 
L 221.578758 238.59942 
L 243.234923 238.436981 
L 288.113411 238.369974 
L 486.043204 238.363636 
L 486.043204 238.363636 
" clip-path="url(#p0659d9fde2)" style="fill: none; stroke: #0000ff; stroke-opacity: 0.4; stroke-width: 0.5; stroke-linecap: square"/>
   </g>
   <g id="line2d_40">
    <path d="M 54 47.74142 
L 57.618362 48.073511 
L 60.264626 48.530425 
L 62.370837 49.11468 
L 64.153015 49.839708 
L 65.719172 50.721699 
L 67.123312 51.772406 
L 68.419442 53.023341 
L 69.661566 54.540175 
L 70.849685 56.349935 
L 72.037804 58.586228 
L 73.171917 61.197534 
L 74.306031 64.359457 
L 75.494149 68.362048 
L 76.682268 73.179426 
L 77.924392 79.206057 
L 79.166517 86.357499 
L 80.516652 95.508707 
L 81.920792 106.602405 
L 83.486949 120.814532 
L 85.377138 140.173261 
L 88.40144 173.923422 
L 91.263726 204.934343 
L 93.045905 221.944981 
L 94.612061 234.842011 
L 96.016202 244.636951 
L 97.312331 252.209895 
L 98.554455 258.221722 
L 99.742574 262.931199 
L 100.876688 266.578058 
L 102.010801 269.495378 
L 103.090909 271.682733 
L 104.171017 273.371922 
L 105.19712 274.579378 
L 106.223222 275.454817 
L 107.249325 276.046076 
L 108.329433 276.407381 
L 109.463546 276.543806 
L 110.705671 276.455865 
L 112.055806 276.130259 
L 113.621962 275.513542 
L 115.458146 274.539474 
L 117.672367 273.103338 
L 120.534653 270.96776 
L 124.909091 267.391056 
L 134.036004 259.887055 
L 138.356436 256.661069 
L 142.244824 254.030852 
L 145.971197 251.773594 
L 149.69757 249.775842 
L 153.423942 248.02798 
L 157.258326 246.472626 
L 161.254725 245.089815 
L 165.521152 243.851162 
L 170.111611 242.754951 
L 175.080108 241.80065 
L 180.588659 240.972787 
L 186.79928 240.268073 
L 194.036004 239.677205 
L 202.676868 239.202226 
L 213.531953 238.837751 
L 228.221422 238.580849 
L 251.065707 238.427223 
L 300.69667 238.367885 
L 486.043204 238.363637 
L 486.043204 238.363637 
" clip-path="url(#p0659d9fde2)" style="fill: none; stroke: #0000ff; stroke-opacity: 0.4; stroke-width: 0.5; stroke-linecap: square"/>
   </g>
   <g id="line2d_41">
    <path d="M 54 47.804896 
L 57.40234 48.165306 
L 59.940594 48.648541 
L 61.992799 49.259875 
L 63.720972 50.000558 
L 65.233123 50.882112 
L 66.637264 51.957834 
L 67.933393 53.231516 
L 69.175518 54.76814 
L 70.363636 56.592894 
L 71.551755 58.837638 
L 72.739874 61.584809 
L 73.927993 64.926722 
L 75.116112 68.963722 
L 76.30423 73.800582 
L 77.546355 79.824595 
L 78.842484 87.277529 
L 80.192619 96.403351 
L 81.650765 107.866025 
L 83.270927 122.479163 
L 85.215122 142.193502 
L 88.941494 182.977935 
L 91.317732 207.580071 
L 93.09991 223.805927 
L 94.612061 235.663887 
L 96.016202 245.012856 
L 97.366337 252.52704 
L 98.608461 258.247735 
L 99.79658 262.750334 
L 100.984698 266.410307 
L 102.118812 269.214956 
L 103.252925 271.436571 
L 104.333033 273.085474 
L 105.413141 274.344076 
L 106.493249 275.269331 
L 107.573357 275.911106 
L 108.707471 276.326995 
L 109.89559 276.52481 
L 111.191719 276.510448 
L 112.649865 276.260223 
L 114.270027 275.750189 
L 116.160216 274.915663 
L 118.428443 273.660043 
L 121.236724 271.835573 
L 124.909091 269.167341 
L 131.659766 263.927497 
L 138.194419 258.971297 
L 142.730873 255.809688 
L 146.835284 253.218685 
L 150.723672 251.023546 
L 154.612061 249.084531 
L 158.50045 247.393113 
L 162.49685 245.895537 
L 166.709271 244.556608 
L 171.137714 243.383061 
L 175.944194 242.342559 
L 181.182718 241.439371 
L 187.015302 240.662614 
L 193.711971 240.001653 
L 201.542754 239.459755 
L 211.10171 239.030701 
L 223.414941 238.712664 
L 240.912691 238.501063 
L 270.993699 238.390725 
L 364.909091 238.363793 
L 486.043204 238.363637 
L 486.043204 238.363637 
" clip-path="url(#p0659d9fde2)" style="fill: none; stroke: #0000ff; stroke-opacity: 0.4; stroke-width: 0.5; stroke-linecap: square"/>
   </g>
   <g id="line2d_42">
    <path d="M 54 47.892014 
L 57.186319 48.29086 
L 59.616562 48.814294 
L 61.614761 49.471146 
L 63.288929 50.248852 
L 64.80108 51.193622 
L 66.205221 52.339882 
L 67.50135 53.689957 
L 68.743474 55.310747 
L 69.931593 57.22642 
L 71.119712 59.572173 
L 72.307831 62.429701 
L 73.49595 65.889682 
L 74.684068 70.049653 
L 75.926193 75.256231 
L 77.168317 81.448757 
L 78.464446 89.065862 
L 79.814581 98.335397 
L 81.272727 109.901839 
L 82.946895 125.058879 
L 84.9991 145.841037 
L 91.479748 213.236542 
L 93.153915 227.482024 
L 94.666067 238.508748 
L 96.070207 247.150181 
L 97.366337 253.818848 
L 98.608461 259.123547 
L 99.850585 263.473604 
L 101.038704 266.847144 
L 102.172817 269.442281 
L 103.306931 271.51033 
L 104.441044 273.126484 
L 105.575158 274.35797 
L 106.709271 275.263758 
L 107.843384 275.89481 
L 109.031503 276.308571 
L 110.327633 276.519826 
L 111.731773 276.516545 
L 113.29793 276.282903 
L 115.080108 275.783296 
L 117.132313 274.969274 
L 119.562556 273.756299 
L 122.478848 272.041615 
L 126.151215 269.608447 
L 131.335734 265.879903 
L 142.352835 257.901398 
L 146.9973 254.856088 
L 151.209721 252.358685 
L 155.206121 250.245035 
L 159.20252 248.383708 
L 163.252925 246.745554 
L 167.411341 245.305552 
L 171.785779 244.029211 
L 176.430243 242.908684 
L 181.452745 241.928603 
L 187.015302 241.075077 
L 193.225923 240.351515 
L 200.408641 239.744609 
L 208.941494 239.254139 
L 219.580558 238.875186 
L 233.783978 238.605332 
L 255.332133 238.439952 
L 299.292529 238.370648 
L 486.043204 238.363637 
L 486.043204 238.363637 
" clip-path="url(#p0659d9fde2)" style="fill: none; stroke: #0000ff; stroke-opacity: 0.4; stroke-width: 0.5; stroke-linecap: square"/>
   </g>
   <g id="line2d_43">
    <path d="M 54 48.016144 
L 56.916292 48.457589 
L 59.184518 49.018555 
L 61.074707 49.708448 
L 62.748875 50.558018 
L 64.207021 51.542437 
L 65.557156 52.715877 
L 66.853285 54.140106 
L 68.09541 55.842663 
L 69.283528 57.846811 
L 70.471647 60.291109 
L 71.659766 63.2567 
L 72.847885 66.832895 
L 74.036004 71.114781 
L 75.278128 76.450798 
L 76.574257 83.067167 
L 77.924392 91.203317 
L 79.328533 101.085279 
L 80.840684 113.347694 
L 82.568857 129.245837 
L 84.837084 152.389648 
L 90.021602 206.062559 
L 91.80378 221.82514 
L 93.369937 233.801803 
L 94.828083 243.282423 
L 96.178218 250.657573 
L 97.474347 256.554152 
L 98.716472 261.220448 
L 99.958596 265.033572 
L 101.146715 267.984668 
L 102.334833 270.349283 
L 103.468947 272.138033 
L 104.60306 273.537321 
L 105.791179 274.649703 
L 106.979298 275.45803 
L 108.221422 276.032092 
L 109.517552 276.386515 
L 110.921692 276.539403 
L 112.487849 276.480579 
L 114.270027 276.179732 
L 116.268227 275.610932 
L 118.590459 274.713203 
L 121.290729 273.425816 
L 124.477048 271.653855 
L 128.311431 269.258091 
L 133.387939 265.805065 
L 147.051305 256.378955 
L 151.641764 253.565002 
L 155.854185 251.241135 
L 159.90459 249.257088 
L 163.954995 247.518437 
L 168.113411 245.977008 
L 172.433843 244.616157 
L 176.970297 243.422822 
L 181.830783 242.376341 
L 187.123312 241.466496 
L 193.009901 240.683217 
L 199.706571 240.020886 
L 207.537354 239.475647 
L 217.09631 239.042234 
L 229.355536 238.720718 
L 246.691269 238.505891 
L 276.232223 238.392614 
L 365.341134 238.363855 
L 486.043204 238.363637 
L 486.043204 238.363637 
" clip-path="url(#p0659d9fde2)" style="fill: none; stroke: #0000ff; stroke-opacity: 0.4; stroke-width: 0.5; stroke-linecap: square"/>
   </g>
   <g id="line2d_44">
    <path d="M 54 48.201629 
L 56.592259 48.691189 
L 58.69847 49.306602 
L 60.480648 50.050648 
L 62.046805 50.936438 
L 63.50495 52.017686 
L 64.855086 53.300409 
L 66.151215 54.850216 
L 67.393339 56.694698 
L 68.581458 58.856479 
L 69.769577 61.481433 
L 70.957696 64.651612 
L 72.145815 68.456122 
L 73.387939 73.213036 
L 74.630063 78.870934 
L 75.926193 85.839532 
L 77.276328 94.344586 
L 78.734473 105.010472 
L 80.354635 118.618133 
L 82.244824 136.521844 
L 84.9991 165.030842 
L 88.455446 200.379693 
L 90.345635 217.473952 
L 91.965797 230.218386 
L 93.423942 240.042655 
L 94.828083 248.038266 
L 96.178218 254.449595 
L 97.474347 259.533808 
L 98.716472 263.532355 
L 99.958596 266.784545 
L 101.146715 269.292861 
L 102.334833 271.297873 
L 103.522952 272.875692 
L 104.711071 274.093371 
L 105.953195 275.044206 
L 107.19532 275.721112 
L 108.545455 276.200961 
L 110.0036 276.475103 
L 111.569757 276.542442 
L 113.351935 276.392159 
L 115.40414 275.985278 
L 117.726373 275.291573 
L 120.426643 274.244605 
L 123.50495 272.80508 
L 127.015302 270.911239 
L 131.119712 268.433603 
L 136.358236 264.99376 
L 150.237624 255.748626 
L 154.882088 253.004325 
L 159.148515 250.7394 
L 163.252925 248.808548 
L 167.357336 247.120268 
L 171.569757 245.627591 
L 175.944194 244.313744 
L 180.588659 243.153101 
L 185.557156 242.142054 
L 191.011701 241.261569 
L 197.114311 240.506155 
L 204.081008 239.872956 
L 212.289829 239.356341 
L 222.388839 238.952157 
L 235.620162 238.657492 
L 254.954095 238.468633 
L 290.705671 238.378843 
L 443.540954 238.36364 
L 486.043204 238.363637 
L 486.043204 238.363637 
" clip-path="url(#p0659d9fde2)" style="fill: none; stroke: #0000ff; stroke-opacity: 0.4; stroke-width: 0.5; stroke-linecap: square"/>
   </g>
   <g id="line2d_45">
    <path d="M 54 48.496645 
L 56.322232 49.074015 
L 58.266427 49.78654 
L 59.940594 50.635868 
L 61.452745 51.653894 
L 62.856886 52.874469 
L 64.153015 54.296884 
L 65.39514 55.988041 
L 66.637264 58.068514 
L 67.825383 60.494467 
L 69.013501 63.424509 
L 70.20162 66.942875 
L 71.443744 71.347335 
L 72.685869 76.59633 
L 73.981998 83.079988 
L 75.332133 91.025389 
L 76.736274 100.647389 
L 78.30243 113.014853 
L 80.084608 129.007868 
L 82.352835 151.569144 
L 87.645365 204.979161 
L 89.481548 220.81168 
L 91.047705 232.503206 
L 92.505851 241.801991 
L 93.909991 249.344868 
L 95.260126 255.382058 
L 96.556256 260.167129 
L 97.79838 263.933066 
L 99.040504 267.001967 
L 100.228623 269.376612 
L 101.416742 271.28388 
L 102.60486 272.795154 
L 103.846985 274.019567 
L 105.089109 274.94102 
L 106.385239 275.6356 
L 107.789379 276.136206 
L 109.30153 276.438583 
L 110.975698 276.545399 
L 112.865887 276.440208 
L 115.026103 276.093051 
L 117.510351 275.463343 
L 120.372637 274.499674 
L 123.558956 273.185636 
L 127.069307 271.492082 
L 130.957696 269.362099 
L 135.440144 266.643687 
L 141.758776 262.521788 
L 151.263726 256.336055 
L 156.178218 253.419742 
L 160.552655 251.077475 
L 164.765077 249.072829 
L 168.923492 247.339127 
L 173.135914 245.822107 
L 177.510351 244.48266 
L 182.154815 243.296159 
L 187.123312 242.260069 
L 192.523852 241.363708 
L 198.572457 240.590361 
L 205.431143 239.942775 
L 213.477948 239.412247 
L 223.306931 238.994954 
L 236.106211 238.686635 
L 254.468047 238.485449 
L 287.033303 238.384677 
L 402.820882 238.363673 
L 486.043204 238.363637 
L 486.043204 238.363637 
" clip-path="url(#p0659d9fde2)" style="fill: none; stroke: #0000ff; stroke-opacity: 0.4; stroke-width: 0.5; stroke-linecap: square"/>
   </g>
   <g id="line2d_46">
    <path d="M 54 49.007773 
L 55.9982 49.703007 
L 57.726373 50.540417 
L 59.238524 51.514392 
L 60.642664 52.679348 
L 61.992799 54.097441 
L 63.288929 55.798806 
L 64.531053 57.810044 
L 65.773177 60.269318 
L 66.961296 63.118523 
L 68.20342 66.706195 
L 69.445545 71.013992 
L 70.687669 76.142882 
L 71.983798 82.47408 
L 73.333933 90.230564 
L 74.738074 99.625858 
L 76.250225 111.268443 
L 77.978398 126.371347 
L 80.138614 147.354365 
L 86.241224 207.919366 
L 88.023402 222.725895 
L 89.589559 233.958203 
L 91.047705 242.865043 
L 92.451845 250.078365 
L 93.80198 255.849342 
L 95.09811 260.426433 
L 96.340234 264.034765 
L 97.582358 266.9834 
L 98.824482 269.367236 
L 100.066607 271.272794 
L 101.308731 272.776813 
L 102.550855 273.945928 
L 103.846985 274.870244 
L 105.251125 275.592607 
L 106.709271 276.094398 
L 108.329433 276.415605 
L 110.165617 276.544069 
L 112.217822 276.459728 
L 114.594059 276.133552 
L 117.294329 275.5353 
L 120.372637 274.620472 
L 123.720972 273.38987 
L 127.285329 271.840524 
L 131.065707 269.952237 
L 135.224122 267.620601 
L 140.246625 264.534844 
L 157.312331 253.817677 
L 161.848785 251.370664 
L 166.115212 249.319868 
L 170.327633 247.541632 
L 174.594059 245.983735 
L 178.968497 244.623382 
L 183.558956 243.428358 
L 188.473447 242.379435 
L 193.819982 241.467214 
L 199.760576 240.682103 
L 206.511251 240.018681 
L 214.39604 239.473102 
L 224.009001 239.039984 
L 236.322232 238.719153 
L 253.711971 238.505119 
L 283.414941 238.392263 
L 373.49595 238.363842 
L 486.043204 238.363637 
L 486.043204 238.363637 
" clip-path="url(#p0659d9fde2)" style="fill: none; stroke: #0000ff; stroke-opacity: 0.4; stroke-width: 0.5; stroke-linecap: square"/>
   </g>
   <g id="line2d_47">
    <path d="M 54 50.010807 
L 55.674167 50.909742 
L 57.186319 51.979153 
L 58.590459 53.252864 
L 59.886589 54.728421 
L 61.128713 56.473275 
L 62.370837 58.60873 
L 63.612961 61.210486 
L 64.855086 64.363533 
L 66.09721 68.160682 
L 67.339334 72.699576 
L 68.635464 78.332032 
L 69.931593 84.980133 
L 71.281728 93.072016 
L 72.739874 103.203131 
L 74.360036 116.127007 
L 76.19622 132.657789 
L 78.734473 157.757503 
L 83.0009 200.011279 
L 84.945095 216.873795 
L 86.565257 229.097557 
L 88.077408 238.881989 
L 89.481548 246.579318 
L 90.831683 252.796845 
L 92.127813 257.773724 
L 93.423942 261.888908 
L 94.666067 265.127637 
L 95.908191 267.773028 
L 97.150315 269.91331 
L 98.392439 271.627746 
L 99.688569 273.037817 
L 100.984698 274.127725 
L 102.388839 275.013242 
L 103.846985 275.670201 
L 105.467147 276.150937 
L 107.249325 276.443201 
L 109.30153 276.545447 
L 111.623762 276.434195 
L 114.324032 276.078952 
L 117.40234 275.447655 
L 120.80468 274.521122 
L 124.369037 273.320173 
L 128.041404 271.846924 
L 131.821782 270.087824 
L 135.818182 267.980167 
L 140.408641 265.299008 
L 146.9973 261.161195 
L 155.908191 255.600803 
L 160.876688 252.772708 
L 165.305131 250.502717 
L 169.571557 248.563512 
L 173.837984 246.870445 
L 178.158416 245.396446 
L 182.640864 244.102799 
L 187.393339 242.964621 
L 192.523852 241.968394 
L 198.140414 241.108511 
L 204.405041 240.377866 
L 211.641764 239.763984 
L 220.228623 239.267221 
L 230.867687 238.884484 
L 245.017102 238.611309 
L 266.349235 238.443061 
L 309.229523 238.371413 
L 486.043204 238.363637 
L 486.043204 238.363637 
" clip-path="url(#p0659d9fde2)" style="fill: none; stroke: #0000ff; stroke-opacity: 0.4; stroke-width: 0.5; stroke-linecap: square"/>
   </g>
   <g id="line2d_48">
    <path d="M 54 52.411718 
L 55.350135 53.722158 
L 56.646265 55.288458 
L 57.888389 57.134256 
L 59.130513 59.385519 
L 60.372637 62.118733 
L 61.614761 65.419048 
L 62.856886 69.37848 
L 64.09901 74.092539 
L 65.39514 79.917289 
L 66.745275 87.069014 
L 68.149415 95.764152 
L 69.661566 106.600842 
L 71.335734 120.30997 
L 73.333933 138.66158 
L 76.574257 170.907079 
L 79.544554 199.614398 
L 81.488749 216.286801 
L 83.162916 228.765416 
L 84.675068 238.420158 
L 86.079208 246.029006 
L 87.429343 252.189306 
L 88.779478 257.321507 
L 90.075608 261.392064 
L 91.371737 264.734048 
L 92.613861 267.350182 
L 93.855986 269.478753 
L 95.152115 271.262703 
L 96.448245 272.67507 
L 97.79838 273.821238 
L 99.20252 274.72676 
L 100.714671 275.439742 
L 102.388839 275.979158 
L 104.279028 276.34529 
L 106.439244 276.527542 
L 108.923492 276.509507 
L 111.893789 276.257233 
L 115.29613 275.739304 
L 119.022502 274.944363 
L 122.856886 273.896473 
L 126.637264 272.631214 
L 130.363636 271.149488 
L 134.144014 269.406934 
L 138.194419 267.289852 
L 142.838884 264.601756 
L 149.859586 260.243959 
L 158.014401 255.249208 
L 162.982898 252.471894 
L 167.465347 250.219404 
L 171.731773 248.321611 
L 175.9982 246.666074 
L 180.372637 245.209135 
L 184.909091 243.934515 
L 189.715572 242.817031 
L 194.90009 241.842617 
L 200.624662 240.997888 
L 207.051305 240.280398 
L 214.450045 239.684689 
L 223.252925 239.206149 
L 234.270027 238.839453 
L 249.121512 238.581423 
L 272.127813 238.427366 
L 321.920792 238.367899 
L 486.043204 238.363637 
L 486.043204 238.363637 
" clip-path="url(#p0659d9fde2)" style="fill: none; stroke: #0000ff; stroke-opacity: 0.4; stroke-width: 0.5; stroke-linecap: square"/>
   </g>
   <g id="line2d_49">
    <path d="M 54 60.714384 
L 55.242124 63.68333 
L 56.484248 67.25033 
L 57.726373 71.506733 
L 59.022502 76.783225 
L 60.318632 83.010162 
L 61.668767 90.596118 
L 63.126913 100.1151 
L 64.693069 111.875561 
L 66.475248 127.039789 
L 68.743474 148.434651 
L 74.576058 204.464226 
L 76.412241 219.439027 
L 78.032403 230.896129 
L 79.544554 240.034316 
L 80.948695 247.214822 
L 82.29883 253.019501 
L 83.648965 257.853914 
L 84.945095 261.69142 
L 86.241224 264.848164 
L 87.537354 267.423847 
L 88.833483 269.509557 
L 90.129613 271.186117 
L 91.479748 272.572962 
L 92.883888 273.697312 
L 94.39604 274.616643 
L 96.016202 275.336676 
L 97.79838 275.884122 
L 99.850585 276.27602 
L 102.226823 276.498172 
L 105.089109 276.534953 
L 108.545455 276.349147 
L 112.59586 275.903077 
L 116.916292 275.202682 
L 121.128713 274.296191 
L 125.125113 273.208841 
L 128.905491 271.951616 
L 132.631863 270.477967 
L 136.412241 268.742521 
L 140.462646 266.634174 
L 145.215122 263.897845 
L 153.09991 259.049303 
L 160.228623 254.773917 
L 165.143114 252.084283 
L 169.625563 249.883207 
L 173.945995 248.010307 
L 178.266427 246.382062 
L 182.640864 244.970543 
L 187.231323 243.723869 
L 192.091809 242.635304 
L 197.384338 241.681466 
L 203.216922 240.861061 
L 209.805581 240.165022 
L 217.420342 239.590731 
L 226.547255 239.132607 
L 238.10441 238.785372 
L 253.981998 238.54617 
L 279.472547 238.410247 
L 341.632763 238.36521 
L 486.043204 238.363637 
L 486.043204 238.363637 
" clip-path="url(#p0659d9fde2)" style="fill: none; stroke: #0000ff; stroke-opacity: 0.4; stroke-width: 0.5; stroke-linecap: square"/>
   </g>
   <g id="line2d_50">
    <path d="M 54 129.023324 
L 56.376238 151.275199 
L 61.614761 200.924992 
L 63.50495 216.407703 
L 65.179118 228.342336 
L 66.691269 237.592684 
L 68.149415 245.165564 
L 69.553555 251.291743 
L 70.90369 256.20828 
L 72.19982 260.1351 
L 73.49595 263.387362 
L 74.792079 266.06171 
L 76.088209 268.247068 
L 77.438344 270.088993 
L 78.788479 271.564494 
L 80.192619 272.781684 
L 81.70477 273.80116 
L 83.324932 274.628515 
L 85.161116 275.311236 
L 87.267327 275.846336 
L 89.751575 276.23586 
L 92.775878 276.474052 
L 96.610261 276.543852 
L 101.632763 276.402437 
L 107.519352 276.01359 
L 113.189919 275.422019 
L 118.10441 274.692616 
L 122.478848 273.822238 
L 126.475248 272.801684 
L 130.255626 271.606297 
L 133.927993 270.211946 
L 137.654365 268.558388 
L 141.650765 266.535691 
L 146.241224 263.952933 
L 153.09991 259.80371 
L 161.416742 254.829608 
L 166.439244 252.091715 
L 170.921692 249.897592 
L 175.242124 248.028047 
L 179.562556 246.400917 
L 183.990999 244.973034 
L 188.581458 243.727731 
L 193.49595 242.628852 
L 198.788479 241.677261 
L 204.621062 240.858473 
L 211.209721 240.163558 
L 218.824482 239.590002 
L 228.005401 239.130179 
L 239.616562 238.782929 
L 255.548155 238.544619 
L 281.20072 238.409454 
L 344.171017 238.365116 
L 486.043204 238.363637 
L 486.043204 238.363637 
" clip-path="url(#p0659d9fde2)" style="fill: none; stroke: #0000ff; stroke-opacity: 0.4; stroke-width: 0.5; stroke-linecap: square"/>
   </g>
   <g id="line2d_51">
    <path d="M 54 129.023324 
L 56.484248 151.289029 
L 61.614761 197.749338 
L 63.558956 213.096985 
L 65.287129 225.019027 
L 66.853285 234.322478 
L 68.311431 241.720517 
L 69.715572 247.764211 
L 71.119712 252.846012 
L 72.469847 256.928638 
L 73.819982 260.32619 
L 75.170117 263.136453 
L 76.520252 265.449658 
L 77.924392 267.414671 
L 79.328533 269.008124 
L 80.840684 270.385419 
L 82.406841 271.513968 
L 84.135014 272.481808 
L 86.025203 273.283093 
L 88.185419 273.952383 
L 90.723672 274.496504 
L 93.747975 274.909272 
L 97.474347 275.185921 
L 102.064806 275.29807 
L 107.357336 275.203874 
L 112.70387 274.888345 
L 117.564356 274.383016 
L 121.938794 273.708728 
L 125.935194 272.871465 
L 129.715572 271.852804 
L 133.333933 270.649359 
L 136.952295 269.212342 
L 140.732673 267.467435 
L 144.837084 265.322957 
L 149.913591 262.40346 
L 166.007201 252.952095 
L 170.651665 250.598118 
L 175.026103 248.627006 
L 179.346535 246.923001 
L 183.720972 245.436547 
L 188.257426 244.13092 
L 193.063906 242.982298 
L 198.194419 241.987025 
L 203.810981 241.126136 
L 210.129613 240.387772 
L 217.366337 239.772437 
L 225.953195 239.27367 
L 236.592259 238.888776 
L 250.741674 238.613631 
L 272.019802 238.444136 
L 314.576058 238.371671 
L 486.043204 238.363637 
L 486.043204 238.363637 
" clip-path="url(#p0659d9fde2)" style="fill: none; stroke: #0000ff; stroke-opacity: 0.4; stroke-width: 0.5; stroke-linecap: square"/>
   </g>
   <g id="line2d_52">
    <path d="M 54 60.714384 
L 55.29613 63.546198 
L 56.592259 66.934475 
L 57.888389 70.96403 
L 59.184518 75.721423 
L 60.534653 81.540345 
L 61.938794 88.611937 
L 63.39694 97.121872 
L 64.963096 107.60563 
L 66.745275 121.137724 
L 68.851485 138.946627 
L 72.847885 175.195341 
L 75.548155 198.511239 
L 77.492349 213.437702 
L 79.220522 225.018311 
L 80.786679 234.055612 
L 82.29883 241.493182 
L 83.756976 247.546743 
L 85.161116 252.438831 
L 86.511251 256.376638 
L 87.861386 259.661604 
L 89.211521 262.386548 
L 90.561656 264.636755 
L 91.965797 266.555009 
L 93.423942 268.170117 
L 94.936094 269.513711 
L 96.556256 270.651821 
L 98.284428 271.593176 
L 100.174617 272.37176 
L 102.334833 273.016748 
L 104.819082 273.518292 
L 107.681368 273.863738 
L 111.029703 274.03719 
L 114.810081 274.004152 
L 118.806481 273.744091 
L 122.748875 273.266933 
L 126.583258 272.579132 
L 130.255626 271.693979 
L 133.819982 270.606145 
L 137.384338 269.284065 
L 141.056706 267.680892 
L 144.9991 265.712614 
L 149.643564 263.134306 
L 157.09631 258.697794 
L 164.60306 254.319922 
L 169.571557 251.679464 
L 174.054005 249.543435 
L 178.428443 247.704867 
L 182.80288 246.109664 
L 187.285329 244.714686 
L 191.929793 243.502551 
L 196.89829 242.437288 
L 202.29883 241.510387 
L 208.293429 240.712733 
L 215.044104 240.043653 
L 222.928893 239.491879 
L 232.487849 239.054597 
L 244.747075 238.728544 
L 261.974797 238.510408 
L 291.083708 238.394376 
L 376.30423 238.363926 
L 486.043204 238.363637 
L 486.043204 238.363637 
" clip-path="url(#p0659d9fde2)" style="fill: none; stroke: #0000ff; stroke-opacity: 0.4; stroke-width: 0.5; stroke-linecap: square"/>
   </g>
   <g id="line2d_53">
    <path d="M 54 52.411718 
L 55.512151 53.688143 
L 56.916292 55.162069 
L 58.266427 56.899404 
L 59.616562 59.014777 
L 60.912691 61.468764 
L 62.208821 64.410643 
L 63.50495 67.919405 
L 64.80108 72.078388 
L 66.151215 77.192517 
L 67.50135 83.192083 
L 68.905491 90.449824 
L 70.417642 99.484378 
L 72.037804 110.56767 
L 73.873987 124.75001 
L 76.142214 144.124868 
L 82.784878 202.090884 
L 84.675068 215.989934 
L 86.349235 226.705761 
L 87.915392 235.324167 
L 89.373537 242.166606 
L 90.777678 247.756923 
L 92.181818 252.464233 
L 93.585959 256.393579 
L 94.936094 259.536269 
L 96.286229 262.145951 
L 97.690369 264.381679 
L 99.094509 266.209314 
L 100.552655 267.749933 
L 102.064806 269.032564 
L 103.684968 270.118852 
L 105.467147 271.039684 
L 107.411341 271.787818 
L 109.571557 272.377424 
L 112.0018 272.809254 
L 114.810081 273.076487 
L 117.942394 273.146989 
L 121.344734 272.999698 
L 124.909091 272.620252 
L 128.473447 272.015026 
L 131.983798 271.191918 
L 135.440144 270.153235 
L 138.950495 268.863482 
L 142.568857 267.294644 
L 146.511251 265.337653 
L 151.209721 262.743129 
L 159.20252 258.019265 
L 166.223222 253.983331 
L 171.191719 251.384423 
L 175.674167 249.28667 
L 180.048605 247.484108 
L 184.423042 245.922276 
L 188.905491 244.558003 
L 193.60396 243.36114 
L 198.626463 242.313349 
L 204.081008 241.405339 
L 210.129613 240.62725 
L 217.042304 239.968678 
L 225.089109 239.432065 
L 234.918092 239.008459 
L 247.609361 238.696254 
L 265.70117 238.491244 
L 297.40234 238.386813 
L 404.387039 238.363702 
L 486.043204 238.363637 
L 486.043204 238.363637 
" clip-path="url(#p0659d9fde2)" style="fill: none; stroke: #0000ff; stroke-opacity: 0.4; stroke-width: 0.5; stroke-linecap: square"/>
   </g>
   <g id="line2d_54">
    <path d="M 54 50.010807 
L 55.944194 50.870354 
L 57.672367 51.877341 
L 59.238524 53.045202 
L 60.69667 54.406834 
L 62.10081 56.026054 
L 63.450945 57.928655 
L 64.747075 60.136453 
L 66.043204 62.785441 
L 67.339334 65.949573 
L 68.635464 69.708396 
L 69.985599 74.344972 
L 71.335734 79.807203 
L 72.739874 86.451111 
L 74.19802 94.462191 
L 75.764176 104.36493 
L 77.492349 116.804038 
L 79.490549 132.903792 
L 82.352835 158.019702 
L 86.40324 193.340067 
L 88.455446 209.241243 
L 90.237624 221.357784 
L 91.857786 230.879271 
L 93.369937 238.488481 
L 94.828083 244.723121 
L 96.232223 249.793104 
L 97.636364 254.047743 
L 99.040504 257.590658 
L 100.390639 260.419781 
L 101.794779 262.851697 
L 103.19892 264.845653 
L 104.657066 266.530783 
L 106.169217 267.936684 
L 107.735374 269.093951 
L 109.409541 270.05983 
L 111.245725 270.862421 
L 113.29793 271.509757 
L 115.566157 271.98698 
L 118.10441 272.290839 
L 120.966697 272.403397 
L 124.045005 272.300245 
L 127.285329 271.970711 
L 130.633663 271.405604 
L 133.981998 270.614831 
L 137.384338 269.579561 
L 140.840684 268.292007 
L 144.459046 266.703803 
L 148.455446 264.700615 
L 153.315932 262.001993 
L 170.759676 252.076412 
L 175.40414 249.835493 
L 179.832583 247.946937 
L 184.207021 246.323581 
L 188.689469 244.899577 
L 193.333933 243.658972 
L 198.248425 242.576912 
L 203.594959 241.630421 
L 209.481548 240.818022 
L 216.124212 240.130453 
L 223.846985 239.561381 
L 233.135914 239.108394 
L 244.909091 238.767689 
L 261.164716 238.535096 
L 287.681368 238.405064 
L 355.566157 238.364657 
L 486.043204 238.363637 
L 486.043204 238.363637 
" clip-path="url(#p0659d9fde2)" style="fill: none; stroke: #0000ff; stroke-opacity: 0.4; stroke-width: 0.5; stroke-linecap: square"/>
   </g>
   <g id="line2d_55">
    <path d="M 54 49.007773 
L 56.430243 49.667413 
L 58.482448 50.445049 
L 60.318632 51.374846 
L 61.992799 52.47558 
L 63.50495 53.734094 
L 64.963096 55.243698 
L 66.367237 57.033625 
L 67.717372 59.130302 
L 69.013501 61.555313 
L 70.309631 64.454495 
L 71.605761 67.903621 
L 72.90189 71.982623 
L 74.252025 76.988206 
L 75.656166 83.103671 
L 77.114311 90.520247 
L 78.626463 99.416477 
L 80.246625 110.310658 
L 82.082808 124.233159 
L 84.351035 143.244578 
L 91.209721 201.993527 
L 93.09991 215.586853 
L 94.774077 226.074328 
L 96.340234 234.521046 
L 97.852385 241.468516 
L 99.310531 247.127875 
L 100.714671 251.710123 
L 102.118812 255.543199 
L 103.522952 258.727619 
L 104.927093 261.358268 
L 106.331233 263.521257 
L 107.735374 265.292483 
L 109.193519 266.787207 
L 110.759676 268.070952 
L 112.379838 269.113649 
L 114.162016 269.991297 
L 116.106211 270.692779 
L 118.212421 271.214963 
L 120.588659 271.570232 
L 123.234923 271.733358 
L 126.09721 271.683211 
L 129.121512 271.408911 
L 132.307831 270.894441 
L 135.548155 270.143844 
L 138.842484 269.151265 
L 142.244824 267.891572 
L 145.863186 266.309167 
L 149.859586 264.311805 
L 154.774077 261.59376 
L 171.353735 252.212601 
L 175.9982 249.963128 
L 180.426643 248.06288 
L 184.80108 246.426432 
L 189.283528 244.988745 
L 193.927993 243.7346 
L 198.842484 242.639517 
L 204.135014 241.68931 
L 209.967597 240.870228 
L 216.556256 240.173899 
L 224.171017 239.598277 
L 233.351935 239.136113 
L 244.909091 238.78779 
L 260.786679 238.547439 
L 286.223222 238.410771 
L 347.951395 238.365269 
L 486.043204 238.363637 
L 486.043204 238.363637 
" clip-path="url(#p0659d9fde2)" style="fill: none; stroke: #0000ff; stroke-opacity: 0.4; stroke-width: 0.5; stroke-linecap: square"/>
   </g>
   <g id="line2d_56">
    <path d="M 54 48.496645 
L 56.970297 49.042799 
L 59.40054 49.706634 
L 61.506751 50.51061 
L 63.342934 51.448354 
L 65.017102 52.556008 
L 66.529253 53.819978 
L 67.987399 55.333501 
L 69.391539 57.125216 
L 70.741674 59.220914 
L 72.037804 61.641544 
L 73.333933 64.531883 
L 74.630063 67.966457 
L 75.980198 72.207575 
L 77.330333 77.213829 
L 78.734473 83.3219 
L 80.192619 90.719727 
L 81.70477 99.582248 
L 83.324932 110.422271 
L 85.161116 124.260497 
L 87.483348 143.606188 
L 94.234023 201.061886 
L 96.124212 214.633162 
L 97.79838 225.127017 
L 99.364536 233.596609 
L 100.876688 240.576885 
L 102.334833 246.27389 
L 103.738974 250.894968 
L 105.143114 254.767137 
L 106.547255 257.989244 
L 107.951395 260.654997 
L 109.355536 262.849724 
L 110.759676 264.648844 
L 112.217822 266.168181 
L 113.729973 267.433209 
L 115.350135 268.501327 
L 117.078308 269.375047 
L 118.968497 270.078609 
L 121.020702 270.604378 
L 123.288929 270.955191 
L 125.827183 271.116354 
L 128.581458 271.062092 
L 131.49775 270.779811 
L 134.576058 270.254145 
L 137.708371 269.493114 
L 140.948695 268.476509 
L 144.351035 267.17243 
L 148.023402 265.519521 
L 152.181818 263.394616 
L 157.636364 260.337181 
L 170.165617 253.234357 
L 175.080108 250.760298 
L 179.616562 248.725354 
L 183.990999 247.004369 
L 188.419442 245.500096 
L 193.009901 244.177775 
L 197.816382 243.026312 
L 203.0009 242.016844 
L 208.671467 241.144766 
L 214.990099 240.403563 
L 222.226823 239.784864 
L 230.759676 239.285151 
L 241.344734 238.897446 
L 255.386139 238.619492 
L 276.394239 238.447329 
L 317.924392 238.372486 
L 486.043204 238.363637 
L 486.043204 238.363637 
" clip-path="url(#p0659d9fde2)" style="fill: none; stroke: #0000ff; stroke-opacity: 0.4; stroke-width: 0.5; stroke-linecap: square"/>
   </g>
   <g id="line2d_57">
    <path d="M 54 48.201629 
L 57.564356 48.676195 
L 60.372637 49.267483 
L 62.694869 49.97759 
L 64.693069 50.815631 
L 66.475248 51.801447 
L 68.09541 52.950568 
L 69.607561 54.297413 
L 71.011701 55.840817 
L 72.361836 57.647291 
L 73.711971 59.832052 
L 75.008101 62.350206 
L 76.30423 65.35033 
L 77.60036 68.906898 
L 78.950495 73.287174 
L 80.30063 78.44278 
L 81.70477 84.712967 
L 83.162916 92.279783 
L 84.729073 101.652856 
L 86.40324 113.079579 
L 88.347435 127.990938 
L 90.885689 149.382994 
L 96.286229 195.389253 
L 98.284428 210.233218 
L 100.012601 221.502249 
L 101.632763 230.648475 
L 103.144914 237.962061 
L 104.60306 243.962867 
L 106.007201 248.852375 
L 107.411341 252.96542 
L 108.815482 256.399638 
L 110.219622 259.249337 
L 111.623762 261.601586 
L 113.027903 263.534154 
L 114.486049 265.169372 
L 115.9982 266.533202 
L 117.564356 267.652458 
L 119.238524 268.579317 
L 121.074707 269.336316 
L 123.072907 269.911821 
L 125.233123 270.299837 
L 127.609361 270.498525 
L 130.20162 270.489108 
L 132.955896 270.257131 
L 135.872187 269.788845 
L 138.950495 269.065146 
L 142.136814 268.08353 
L 145.485149 266.815589 
L 149.10351 265.202841 
L 153.261926 263.095834 
L 158.716472 260.062833 
L 171.029703 253.141905 
L 175.944194 250.685352 
L 180.480648 248.664132 
L 184.909091 246.934693 
L 189.337534 245.442724 
L 193.927993 244.131195 
L 198.788479 242.977499 
L 203.972997 241.978511 
L 209.643564 241.115539 
L 215.962196 240.382106 
L 223.252925 239.76609 
L 231.893789 239.267928 
L 242.586859 238.884474 
L 256.790279 238.611099 
L 278.176418 238.442933 
L 321.218722 238.371352 
L 486.043204 238.363637 
L 486.043204 238.363637 
" clip-path="url(#p0659d9fde2)" style="fill: none; stroke: #0000ff; stroke-opacity: 0.4; stroke-width: 0.5; stroke-linecap: square"/>
   </g>
   <g id="line2d_58">
    <path d="M 54 48.016144 
L 58.158416 48.434942 
L 61.344734 48.973215 
L 63.882988 49.619175 
L 66.043204 50.391249 
L 67.933393 51.297572 
L 69.661566 52.375088 
L 71.227723 53.614275 
L 72.685869 55.048261 
L 74.090009 56.741729 
L 75.440144 58.718601 
L 76.790279 61.10254 
L 78.086409 63.84158 
L 79.382538 67.093515 
L 80.732673 71.107415 
L 82.082808 75.846074 
L 83.486949 81.632247 
L 84.945095 88.651547 
L 86.457246 97.082659 
L 88.077408 107.435248 
L 89.859586 120.314222 
L 92.019802 137.657886 
L 95.854185 170.706304 
L 98.716472 194.42183 
L 100.768677 209.612861 
L 102.550855 221.166295 
L 104.171017 230.246424 
L 105.683168 237.513414 
L 107.141314 243.481735 
L 108.59946 248.52102 
L 110.0036 252.592646 
L 111.407741 255.994978 
L 112.811881 258.820419 
L 114.216022 261.154232 
L 115.620162 263.072571 
L 117.078308 264.69596 
L 118.590459 266.0493 
L 120.156616 267.158319 
L 121.830783 268.073746 
L 123.612961 268.797997 
L 125.557156 269.348889 
L 127.663366 269.716364 
L 129.985599 269.894581 
L 132.523852 269.861603 
L 135.224122 269.601618 
L 138.086409 269.100714 
L 141.110711 268.341326 
L 144.29703 267.305716 
L 147.69937 265.958394 
L 151.425743 264.236641 
L 155.854185 261.933775 
L 162.60486 258.136059 
L 170.921692 253.513681 
L 175.9982 250.95285 
L 180.588659 248.883825 
L 185.017102 247.129706 
L 189.445545 245.612397 
L 194.036004 244.275633 
L 198.842484 243.109367 
L 203.972997 242.094762 
L 209.589559 241.214021 
L 215.854185 240.461768 
L 222.982898 239.834655 
L 231.407741 239.323603 
L 241.776778 238.926551 
L 255.440144 238.639195 
L 275.584158 238.458187 
L 313.927993 238.375559 
L 486.043204 238.363637 
L 486.043204 238.363637 
" clip-path="url(#p0659d9fde2)" style="fill: none; stroke: #0000ff; stroke-opacity: 0.4; stroke-width: 0.5; stroke-linecap: square"/>
   </g>
   <g id="line2d_59">
    <path d="M 54 47.892014 
L 58.806481 48.271489 
L 62.316832 48.762328 
L 65.125113 49.375036 
L 67.447345 50.105404 
L 69.445545 50.962272 
L 71.227723 51.965287 
L 72.847885 53.129524 
L 74.360036 54.489005 
L 75.818182 56.107792 
L 77.222322 58.01379 
L 78.572457 60.231518 
L 79.922592 62.896195 
L 81.272727 66.083976 
L 82.622862 69.876935 
L 83.972997 74.360085 
L 85.323132 79.616675 
L 86.727273 85.984202 
L 88.185419 93.636001 
L 89.751575 103.0714 
L 91.479748 114.909661 
L 93.477948 130.244157 
L 96.178218 152.884686 
L 100.876688 192.398341 
L 102.928893 207.670158 
L 104.711071 219.342547 
L 106.331233 228.554436 
L 107.89739 236.196834 
L 109.355536 242.256406 
L 110.813681 247.385246 
L 112.217822 251.53845 
L 113.621962 255.015868 
L 115.026103 257.908835 
L 116.430243 260.302158 
L 117.834383 262.271952 
L 119.292529 263.940503 
L 120.80468 265.332237 
L 122.370837 266.472582 
L 124.045005 267.41275 
L 125.827183 268.154282 
L 127.717372 268.701895 
L 129.823582 269.074959 
L 132.091809 269.24585 
L 134.522052 269.205763 
L 137.168317 268.935918 
L 139.976598 268.421362 
L 142.946895 267.646502 
L 146.079208 266.596923 
L 149.481548 265.217421 
L 153.315932 263.413404 
L 158.014401 260.941497 
L 176.214221 251.096304 
L 180.858686 248.99495 
L 185.341134 247.211073 
L 189.823582 245.668071 
L 194.414041 244.32462 
L 199.220522 243.151266 
L 204.351035 242.129547 
L 209.967597 241.241905 
L 216.232223 240.483199 
L 223.360936 239.850282 
L 231.731773 239.336859 
L 242.046805 238.93617 
L 255.60216 238.645635 
L 275.476148 238.461862 
L 312.90189 238.376668 
L 486.043204 238.363637 
L 486.043204 238.363637 
" clip-path="url(#p0659d9fde2)" style="fill: none; stroke: #0000ff; stroke-opacity: 0.4; stroke-width: 0.5; stroke-linecap: square"/>
   </g>
   <g id="line2d_60">
    <path d="M 54 47.804896 
L 59.454545 48.150351 
L 63.342934 48.610588 
L 66.367237 49.187403 
L 68.851485 49.884888 
L 70.957696 50.703458 
L 72.793879 51.648079 
L 74.468047 52.753872 
L 76.034203 54.0559 
L 77.492349 55.556462 
L 78.89649 57.321737 
L 80.246625 59.374796 
L 81.59676 61.841544 
L 82.946895 64.793851 
L 84.29703 68.310102 
L 85.647165 72.472885 
L 86.9973 77.365133 
L 88.40144 83.31015 
L 89.859586 90.484658 
L 91.371737 99.053979 
L 93.045905 109.882985 
L 94.936094 123.676754 
L 97.258326 142.407779 
L 104.279028 200.276088 
L 106.169217 213.388622 
L 107.89739 223.856209 
L 109.463546 232.043473 
L 110.975698 238.813499 
L 112.433843 244.359998 
L 113.891989 249.036099 
L 115.29613 252.81125 
L 116.70027 255.964689 
L 118.10441 258.582883 
L 119.508551 260.744705 
L 120.966697 262.581439 
L 122.424842 264.068879 
L 123.936994 265.303442 
L 125.557156 266.337259 
L 127.231323 267.145935 
L 129.067507 267.783065 
L 131.011701 268.222767 
L 133.117912 268.473175 
L 135.440144 268.520951 
L 137.924392 268.345937 
L 140.570657 267.93554 
L 143.432943 267.261008 
L 146.457246 266.316055 
L 149.751575 265.048346 
L 153.423942 263.390076 
L 157.852385 261.134254 
L 164.981098 257.209845 
L 172.757876 253.007787 
L 177.834383 250.520951 
L 182.424842 248.515627 
L 186.907291 246.798803 
L 191.389739 245.318433 
L 196.034203 244.018978 
L 200.948695 242.878246 
L 206.187219 241.892843 
L 211.965797 241.036991 
L 218.392439 240.314374 
L 225.791179 239.711795 
L 234.594059 239.225752 
L 245.557156 238.853212 
L 260.246625 238.590286 
L 282.766877 238.43193 
L 330.345635 238.368813 
L 486.043204 238.363637 
L 486.043204 238.363637 
" clip-path="url(#p0659d9fde2)" style="fill: none; stroke: #0000ff; stroke-opacity: 0.4; stroke-width: 0.5; stroke-linecap: square"/>
   </g>
   <g id="line2d_61">
    <path d="M 54 47.74142 
L 60.156616 48.060719 
L 64.369037 48.488732 
L 67.609361 49.03305 
L 70.255626 49.699944 
L 72.469847 50.483049 
L 74.414041 51.403777 
L 76.142214 52.463431 
L 77.762376 53.72049 
L 79.274527 55.181143 
L 80.732673 56.912216 
L 82.136814 58.941035 
L 83.486949 61.29098 
L 84.837084 64.101613 
L 86.187219 67.448116 
L 87.537354 71.410395 
L 88.887489 76.069749 
L 90.291629 81.738306 
L 91.749775 88.591926 
L 93.261926 96.800181 
L 94.882088 106.855816 
L 96.664266 119.346579 
L 98.824482 136.163428 
L 102.388839 166.032772 
L 105.575158 191.963957 
L 107.627363 206.925667 
L 109.409541 218.376401 
L 111.029703 227.430854 
L 112.59586 234.960037 
L 114.108011 241.148655 
L 115.566157 246.195847 
L 116.970297 250.292448 
L 118.374437 253.730268 
L 119.778578 256.596326 
L 121.182718 258.971553 
L 122.586859 260.92873 
L 124.045005 262.587004 
L 125.557156 263.968466 
L 127.123312 265.096277 
L 128.743474 265.993129 
L 130.471647 266.698638 
L 132.361836 267.224114 
L 134.360036 267.547084 
L 136.520252 267.67102 
L 138.842484 267.582611 
L 141.380738 267.259578 
L 144.081008 266.689104 
L 146.9973 265.842385 
L 150.183618 264.679762 
L 153.747975 263.134703 
L 158.014401 261.030016 
L 164.333033 257.632276 
L 173.351935 252.813602 
L 178.482448 250.337607 
L 183.126913 248.341144 
L 187.663366 246.634438 
L 192.19982 245.165936 
L 196.89829 243.880525 
L 201.866787 242.755764 
L 207.213321 241.778692 
L 213.045905 240.942933 
L 219.580558 240.235084 
L 227.141314 239.645975 
L 236.160216 239.17423 
L 247.50135 238.814691 
L 262.892889 238.564654 
L 287.033303 238.41907 
L 342.010801 238.36643 
L 486.043204 238.363637 
L 486.043204 238.363637 
" clip-path="url(#p0659d9fde2)" style="fill: none; stroke: #0000ff; stroke-opacity: 0.4; stroke-width: 0.5; stroke-linecap: square"/>
   </g>
   <g id="line2d_62">
    <path d="M 54 47.693748 
L 60.966697 47.995256 
L 65.557156 48.40431 
L 69.013501 48.926352 
L 71.767777 49.558175 
L 74.090009 50.311939 
L 76.088209 51.185644 
L 77.870387 52.198166 
L 79.544554 53.406926 
L 81.110711 54.821516 
L 82.568857 56.442488 
L 83.972997 58.338981 
L 85.323132 60.532849 
L 86.673267 63.154636 
L 88.023402 66.275208 
L 89.373537 69.970743 
L 90.723672 74.320051 
L 92.127813 79.619801 
L 93.585959 86.043698 
L 95.09811 93.765478 
L 96.718272 103.273456 
L 98.446445 114.78597 
L 100.444644 129.65169 
L 103.144914 151.563146 
L 108.005401 191.156299 
L 110.111611 206.328181 
L 111.893789 217.638318 
L 113.567957 226.871336 
L 115.134113 234.291719 
L 116.646265 240.399038 
L 118.10441 245.387203 
L 119.562556 249.584361 
L 120.966697 252.968676 
L 122.370837 255.793089 
L 123.774977 258.135675 
L 125.179118 260.066668 
L 126.637264 261.702239 
L 128.149415 263.062853 
L 129.715572 264.170058 
L 131.335734 265.045035 
L 133.063906 265.725215 
L 134.90009 266.208599 
L 136.89829 266.499987 
L 139.058506 266.583243 
L 141.380738 266.444516 
L 143.864986 266.071251 
L 146.565257 265.437622 
L 149.535554 264.504773 
L 152.829883 263.227957 
L 156.610261 261.516099 
L 161.524752 259.027929 
L 176.70027 251.173262 
L 181.560756 249.007757 
L 186.151215 247.204983 
L 190.687669 245.660859 
L 195.332133 244.314587 
L 200.192619 243.138418 
L 205.377138 242.114761 
L 211.047705 241.226481 
L 217.312331 240.474061 
L 224.49505 239.84137 
L 232.919892 239.329277 
L 243.288929 238.930631 
L 256.89829 238.642359 
L 276.934293 238.459969 
L 314.846085 238.376095 
L 486.043204 238.363637 
L 486.043204 238.363637 
" clip-path="url(#p0659d9fde2)" style="fill: none; stroke: #0000ff; stroke-opacity: 0.4; stroke-width: 0.5; stroke-linecap: square"/>
   </g>
   <g id="line2d_63">
    <path d="M 54 47.657039 
L 61.776778 47.939435 
L 66.79928 48.330917 
L 70.525653 48.835498 
L 73.49595 49.457772 
L 75.926193 50.186593 
L 78.032403 51.043648 
L 79.922592 52.051886 
L 81.650765 53.230381 
L 83.216922 54.565576 
L 84.729073 56.152592 
L 86.187219 58.019721 
L 87.591359 60.192564 
L 88.941494 62.6921 
L 90.291629 65.661312 
L 91.641764 69.172214 
L 92.991899 73.299949 
L 94.39604 78.327346 
L 95.854185 84.422472 
L 97.366337 91.757032 
L 98.932493 100.486443 
L 100.660666 111.443403 
L 102.60486 125.281175 
L 105.089109 144.717367 
L 111.407741 194.957073 
L 113.405941 208.643961 
L 115.188119 219.359223 
L 116.808281 227.808001 
L 118.374437 234.825893 
L 119.886589 240.595029 
L 121.344734 245.304632 
L 122.80288 249.267128 
L 124.207021 252.462575 
L 125.611161 255.129428 
L 127.015302 257.340547 
L 128.473447 259.224188 
L 129.931593 260.750386 
L 131.443744 262.013659 
L 133.009901 263.032615 
L 134.630063 263.82556 
L 136.358236 264.424828 
L 138.194419 264.826447 
L 140.192619 265.031154 
L 142.352835 265.021738 
L 144.675068 264.784338 
L 147.213321 264.295484 
L 149.967597 263.535535 
L 153.045905 262.452003 
L 156.610261 260.954771 
L 161.092709 258.816876 
L 171.569757 253.466335 
L 177.40234 250.675401 
L 182.316832 248.568482 
L 186.961296 246.817783 
L 191.605761 245.30598 
L 196.358236 243.995169 
L 201.326733 242.85728 
L 206.673267 241.86494 
L 212.505851 241.013189 
L 219.040504 240.28956 
L 226.547255 239.689198 
L 235.458146 239.207657 
L 246.583258 238.839456 
L 261.542754 238.581025 
L 284.657066 238.427141 
L 334.720072 238.367841 
L 486.043204 238.363637 
L 486.043204 238.363637 
" clip-path="url(#p0659d9fde2)" style="fill: none; stroke: #0000ff; stroke-opacity: 0.4; stroke-width: 0.5; stroke-linecap: square"/>
   </g>
   <g id="line2d_64">
    <path d="M 54 47.628173 
L 62.748875 47.897519 
L 68.311431 48.279355 
L 72.361836 48.772251 
L 75.548155 49.37887 
L 78.140414 50.090557 
L 80.408641 50.942349 
L 82.406841 51.932813 
L 84.189019 53.06399 
L 85.809181 54.349051 
L 87.375338 55.879139 
L 88.833483 57.613082 
L 90.237624 59.62079 
L 91.641764 62.020874 
L 93.045905 64.880596 
L 94.450045 68.273418 
L 95.854185 72.276943 
L 97.258326 76.969467 
L 98.716472 82.650788 
L 100.228623 89.48543 
L 101.794779 97.628592 
L 103.468947 107.539143 
L 105.359136 120.134445 
L 107.627363 136.859702 
L 112.055806 171.711199 
L 114.810081 192.316279 
L 116.862286 206.06868 
L 118.644464 216.594189 
L 120.318632 225.198496 
L 121.884788 232.134041 
L 123.39694 237.864818 
L 124.855086 242.566446 
L 126.313231 246.541033 
L 127.771377 249.873175 
L 129.175518 252.55147 
L 130.633663 254.856035 
L 132.091809 256.742778 
L 133.549955 258.272082 
L 135.062106 259.535976 
L 136.628263 260.550868 
L 138.248425 261.333339 
L 139.922592 261.899294 
L 141.70477 262.271576 
L 143.648965 262.447931 
L 145.755176 262.410023 
L 148.023402 262.144878 
L 150.561656 261.618181 
L 153.369937 260.804274 
L 156.664266 259.608052 
L 160.714671 257.885021 
L 166.871287 254.991147 
L 175.9982 250.731226 
L 181.236724 248.543145 
L 186.09721 246.753011 
L 190.849685 245.23943 
L 195.710171 243.926594 
L 200.786679 242.788634 
L 206.187219 241.807973 
L 212.127813 240.960117 
L 218.770477 240.243231 
L 226.385239 239.651683 
L 235.458146 239.177786 
L 246.79928 238.817869 
L 262.190819 238.566621 
L 286.277228 238.419939 
L 340.768677 238.366561 
L 486.043204 238.363637 
L 486.043204 238.363637 
" clip-path="url(#p0659d9fde2)" style="fill: none; stroke: #0000ff; stroke-opacity: 0.4; stroke-width: 0.5; stroke-linecap: square"/>
   </g>
   <g id="line2d_65">
    <path d="M 54 47.605065 
L 63.936994 47.865296 
L 70.255626 48.241875 
L 74.846085 48.729261 
L 78.464446 49.331051 
L 81.434743 50.045583 
L 83.972997 50.881843 
L 86.187219 51.842367 
L 88.185419 52.951287 
L 90.021602 54.228112 
L 91.69577 55.659846 
L 93.315932 57.342123 
L 94.882088 59.302121 
L 96.394239 61.564736 
L 97.852385 64.150816 
L 99.310531 67.197035 
L 100.768677 70.770176 
L 102.226823 74.938919 
L 103.738974 79.962636 
L 105.251125 85.765409 
L 106.871287 92.904253 
L 108.545455 101.312419 
L 110.381638 111.713526 
L 112.487849 125.005063 
L 115.188119 143.602046 
L 121.39874 186.909781 
L 123.558956 200.12921 
L 125.449145 210.377083 
L 127.177318 218.580789 
L 128.851485 225.46639 
L 130.417642 231.004422 
L 131.983798 235.733843 
L 133.49595 239.604242 
L 135.008101 242.864376 
L 136.466247 245.497266 
L 137.924392 247.690175 
L 139.382538 249.498807 
L 140.894689 251.021903 
L 142.406841 252.234502 
L 143.972997 253.208506 
L 145.593159 253.957021 
L 147.321332 254.507764 
L 149.157516 254.855906 
L 151.155716 255.002795 
L 153.369937 254.933519 
L 155.854185 254.623472 
L 158.716472 254.032767 
L 162.172817 253.082898 
L 166.925293 251.525848 
L 182.586859 246.228167 
L 188.149415 244.675 
L 193.60396 243.384899 
L 199.166517 242.298325 
L 205.107111 241.367089 
L 211.587759 240.580108 
L 218.878488 239.923827 
L 227.357336 239.390611 
L 237.672367 238.974221 
L 251.011701 238.671038 
L 270.183618 238.476041 
L 304.80108 238.381236 
L 440.246625 238.363647 
L 486.043204 238.363637 
L 486.043204 238.363637 
" clip-path="url(#p0659d9fde2)" style="fill: none; stroke: #0000ff; stroke-opacity: 0.4; stroke-width: 0.5; stroke-linecap: square"/>
   </g>
   <g id="line2d_66">
    <path d="M 541 123.818182 
L 54 123.818182 
" clip-path="url(#p0659d9fde2)" style="fill: none; stroke-dasharray: 0.75,1.2375; stroke-dashoffset: 0; stroke: #ff0000; stroke-width: 0.75"/>
   </g>
   <g id="line2d_67">
    <path d="M 541 162 
L 54 162 
" clip-path="url(#p0659d9fde2)" style="fill: none; stroke-dasharray: 2.775,1.2; stroke-dashoffset: 0; stroke: #008000; stroke-width: 0.75"/>
   </g>
   <g id="line2d_68">
    <path d="M 541 276.545455 
L 54 276.545455 
" clip-path="url(#p0659d9fde2)" style="fill: none; stroke-dasharray: 4.8,1.2,0.75,1.2; stroke-dashoffset: 0; stroke: #000000; stroke-width: 0.75"/>
   </g>
   <g id="line2d_69">
    <path d="M 541 162 
L 54 162 
" clip-path="url(#p0659d9fde2)" style="fill: none; stroke: #bf00bf; stroke-width: 0.75; stroke-linecap: square"/>
   </g>
   <g id="patch_3">
    <path d="M 54 288 
L 54 36 
" style="fill: none; stroke: #000000; stroke-width: 0.8; stroke-linejoin: miter; stroke-linecap: square"/>
   </g>
   <g id="patch_4">
    <path d="M 486 288 
L 486 36 
" style="fill: none; stroke: #000000; stroke-width: 0.8; stroke-linejoin: miter; stroke-linecap: square"/>
   </g>
   <g id="patch_5">
    <path d="M 54 288 
L 486 288 
" style="fill: none; stroke: #000000; stroke-width: 0.8; stroke-linejoin: miter; stroke-linecap: square"/>
   </g>
   <g id="patch_6">
    <path d="M 54 36 
L 486 36 
" style="fill: none; stroke: #000000; stroke-width: 0.8; stroke-linejoin: miter; stroke-linecap: square"/>
   </g>
   <g id="text_14">
    <!-- $\gamma=1,\; \lambda^2 = 1$ -->
    <g transform="translate(226.314205 30) scale(0.15 -0.15)">
     <defs>
      <path id="CMR17-3d" d="M 4115 2017 
C 4211 2017 4307 2017 4307 2125 
C 4307 2240 4198 2240 4090 2240 
L 512 2240 
C 403 2240 294 2240 294 2125 
C 294 2017 390 2017 486 2017 
L 4115 2017 
z
M 4090 896 
C 4198 896 4307 896 4307 1011 
C 4307 1119 4211 1119 4115 1119 
L 486 1119 
C 390 1119 294 1119 294 1011 
C 294 896 403 896 512 896 
L 4090 896 
z
" transform="scale(0.015625)"/>
      <path id="CMMI12-3b" d="M 1248 -31 
C 1248 343 1126 619 864 619 
C 659 619 557 453 557 313 
C 557 172 653 0 870 0 
C 954 0 1024 26 1082 83 
C 1094 96 1101 96 1107 96 
C 1120 96 1120 5 1120 -27 
C 1120 -240 1082 -659 710 -1080 
C 640 -1157 640 -1170 640 -1183 
C 640 -1216 672 -1248 704 -1248 
C 755 -1248 1248 -771 1248 -31 
z
" transform="scale(0.015625)"/>
      <path id="CMMI12-15" d="M 1978 3965 
C 1818 4416 1312 4416 1229 4416 
C 1190 4416 1120 4416 1120 4352 
C 1120 4302 1158 4295 1190 4289 
C 1286 4276 1363 4263 1466 4080 
C 1530 3959 2189 2059 2189 2046 
C 2189 2040 2182 2033 2131 1982 
L 467 311 
C 390 234 339 183 339 102 
C 339 12 416 -64 518 -64 
C 544 -64 614 -51 653 -13 
C 755 82 1670 1194 2253 1881 
C 2419 1383 2624 797 2822 261 
C 2854 166 2886 76 2976 -6 
C 3040 -64 3053 -64 3232 -64 
L 3354 -64 
C 3379 -64 3424 -64 3424 -13 
C 3424 13 3418 19 3392 45 
C 3334 115 3290 229 3264 306 
L 1978 3965 
z
" transform="scale(0.015625)"/>
     </defs>
     <use xlink:href="#CMMI12-d" transform="scale(0.996264)"/>
     <use xlink:href="#CMR17-3d" transform="translate(83.692577 0) scale(0.996264)"/>
     <use xlink:href="#CMR17-31" transform="translate(183.081374 0) scale(0.996264)"/>
     <use xlink:href="#CMMI12-3b" transform="translate(228.771851 0) scale(0.996264)"/>
     <use xlink:href="#CMMI12-15" transform="translate(300.147442 0) scale(0.996264)"/>
     <use xlink:href="#CMR17-32" transform="translate(357.051514 36.153639) scale(0.697382)"/>
     <use xlink:href="#CMR17-3d" transform="translate(417.206837 0) scale(0.996264)"/>
     <use xlink:href="#CMR17-31" transform="translate(516.595634 0) scale(0.996264)"/>
    </g>
   </g>
   <g id="legend_1">
    <g id="patch_7">
     <path d="M 303.626258 98.022773 
L 477.6 98.022773 
Q 480 98.022773 480 95.622773 
L 480 44.4 
Q 480 42 477.6 42 
L 303.626258 42 
Q 301.226258 42 301.226258 44.4 
L 301.226258 95.622773 
Q 301.226258 98.022773 303.626258 98.022773 
z
" style="fill: #ffffff; opacity: 0.8; stroke: #cccccc; stroke-linejoin: miter"/>
    </g>
    <g id="line2d_70">
     <path d="M 306.026258 51 
L 318.026258 51 
L 330.026258 51 
" style="fill: none; stroke: #0000ff; stroke-opacity: 0.4; stroke-width: 0.5; stroke-linecap: square"/>
    </g>
    <g id="text_15">
     <!-- $\gamma_\phi$ -->
     <g transform="translate(339.626258 55.2) scale(0.12 -0.12)">
      <use xlink:href="#CMMI12-d" transform="scale(0.996264)"/>
      <use xlink:href="#CMMI12-1e" transform="translate(50.599133 -14.943915) scale(0.697382)"/>
     </g>
    </g>
    <g id="line2d_71">
     <path d="M 306.026258 69.309385 
L 318.026258 69.309385 
L 330.026258 69.309385 
" style="fill: none; stroke-dasharray: 0.75,1.2375; stroke-dashoffset: 0; stroke: #ff0000; stroke-width: 0.75"/>
    </g>
    <g id="text_16">
     <!-- $\gamma_r=4/3$ -->
     <g transform="translate(339.626258 73.509385) scale(0.12 -0.12)">
      <defs>
       <path id="CMMI12-72" d="M 2490 2612 
C 2291 2574 2189 2433 2189 2293 
C 2189 2139 2310 2088 2400 2088 
C 2579 2088 2726 2242 2726 2433 
C 2726 2638 2528 2816 2208 2816 
C 1952 2816 1658 2701 1389 2312 
C 1344 2650 1088 2816 832 2816 
C 582 2816 454 2625 378 2484 
C 269 2254 173 1871 173 1839 
C 173 1814 198 1782 243 1782 
C 294 1782 301 1788 339 1935 
C 435 2318 557 2689 813 2689 
C 966 2689 1011 2580 1011 2395 
C 1011 2254 947 2005 902 1807 
L 723 1118 
C 698 996 627 709 595 594 
C 550 428 480 128 480 96 
C 480 6 550 -64 646 -64 
C 717 -64 838 -19 877 109 
C 896 160 1133 1124 1171 1271 
C 1203 1411 1242 1546 1274 1686 
C 1299 1775 1325 1878 1344 1961 
C 1363 2018 1536 2331 1696 2472 
C 1773 2542 1939 2689 2202 2689 
C 2304 2689 2406 2670 2490 2612 
z
" transform="scale(0.015625)"/>
      </defs>
      <use xlink:href="#CMMI12-d" transform="scale(0.996264)"/>
      <use xlink:href="#CMMI12-72" transform="translate(50.599133 -14.943915) scale(0.697382)"/>
      <use xlink:href="#CMR17-3d" transform="translate(111.440542 0) scale(0.996264)"/>
      <use xlink:href="#CMR17-34" transform="translate(210.829339 0) scale(0.996264)"/>
      <use xlink:href="#CMMI12-3d" transform="translate(256.519816 0) scale(0.996264)"/>
      <use xlink:href="#CMR17-33" transform="translate(305.294735 0) scale(0.996264)"/>
     </g>
    </g>
    <g id="line2d_72">
     <path d="M 306.026258 86.698177 
L 318.026258 86.698177 
L 330.026258 86.698177 
" style="fill: none; stroke-dasharray: 2.775,1.2; stroke-dashoffset: 0; stroke: #008000; stroke-width: 0.75"/>
    </g>
    <g id="text_17">
     <!-- $\gamma_m=1$ -->
     <g transform="translate(339.626258 90.898177) scale(0.12 -0.12)">
      <defs>
       <path id="CMMI12-6d" d="M 1318 1871 
C 1331 1910 1491 2229 1728 2433 
C 1894 2586 2112 2689 2362 2689 
C 2618 2689 2707 2497 2707 2242 
C 2707 2203 2707 2076 2630 1775 
L 2470 1118 
C 2419 926 2298 453 2285 383 
C 2259 287 2221 121 2221 96 
C 2221 6 2291 -64 2387 -64 
C 2579 -64 2611 83 2669 313 
L 3053 1839 
C 3066 1890 3398 2689 4102 2689 
C 4358 2689 4448 2497 4448 2242 
C 4448 1884 4198 1188 4058 805 
C 4000 651 3968 568 3968 453 
C 3968 166 4166 -64 4474 -64 
C 5069 -64 5293 875 5293 913 
C 5293 945 5267 971 5229 971 
C 5171 971 5165 952 5133 843 
C 4986 332 4749 64 4493 64 
C 4429 64 4326 64 4326 269 
C 4326 436 4403 640 4429 710 
C 4544 1018 4832 1773 4832 2145 
C 4832 2528 4608 2816 4122 2816 
C 3693 2816 3347 2574 3091 2197 
C 3072 2542 2861 2816 2381 2816 
C 1811 2816 1510 2415 1395 2255 
C 1376 2618 1114 2816 832 2816 
C 646 2816 499 2727 378 2484 
C 262 2254 173 1865 173 1839 
C 173 1814 198 1782 243 1782 
C 294 1782 301 1788 339 1935 
C 435 2312 557 2689 813 2689 
C 960 2689 1011 2586 1011 2395 
C 1011 2254 947 2005 902 1807 
L 723 1118 
C 698 996 627 709 595 594 
C 550 428 480 128 480 96 
C 480 6 550 -64 646 -64 
C 723 -64 813 -26 864 70 
C 877 102 934 326 966 453 
L 1107 1028 
L 1318 1871 
z
" transform="scale(0.015625)"/>
      </defs>
      <use xlink:href="#CMMI12-d" transform="scale(0.996264)"/>
      <use xlink:href="#CMMI12-6d" transform="translate(50.599133 -14.943915) scale(0.697382)"/>
      <use xlink:href="#CMR17-3d" transform="translate(138.500064 0) scale(0.996264)"/>
      <use xlink:href="#CMR17-31" transform="translate(237.888862 0) scale(0.996264)"/>
     </g>
    </g>
    <g id="line2d_73">
     <path d="M 407.558162 51 
L 419.558162 51 
L 431.558162 51 
" style="fill: none; stroke-dasharray: 4.8,1.2,0.75,1.2; stroke-dashoffset: 0; stroke: #000000; stroke-width: 0.75"/>
    </g>
    <g id="text_18">
     <!-- $\gamma_\Lambda=0$ -->
     <g transform="translate(441.158162 55.2) scale(0.12 -0.12)">
      <defs>
       <path id="CMR17-3" d="M 2150 4403 
C 2118 4505 2112 4512 2048 4512 
C 1984 4512 1978 4505 1946 4403 
L 685 576 
C 570 237 358 160 147 160 
L 147 0 
C 256 0 480 0 595 0 
C 755 0 1005 0 1158 -6 
L 1158 160 
C 819 160 800 404 800 449 
C 800 494 813 532 832 596 
L 1894 3835 
L 3008 461 
C 3040 372 3040 359 3040 340 
C 3040 160 2771 160 2637 160 
L 2637 0 
C 2822 0 3149 0 3347 0 
C 3507 0 3802 0 3949 -6 
L 3949 160 
C 3667 160 3552 160 3475 384 
L 2150 4403 
z
" transform="scale(0.015625)"/>
      </defs>
      <use xlink:href="#CMMI12-d" transform="scale(0.996264)"/>
      <use xlink:href="#CMR17-3" transform="translate(50.599133 -14.943915) scale(0.697382)"/>
      <use xlink:href="#CMR17-3d" transform="translate(123.478347 0) scale(0.996264)"/>
      <use xlink:href="#CMR17-30" transform="translate(222.867144 0) scale(0.996264)"/>
     </g>
    </g>
    <g id="line2d_74">
     <path d="M 407.558162 67.724596 
L 419.558162 67.724596 
L 431.558162 67.724596 
" style="fill: none; stroke: #bf00bf; stroke-width: 0.75; stroke-linecap: square"/>
    </g>
    <g id="text_19">
     <!-- $\gamma$ -->
     <g transform="translate(441.158162 71.924596) scale(0.12 -0.12)">
      <use xlink:href="#CMMI12-d" transform="scale(0.996264)"/>
     </g>
    </g>
   </g>
  </g>
 </g>
 <defs>
  <clipPath id="p0659d9fde2">
   <rect x="54" y="36" width="432" height="252"/>
  </clipPath>
 </defs>
</svg>
