<?xml version="1.0" encoding="utf-8" standalone="no"?>
<!DOCTYPE svg PUBLIC "-//W3C//DTD SVG 1.1//EN"
  "http://www.w3.org/Graphics/SVG/1.1/DTD/svg11.dtd">
<svg xmlns:xlink="http://www.w3.org/1999/xlink" width="540pt" height="360pt" viewBox="0 0 540 360" xmlns="http://www.w3.org/2000/svg" version="1.1">
 <metadata>
  <rdf:RDF xmlns:dc="http://purl.org/dc/elements/1.1/" xmlns:cc="http://creativecommons.org/ns#" xmlns:rdf="http://www.w3.org/1999/02/22-rdf-syntax-ns#">
   <cc:Work>
    <dc:type rdf:resource="http://purl.org/dc/dcmitype/StillImage"/>
    <dc:date>2024-05-07T17:02:54.739868</dc:date>
    <dc:format>image/svg+xml</dc:format>
    <dc:creator>
     <cc:Agent>
      <dc:title>Matplotlib v3.8.3, https://matplotlib.org/</dc:title>
     </cc:Agent>
    </dc:creator>
   </cc:Work>
  </rdf:RDF>
 </metadata>
 <defs>
  <style type="text/css">*{stroke-linejoin: round; stroke-linecap: butt}</style>
 </defs>
 <g id="figure_1">
  <g id="patch_1">
   <path d="M 0 360 
L 540 360 
L 540 0 
L 0 0 
z
" style="fill: #ffffff"/>
  </g>
  <g id="axes_1">
   <g id="patch_2">
    <path d="M 81 270 
L 513 270 
L 513 18 
L 81 18 
z
" style="fill: #ffffff"/>
   </g>
   <g id="matplotlib.axis_1">
    <g id="xtick_1">
     <g id="line2d_1">
      <defs>
       <path id="m67c67ca8c4" d="M 0 0 
L 0 3.5 
" style="stroke: #000000; stroke-width: 0.8"/>
      </defs>
      <g>
       <use xlink:href="#m67c67ca8c4" x="81" y="270" style="stroke: #000000; stroke-width: 0.8"/>
      </g>
     </g>
     <g id="text_1">
      <!-- $-8$ -->
      <g transform="translate(73.42426 285.30218) scale(0.12 -0.12)">
       <defs>
        <path id="CMSY10-0" d="M 4218 1472 
C 4326 1472 4442 1472 4442 1600 
C 4442 1728 4326 1728 4218 1728 
L 755 1728 
C 646 1728 531 1728 531 1600 
C 531 1472 646 1472 755 1472 
L 4218 1472 
z
" transform="scale(0.015625)"/>
        <path id="CMR17-38" d="M 1741 2264 
C 2144 2467 2554 2773 2554 3263 
C 2554 3841 1990 4179 1472 4179 
C 890 4179 378 3759 378 3180 
C 378 3021 416 2747 666 2505 
C 730 2442 998 2251 1171 2130 
C 883 1983 211 1634 211 934 
C 211 279 838 -128 1459 -128 
C 2144 -128 2720 362 2720 1010 
C 2720 1590 2330 1857 2074 2029 
L 1741 2264 
z
M 902 2822 
C 851 2854 595 3051 595 3351 
C 595 3739 998 4032 1459 4032 
C 1965 4032 2336 3676 2336 3262 
C 2336 2669 1670 2331 1638 2331 
C 1632 2331 1626 2331 1574 2370 
L 902 2822 
z
M 2080 1519 
C 2176 1449 2483 1240 2483 851 
C 2483 381 2010 25 1472 25 
C 890 25 448 438 448 940 
C 448 1443 838 1862 1280 2060 
L 2080 1519 
z
" transform="scale(0.015625)"/>
       </defs>
       <use xlink:href="#CMSY10-0" transform="scale(0.996264)"/>
       <use xlink:href="#CMR17-38" transform="translate(77.487468 0) scale(0.996264)"/>
      </g>
     </g>
    </g>
    <g id="xtick_2">
     <g id="line2d_2">
      <g>
       <use xlink:href="#m67c67ca8c4" x="159.545455" y="270" style="stroke: #000000; stroke-width: 0.8"/>
      </g>
     </g>
     <g id="text_2">
      <!-- $-6$ -->
      <g transform="translate(151.969715 285.30218) scale(0.12 -0.12)">
       <defs>
        <path id="CMR17-36" d="M 678 2176 
C 678 3690 1395 4032 1811 4032 
C 1946 4032 2272 4009 2400 3776 
C 2298 3776 2106 3776 2106 3553 
C 2106 3381 2246 3323 2336 3323 
C 2394 3323 2566 3348 2566 3560 
C 2566 3954 2246 4179 1805 4179 
C 1043 4179 243 3390 243 1984 
C 243 253 966 -128 1478 -128 
C 2099 -128 2688 427 2688 1283 
C 2688 2081 2170 2662 1517 2662 
C 1126 2662 838 2407 678 1960 
L 678 2176 
z
M 1478 25 
C 691 25 691 1200 691 1436 
C 691 1896 909 2560 1504 2560 
C 1613 2560 1926 2560 2138 2120 
C 2253 1870 2253 1609 2253 1289 
C 2253 944 2253 690 2118 434 
C 1978 171 1773 25 1478 25 
z
" transform="scale(0.015625)"/>
       </defs>
       <use xlink:href="#CMSY10-0" transform="scale(0.996264)"/>
       <use xlink:href="#CMR17-36" transform="translate(77.487468 0) scale(0.996264)"/>
      </g>
     </g>
    </g>
    <g id="xtick_3">
     <g id="line2d_3">
      <g>
       <use xlink:href="#m67c67ca8c4" x="238.090909" y="270" style="stroke: #000000; stroke-width: 0.8"/>
      </g>
     </g>
     <g id="text_3">
      <!-- $-4$ -->
      <g transform="translate(230.515169 285.30218) scale(0.12 -0.12)">
       <defs>
        <path id="CMR17-34" d="M 2150 4122 
C 2150 4256 2144 4256 2029 4256 
L 128 1254 
L 128 1088 
L 1779 1088 
L 1779 457 
C 1779 224 1766 160 1318 160 
L 1197 160 
L 1197 0 
C 1402 0 1747 0 1965 0 
C 2182 0 2528 0 2733 0 
L 2733 160 
L 2611 160 
C 2163 160 2150 224 2150 457 
L 2150 1088 
L 2803 1088 
L 2803 1254 
L 2150 1254 
L 2150 4122 
z
M 1798 3703 
L 1798 1254 
L 256 1254 
L 1798 3703 
z
" transform="scale(0.015625)"/>
       </defs>
       <use xlink:href="#CMSY10-0" transform="scale(0.996264)"/>
       <use xlink:href="#CMR17-34" transform="translate(77.487468 0) scale(0.996264)"/>
      </g>
     </g>
    </g>
    <g id="xtick_4">
     <g id="line2d_4">
      <g>
       <use xlink:href="#m67c67ca8c4" x="316.636364" y="270" style="stroke: #000000; stroke-width: 0.8"/>
      </g>
     </g>
     <g id="text_4">
      <!-- $-2$ -->
      <g transform="translate(309.060624 285.30218) scale(0.12 -0.12)">
       <defs>
        <path id="CMR17-32" d="M 2669 989 
L 2554 989 
C 2490 536 2438 459 2413 420 
C 2381 369 1920 369 1830 369 
L 602 369 
C 832 619 1280 1072 1824 1597 
C 2214 1967 2669 2402 2669 3035 
C 2669 3790 2067 4224 1395 4224 
C 691 4224 262 3604 262 3030 
C 262 2780 448 2748 525 2748 
C 589 2748 781 2787 781 3010 
C 781 3207 614 3264 525 3264 
C 486 3264 448 3258 422 3245 
C 544 3790 915 4058 1306 4058 
C 1862 4058 2227 3617 2227 3035 
C 2227 2479 1901 2000 1536 1584 
L 262 146 
L 262 0 
L 2515 0 
L 2669 989 
z
" transform="scale(0.015625)"/>
       </defs>
       <use xlink:href="#CMSY10-0" transform="scale(0.996264)"/>
       <use xlink:href="#CMR17-32" transform="translate(77.487468 0) scale(0.996264)"/>
      </g>
     </g>
    </g>
    <g id="xtick_5">
     <g id="line2d_5">
      <g>
       <use xlink:href="#m67c67ca8c4" x="395.181818" y="270" style="stroke: #000000; stroke-width: 0.8"/>
      </g>
     </g>
     <g id="text_5">
      <!-- $0$ -->
      <g transform="translate(392.255323 285.30218) scale(0.12 -0.12)">
       <defs>
        <path id="CMR17-30" d="M 2688 2025 
C 2688 2416 2682 3080 2413 3591 
C 2176 4039 1798 4198 1466 4198 
C 1158 4198 768 4058 525 3597 
C 269 3118 243 2524 243 2025 
C 243 1661 250 1106 448 619 
C 723 -39 1216 -128 1466 -128 
C 1760 -128 2208 -7 2470 600 
C 2662 1042 2688 1559 2688 2025 
z
M 1466 -26 
C 1056 -26 813 325 723 812 
C 653 1188 653 1738 653 2096 
C 653 2588 653 2997 736 3387 
C 858 3929 1216 4096 1466 4096 
C 1728 4096 2067 3923 2189 3400 
C 2272 3036 2278 2607 2278 2096 
C 2278 1680 2278 1169 2202 792 
C 2067 95 1690 -26 1466 -26 
z
" transform="scale(0.015625)"/>
       </defs>
       <use xlink:href="#CMR17-30" transform="scale(0.996264)"/>
      </g>
     </g>
    </g>
    <g id="xtick_6">
     <g id="line2d_6">
      <g>
       <use xlink:href="#m67c67ca8c4" x="473.727273" y="270" style="stroke: #000000; stroke-width: 0.8"/>
      </g>
     </g>
     <g id="text_6">
      <!-- $2$ -->
      <g transform="translate(470.800778 285.30218) scale(0.12 -0.12)">
       <use xlink:href="#CMR17-32" transform="scale(0.996264)"/>
      </g>
     </g>
    </g>
    <g id="text_7">
     <!-- $N$ -->
     <g transform="translate(291.531942 301.312652) scale(0.14 -0.14)">
      <defs>
       <path id="CMMI12-4e" d="M 4736 3698 
C 4806 3974 4909 4166 5395 4166 
C 5414 4166 5491 4166 5491 4279 
C 5491 4352 5434 4352 5408 4352 
C 5280 4352 4954 4352 4826 4352 
L 4518 4352 
C 4429 4352 4314 4352 4224 4352 
C 4186 4352 4109 4352 4109 4230 
C 4109 4166 4160 4166 4205 4166 
C 4589 4166 4614 4019 4614 3903 
C 4614 3846 4608 3826 4589 3737 
L 3866 850 
L 2496 4249 
C 2451 4352 2445 4352 2304 4352 
L 1523 4352 
C 1395 4352 1338 4352 1338 4230 
C 1338 4166 1382 4166 1504 4166 
C 1536 4166 1914 4166 1914 4115 
C 1914 4102 1901 4051 1894 4032 
L 1043 635 
C 966 320 813 186 390 186 
C 358 186 294 186 294 67 
C 294 0 358 0 378 0 
C 506 0 832 0 960 0 
L 1267 0 
C 1357 0 1466 0 1555 0 
C 1600 0 1670 0 1670 122 
C 1670 180 1606 186 1581 186 
C 1370 186 1165 224 1165 454 
C 1165 505 1178 562 1190 613 
L 2054 4032 
C 2093 3968 2093 3956 2118 3898 
L 3642 115 
C 3674 38 3686 0 3744 0 
C 3808 0 3814 19 3840 128 
L 4736 3698 
z
" transform="scale(0.015625)"/>
      </defs>
      <use xlink:href="#CMMI12-4e" transform="scale(0.996264)"/>
     </g>
    </g>
   </g>
   <g id="matplotlib.axis_2">
    <g id="ytick_1">
     <g id="line2d_7">
      <defs>
       <path id="mcd271591ae" d="M 0 0 
L -3.5 0 
" style="stroke: #000000; stroke-width: 0.8"/>
      </defs>
      <g>
       <use xlink:href="#mcd271591ae" x="81" y="258.545455" style="stroke: #000000; stroke-width: 0.8"/>
      </g>
     </g>
     <g id="line2d_8">
      <defs>
       <path id="m59762b6878" d="M 0 0 
L 3.5 0 
" style="stroke: #000000; stroke-width: 0.8"/>
      </defs>
      <g>
       <use xlink:href="#m59762b6878" x="513" y="258.545455" style="stroke: #000000; stroke-width: 0.8"/>
      </g>
     </g>
     <g id="text_8">
      <!-- $0$ -->
      <g transform="translate(68.14701 262.696544) scale(0.12 -0.12)">
       <use xlink:href="#CMR17-30" transform="scale(0.996264)"/>
      </g>
     </g>
    </g>
    <g id="ytick_2">
     <g id="line2d_9">
      <g>
       <use xlink:href="#mcd271591ae" x="81" y="144" style="stroke: #000000; stroke-width: 0.8"/>
      </g>
     </g>
     <g id="line2d_10">
      <g>
       <use xlink:href="#m59762b6878" x="513" y="144" style="stroke: #000000; stroke-width: 0.8"/>
      </g>
     </g>
     <g id="text_9">
      <!-- $1$ -->
      <g transform="translate(68.14701 148.15109) scale(0.12 -0.12)">
       <defs>
        <path id="CMR17-31" d="M 1702 4058 
C 1702 4192 1696 4192 1606 4192 
C 1357 3916 979 3827 621 3827 
C 602 3827 570 3827 563 3808 
C 557 3795 557 3782 557 3648 
C 755 3648 1088 3686 1344 3839 
L 1344 461 
C 1344 236 1331 160 781 160 
L 589 160 
L 589 0 
C 896 0 1216 0 1523 0 
C 1830 0 2150 0 2458 0 
L 2458 160 
L 2266 160 
C 1715 160 1702 230 1702 458 
L 1702 4058 
z
" transform="scale(0.015625)"/>
       </defs>
       <use xlink:href="#CMR17-31" transform="scale(0.996264)"/>
      </g>
     </g>
    </g>
    <g id="ytick_3">
     <g id="line2d_11">
      <g>
       <use xlink:href="#mcd271591ae" x="81" y="105.818182" style="stroke: #000000; stroke-width: 0.8"/>
      </g>
     </g>
     <g id="line2d_12">
      <g>
       <use xlink:href="#m59762b6878" x="513" y="105.818182" style="stroke: #000000; stroke-width: 0.8"/>
      </g>
     </g>
     <g id="text_10">
      <!-- $4/3$ -->
      <g transform="translate(56.441029 110.30137) scale(0.12 -0.12)">
       <defs>
        <path id="CMMI12-3d" d="M 2746 4562 
C 2746 4569 2784 4666 2784 4678 
C 2784 4755 2720 4800 2669 4800 
C 2637 4800 2579 4800 2528 4659 
L 384 -1363 
C 384 -1370 346 -1465 346 -1478 
C 346 -1555 410 -1600 461 -1600 
C 499 -1600 557 -1593 602 -1459 
L 2746 4562 
z
" transform="scale(0.015625)"/>
        <path id="CMR17-33" d="M 1414 2157 
C 1984 2157 2234 1662 2234 1090 
C 2234 320 1824 25 1453 25 
C 1114 25 563 194 390 693 
C 422 680 454 680 486 680 
C 640 680 755 782 755 948 
C 755 1133 614 1216 486 1216 
C 378 1216 211 1165 211 926 
C 211 335 787 -128 1466 -128 
C 2176 -128 2720 430 2720 1085 
C 2720 1707 2208 2157 1600 2227 
C 2086 2328 2554 2756 2554 3329 
C 2554 3820 2048 4179 1472 4179 
C 890 4179 378 3829 378 3329 
C 378 3110 544 3072 627 3072 
C 762 3072 877 3155 877 3321 
C 877 3486 762 3569 627 3569 
C 602 3569 570 3569 544 3557 
C 730 3959 1235 4032 1459 4032 
C 1683 4032 2106 3925 2106 3320 
C 2106 3143 2080 2828 1862 2550 
C 1670 2304 1453 2304 1242 2284 
C 1210 2284 1062 2269 1037 2269 
C 992 2263 966 2257 966 2208 
C 966 2163 973 2157 1101 2157 
L 1414 2157 
z
" transform="scale(0.015625)"/>
       </defs>
       <use xlink:href="#CMR17-34" transform="scale(0.996264)"/>
       <use xlink:href="#CMMI12-3d" transform="translate(45.690477 0) scale(0.996264)"/>
       <use xlink:href="#CMR17-33" transform="translate(94.465396 0) scale(0.996264)"/>
      </g>
     </g>
    </g>
    <g id="ytick_4">
     <g id="line2d_13">
      <g>
       <use xlink:href="#mcd271591ae" x="81" y="29.454545" style="stroke: #000000; stroke-width: 0.8"/>
      </g>
     </g>
     <g id="line2d_14">
      <g>
       <use xlink:href="#m59762b6878" x="513" y="29.454545" style="stroke: #000000; stroke-width: 0.8"/>
      </g>
     </g>
     <g id="text_11">
      <!-- $2$ -->
      <g transform="translate(68.14701 33.605635) scale(0.12 -0.12)">
       <use xlink:href="#CMR17-32" transform="scale(0.996264)"/>
      </g>
     </g>
    </g>
    <g id="text_12">
     <!-- $\gamma_\phi$ -->
     <g transform="translate(48.450455 150.528177) rotate(-90) scale(0.14 -0.14)">
      <defs>
       <path id="CMMI12-d" d="M 2419 760 
C 2406 1071 2394 1561 2150 2133 
C 2022 2452 1805 2788 1338 2788 
C 550 2788 122 1790 122 1625 
C 122 1567 166 1567 186 1567 
C 243 1567 243 1580 275 1663 
C 410 2057 819 2368 1261 2368 
C 2150 2368 2278 1383 2278 754 
C 2278 352 2234 220 2195 92 
C 2074 -302 1862 -1090 1862 -1268 
C 1862 -1319 1882 -1376 1933 -1376 
C 2029 -1376 2086 -1166 2157 -912 
C 2310 -353 2349 -73 2381 181 
C 2400 334 2765 1384 3270 2382 
C 3315 2483 3405 2655 3405 2674 
C 3405 2680 3398 2725 3341 2725 
C 3328 2725 3296 2725 3283 2699 
C 3270 2687 3046 2254 2854 1822 
C 2758 1606 2630 1320 2419 760 
z
" transform="scale(0.015625)"/>
       <path id="CMMI12-1e" d="M 2752 4390 
C 2752 4448 2707 4448 2688 4448 
C 2630 4448 2624 4435 2598 4326 
L 2253 2939 
C 2234 2856 2227 2849 2221 2843 
C 2214 2830 2170 2824 2157 2824 
C 1107 2734 301 1864 301 1057 
C 301 361 832 -64 1498 -64 
C 1446 -261 1402 -463 1350 -659 
C 1261 -995 1210 -1204 1210 -1229 
C 1210 -1241 1210 -1280 1274 -1280 
C 1293 -1280 1318 -1280 1331 -1254 
C 1344 -1241 1382 -1089 1408 -1008 
L 1645 -64 
C 2739 -64 3571 854 3571 1680 
C 3571 2343 3085 2816 2374 2816 
L 2752 4390 
z
M 2336 2701 
C 2758 2701 3181 2463 3181 1828 
C 3181 1097 2675 128 1677 50 
L 2336 2701 
z
M 1530 50 
C 1216 50 691 220 691 938 
C 691 1761 1274 2676 2195 2676 
L 1530 50 
z
" transform="scale(0.015625)"/>
      </defs>
      <use xlink:href="#CMMI12-d" transform="scale(0.996264)"/>
      <use xlink:href="#CMMI12-1e" transform="translate(50.599133 -14.943915) scale(0.697382)"/>
     </g>
    </g>
   </g>
   <g id="line2d_15">
    <path d="M 81 105.818182 
L 541 105.818182 
" clip-path="url(#p6faa393ea8)" style="fill: none; stroke-dasharray: 3.2,0.8,0.5,0.8; stroke-dashoffset: 0; stroke: #000000; stroke-width: 0.5"/>
   </g>
   <g id="line2d_16">
    <path d="M 81 144 
L 541 144 
" clip-path="url(#p6faa393ea8)" style="fill: none; stroke-dasharray: 1.85,0.8; stroke-dashoffset: 0; stroke: #000000; stroke-width: 0.5"/>
   </g>
   <g id="line2d_17">
    <path d="M 80.978875 257.679767 
L 84.631695 258.049204 
L 89.580677 258.312191 
L 97.239816 258.473008 
L 113.303837 258.539214 
L 235.724579 258.544231 
L 290.042156 258.427281 
L 304.063396 258.182688 
L 312.939587 257.816163 
L 319.537818 257.328801 
L 324.839967 256.720687 
L 329.317338 255.989533 
L 333.244856 255.128087 
L 336.779623 254.129624 
L 340.039463 252.980991 
L 343.102927 251.667713 
L 346.048566 250.161719 
L 348.915654 248.442481 
L 351.743467 246.483288 
L 354.57128 244.250615 
L 357.477643 241.66762 
L 360.501833 238.678006 
L 363.761673 235.13667 
L 367.45354 230.784282 
L 371.970186 225.094314 
L 381.003477 213.243878 
L 387.01258 205.583131 
L 391.647052 200.028067 
L 395.849496 195.333448 
L 399.81629 191.229886 
L 403.704533 187.524553 
L 407.553501 184.161778 
L 411.402468 181.091137 
L 415.329987 178.242199 
L 419.336055 175.611597 
L 423.459949 173.170456 
L 427.740944 170.896546 
L 432.17904 168.790977 
L 436.852786 166.820504 
L 441.801459 164.977704 
L 447.064334 163.257965 
L 452.680685 161.65852 
L 458.768338 160.159615 
L 465.366568 158.76744 
L 472.593202 157.473094 
L 480.605339 156.268073 
L 489.56008 155.150624 
L 499.693077 154.114871 
L 511.357806 153.151987 
L 513.007364 153.031944 
L 513.007364 153.031944 
" clip-path="url(#p6faa393ea8)" style="fill: none; stroke: #00ff7f; stroke-width: 1.5; stroke-linecap: square"/>
   </g>
   <g id="patch_3">
    <path d="M 81 270 
L 81 18 
" style="fill: none; stroke: #000000; stroke-width: 0.8; stroke-linejoin: miter; stroke-linecap: square"/>
   </g>
   <g id="patch_4">
    <path d="M 513 270 
L 513 18 
" style="fill: none; stroke: #000000; stroke-width: 0.8; stroke-linejoin: miter; stroke-linecap: square"/>
   </g>
   <g id="patch_5">
    <path d="M 81 270 
L 513 270 
" style="fill: none; stroke: #000000; stroke-width: 0.8; stroke-linejoin: miter; stroke-linecap: square"/>
   </g>
   <g id="patch_6">
    <path d="M 81 18 
L 513 18 
" style="fill: none; stroke: #000000; stroke-width: 0.8; stroke-linejoin: miter; stroke-linecap: square"/>
   </g>
   <g id="legend_1">
    <g id="patch_7">
     <path d="M 369.983313 79.866939 
L 504.6 79.866939 
Q 507 79.866939 507 77.466939 
L 507 26.4 
Q 507 24 504.6 24 
L 369.983313 24 
Q 367.583313 24 367.583313 26.4 
L 367.583313 77.466939 
Q 367.583313 79.866939 369.983313 79.866939 
z
" style="fill: #ffffff; opacity: 0.8; stroke: #cccccc; stroke-linejoin: miter"/>
    </g>
    <g id="line2d_18">
     <path d="M 372.383313 33 
L 384.383313 33 
L 396.383313 33 
" style="fill: none; stroke-dasharray: 3.2,0.8,0.5,0.8; stroke-dashoffset: 0; stroke: #000000; stroke-width: 0.5"/>
    </g>
    <g id="text_13">
     <!-- $\gamma_r$ -->
     <g transform="translate(405.983313 37.2) scale(0.12 -0.12)">
      <defs>
       <path id="CMMI12-72" d="M 2490 2612 
C 2291 2574 2189 2433 2189 2293 
C 2189 2139 2310 2088 2400 2088 
C 2579 2088 2726 2242 2726 2433 
C 2726 2638 2528 2816 2208 2816 
C 1952 2816 1658 2701 1389 2312 
C 1344 2650 1088 2816 832 2816 
C 582 2816 454 2625 378 2484 
C 269 2254 173 1871 173 1839 
C 173 1814 198 1782 243 1782 
C 294 1782 301 1788 339 1935 
C 435 2318 557 2689 813 2689 
C 966 2689 1011 2580 1011 2395 
C 1011 2254 947 2005 902 1807 
L 723 1118 
C 698 996 627 709 595 594 
C 550 428 480 128 480 96 
C 480 6 550 -64 646 -64 
C 717 -64 838 -19 877 109 
C 896 160 1133 1124 1171 1271 
C 1203 1411 1242 1546 1274 1686 
C 1299 1775 1325 1878 1344 1961 
C 1363 2018 1536 2331 1696 2472 
C 1773 2542 1939 2689 2202 2689 
C 2304 2689 2406 2670 2490 2612 
z
" transform="scale(0.015625)"/>
      </defs>
      <use xlink:href="#CMMI12-d" transform="scale(0.996264)"/>
      <use xlink:href="#CMMI12-72" transform="translate(50.599133 -14.943915) scale(0.697382)"/>
     </g>
    </g>
    <g id="line2d_19">
     <path d="M 372.383313 49.724596 
L 384.383313 49.724596 
L 396.383313 49.724596 
" style="fill: none; stroke-dasharray: 1.85,0.8; stroke-dashoffset: 0; stroke: #000000; stroke-width: 0.5"/>
    </g>
    <g id="text_14">
     <!-- $\gamma_m$ -->
     <g transform="translate(405.983313 53.924596) scale(0.12 -0.12)">
      <defs>
       <path id="CMMI12-6d" d="M 1318 1871 
C 1331 1910 1491 2229 1728 2433 
C 1894 2586 2112 2689 2362 2689 
C 2618 2689 2707 2497 2707 2242 
C 2707 2203 2707 2076 2630 1775 
L 2470 1118 
C 2419 926 2298 453 2285 383 
C 2259 287 2221 121 2221 96 
C 2221 6 2291 -64 2387 -64 
C 2579 -64 2611 83 2669 313 
L 3053 1839 
C 3066 1890 3398 2689 4102 2689 
C 4358 2689 4448 2497 4448 2242 
C 4448 1884 4198 1188 4058 805 
C 4000 651 3968 568 3968 453 
C 3968 166 4166 -64 4474 -64 
C 5069 -64 5293 875 5293 913 
C 5293 945 5267 971 5229 971 
C 5171 971 5165 952 5133 843 
C 4986 332 4749 64 4493 64 
C 4429 64 4326 64 4326 269 
C 4326 436 4403 640 4429 710 
C 4544 1018 4832 1773 4832 2145 
C 4832 2528 4608 2816 4122 2816 
C 3693 2816 3347 2574 3091 2197 
C 3072 2542 2861 2816 2381 2816 
C 1811 2816 1510 2415 1395 2255 
C 1376 2618 1114 2816 832 2816 
C 646 2816 499 2727 378 2484 
C 262 2254 173 1865 173 1839 
C 173 1814 198 1782 243 1782 
C 294 1782 301 1788 339 1935 
C 435 2312 557 2689 813 2689 
C 960 2689 1011 2586 1011 2395 
C 1011 2254 947 2005 902 1807 
L 723 1118 
C 698 996 627 709 595 594 
C 550 428 480 128 480 96 
C 480 6 550 -64 646 -64 
C 723 -64 813 -26 864 70 
C 877 102 934 326 966 453 
L 1107 1028 
L 1318 1871 
z
" transform="scale(0.015625)"/>
      </defs>
      <use xlink:href="#CMMI12-d" transform="scale(0.996264)"/>
      <use xlink:href="#CMMI12-6d" transform="translate(50.599133 -14.943915) scale(0.697382)"/>
     </g>
    </g>
    <g id="line2d_20">
     <path d="M 372.383313 67.52393 
L 384.383313 67.52393 
L 396.383313 67.52393 
" style="fill: none; stroke: #00ff7f; stroke-width: 1.5; stroke-linecap: square"/>
    </g>
    <g id="text_15">
     <!-- $\gamma_\phi = 2x^2/(x^2+y^2)$ -->
     <g transform="translate(405.983313 71.72393) scale(0.12 -0.12)">
      <defs>
       <path id="CMR17-3d" d="M 4115 2017 
C 4211 2017 4307 2017 4307 2125 
C 4307 2240 4198 2240 4090 2240 
L 512 2240 
C 403 2240 294 2240 294 2125 
C 294 2017 390 2017 486 2017 
L 4115 2017 
z
M 4090 896 
C 4198 896 4307 896 4307 1011 
C 4307 1119 4211 1119 4115 1119 
L 486 1119 
C 390 1119 294 1119 294 1011 
C 294 896 403 896 512 896 
L 4090 896 
z
" transform="scale(0.015625)"/>
       <path id="CMMI12-78" d="M 3034 2606 
C 2829 2567 2752 2414 2752 2293 
C 2752 2139 2874 2088 2963 2088 
C 3155 2088 3290 2254 3290 2427 
C 3290 2695 2982 2816 2714 2816 
C 2323 2816 2106 2433 2048 2312 
C 1901 2816 1504 2816 1389 2816 
C 736 2816 390 1980 390 1839 
C 390 1814 416 1782 461 1782 
C 512 1782 525 1820 538 1846 
C 755 2555 1184 2689 1370 2689 
C 1658 2689 1715 2420 1715 2267 
C 1715 2127 1677 1980 1600 1673 
L 1382 798 
C 1286 415 1101 64 762 64 
C 730 64 570 64 435 147 
C 666 192 717 383 717 460 
C 717 588 621 664 499 664 
C 346 664 179 530 179 326 
C 179 57 480 -64 755 -64 
C 1062 -64 1280 179 1414 441 
C 1517 64 1837 -64 2074 -64 
C 2726 -64 3072 773 3072 913 
C 3072 945 3046 971 3008 971 
C 2950 971 2944 939 2925 888 
C 2752 326 2381 64 2093 64 
C 1869 64 1747 230 1747 492 
C 1747 632 1773 734 1875 1156 
L 2099 2024 
C 2195 2408 2413 2689 2707 2689 
C 2720 2689 2899 2689 3034 2606 
z
" transform="scale(0.015625)"/>
       <path id="CMR17-28" d="M 1958 -1561 
C 1958 -1555 1958 -1542 1939 -1523 
C 1645 -1224 858 -407 858 1581 
C 858 3569 1632 4379 1946 4697 
C 1946 4704 1958 4717 1958 4736 
C 1958 4755 1939 4768 1914 4768 
C 1843 4768 1299 4296 986 3594 
C 666 2887 576 2199 576 1588 
C 576 1128 621 351 1005 -471 
C 1312 -1135 1837 -1600 1914 -1600 
C 1946 -1600 1958 -1587 1958 -1561 
z
" transform="scale(0.015625)"/>
       <path id="CMR17-2b" d="M 2413 1472 
L 4109 1472 
C 4198 1472 4307 1472 4307 1580 
C 4307 1695 4205 1695 4109 1695 
L 2413 1695 
L 2413 3386 
C 2413 3475 2413 3584 2304 3584 
C 2189 3584 2189 3482 2189 3386 
L 2189 1695 
L 493 1695 
C 403 1695 294 1695 294 1587 
C 294 1472 397 1472 493 1472 
L 2189 1472 
L 2189 -218 
C 2189 -307 2189 -416 2298 -416 
C 2413 -416 2413 -314 2413 -218 
L 2413 1472 
z
" transform="scale(0.015625)"/>
       <path id="CMMI12-79" d="M 1683 -700 
C 1510 -939 1261 -1152 947 -1152 
C 870 -1152 563 -1152 467 -889 
C 486 -895 518 -895 531 -895 
C 723 -895 851 -729 851 -582 
C 851 -435 730 -384 634 -384 
C 531 -384 307 -458 307 -759 
C 307 -1071 582 -1286 947 -1286 
C 1587 -1286 2234 -700 2413 6 
L 3040 2485 
C 3046 2517 3059 2556 3059 2594 
C 3059 2689 2982 2753 2886 2753 
C 2829 2753 2694 2727 2643 2535 
L 2170 658 
C 2138 543 2138 530 2086 460 
C 1958 281 1747 64 1440 64 
C 1082 64 1050 415 1050 588 
C 1050 952 1222 1443 1395 1903 
C 1466 2088 1504 2178 1504 2305 
C 1504 2574 1312 2816 998 2816 
C 410 2816 173 1890 173 1839 
C 173 1814 198 1782 243 1782 
C 301 1782 307 1807 333 1897 
C 486 2433 730 2689 979 2689 
C 1037 2689 1146 2689 1146 2478 
C 1146 2312 1075 2127 979 1884 
C 666 1047 666 837 666 683 
C 666 77 1101 -64 1421 -64 
C 1606 -64 1837 -6 2061 230 
L 2067 224 
C 1971 -147 1907 -392 1683 -700 
z
" transform="scale(0.015625)"/>
       <path id="CMR17-29" d="M 1683 1581 
C 1683 2040 1638 2817 1254 3639 
C 947 4303 422 4768 346 4768 
C 326 4768 301 4761 301 4729 
C 301 4717 307 4710 314 4697 
C 621 4378 1402 3568 1402 1584 
C 1402 -407 627 -1217 314 -1537 
C 307 -1549 301 -1556 301 -1568 
C 301 -1600 326 -1600 346 -1600 
C 416 -1600 960 -1128 1274 -426 
C 1594 281 1683 969 1683 1581 
z
" transform="scale(0.015625)"/>
      </defs>
      <use xlink:href="#CMMI12-d" transform="scale(0.996264)"/>
      <use xlink:href="#CMMI12-1e" transform="translate(50.599133 -14.943915) scale(0.697382)"/>
      <use xlink:href="#CMR17-3d" transform="translate(119.185014 0) scale(0.996264)"/>
      <use xlink:href="#CMR17-32" transform="translate(218.573811 0) scale(0.996264)"/>
      <use xlink:href="#CMMI12-78" transform="translate(264.264288 0) scale(0.996264)"/>
      <use xlink:href="#CMR17-32" transform="translate(319.698348 36.153639) scale(0.697382)"/>
      <use xlink:href="#CMMI12-3d" transform="translate(352.179662 0) scale(0.996264)"/>
      <use xlink:href="#CMR17-28" transform="translate(400.954581 0) scale(0.996264)"/>
      <use xlink:href="#CMMI12-78" transform="translate(436.235349 0) scale(0.996264)"/>
      <use xlink:href="#CMR17-32" transform="translate(491.669408 36.153639) scale(0.697382)"/>
      <use xlink:href="#CMR17-2b" transform="translate(546.289929 0) scale(0.996264)"/>
      <use xlink:href="#CMMI12-79" transform="translate(640.143924 0) scale(0.996264)"/>
      <use xlink:href="#CMR17-32" transform="translate(691.282705 36.153639) scale(0.697382)"/>
      <use xlink:href="#CMR17-29" transform="translate(723.764019 0) scale(0.996264)"/>
     </g>
    </g>
   </g>
  </g>
 </g>
 <defs>
  <clipPath id="p6faa393ea8">
   <rect x="81" y="18" width="432" height="252"/>
  </clipPath>
 </defs>
</svg>
