<?xml version="1.0" encoding="utf-8" standalone="no"?>
<!DOCTYPE svg PUBLIC "-//W3C//DTD SVG 1.1//EN"
  "http://www.w3.org/Graphics/SVG/1.1/DTD/svg11.dtd">
<svg xmlns:xlink="http://www.w3.org/1999/xlink" width="720pt" height="504pt" viewBox="0 0 720 504" xmlns="http://www.w3.org/2000/svg" version="1.1">
 <metadata>
  <rdf:RDF xmlns:dc="http://purl.org/dc/elements/1.1/" xmlns:cc="http://creativecommons.org/ns#" xmlns:rdf="http://www.w3.org/1999/02/22-rdf-syntax-ns#">
   <cc:Work>
    <dc:type rdf:resource="http://purl.org/dc/dcmitype/StillImage"/>
    <dc:date>2024-05-20T22:20:25.926638</dc:date>
    <dc:format>image/svg+xml</dc:format>
    <dc:creator>
     <cc:Agent>
      <dc:title>Matplotlib v3.8.3, https://matplotlib.org/</dc:title>
     </cc:Agent>
    </dc:creator>
   </cc:Work>
  </rdf:RDF>
 </metadata>
 <defs>
  <style type="text/css">*{stroke-linejoin: round; stroke-linecap: butt}</style>
 </defs>
 <g id="figure_1">
  <g id="patch_1">
   <path d="M 0 504 
L 720 504 
L 720 0 
L 0 0 
z
" style="fill: #ffffff"/>
  </g>
  <g id="axes_1">
   <g id="patch_2">
    <path d="M 72 415.8 
L 666 415.8 
L 666 37.8 
L 72 37.8 
z
" style="fill: #ffffff"/>
   </g>
   <g id="matplotlib.axis_1">
    <g id="xtick_1">
     <g id="line2d_1">
      <defs>
       <path id="m90f7993675" d="M 0 0 
L 0 3.5 
" style="stroke: #000000; stroke-width: 0.8"/>
      </defs>
      <g>
       <use xlink:href="#m90f7993675" x="135.901863" y="415.8" style="stroke: #000000; stroke-width: 0.8"/>
      </g>
     </g>
     <g id="text_1">
      <!-- $\mathdefault{−12}$ -->
      <g transform="translate(125.399628 431.10218) scale(0.12 -0.12)">
       <defs>
        <path id="CMSY10-0" d="M 4218 1472 
C 4326 1472 4442 1472 4442 1600 
C 4442 1728 4326 1728 4218 1728 
L 755 1728 
C 646 1728 531 1728 531 1600 
C 531 1472 646 1472 755 1472 
L 4218 1472 
z
" transform="scale(0.015625)"/>
        <path id="CMR17-31" d="M 1702 4058 
C 1702 4192 1696 4192 1606 4192 
C 1357 3916 979 3827 621 3827 
C 602 3827 570 3827 563 3808 
C 557 3795 557 3782 557 3648 
C 755 3648 1088 3686 1344 3839 
L 1344 461 
C 1344 236 1331 160 781 160 
L 589 160 
L 589 0 
C 896 0 1216 0 1523 0 
C 1830 0 2150 0 2458 0 
L 2458 160 
L 2266 160 
C 1715 160 1702 230 1702 458 
L 1702 4058 
z
" transform="scale(0.015625)"/>
        <path id="CMR17-32" d="M 2669 989 
L 2554 989 
C 2490 536 2438 459 2413 420 
C 2381 369 1920 369 1830 369 
L 602 369 
C 832 619 1280 1072 1824 1597 
C 2214 1967 2669 2402 2669 3035 
C 2669 3790 2067 4224 1395 4224 
C 691 4224 262 3604 262 3030 
C 262 2780 448 2748 525 2748 
C 589 2748 781 2787 781 3010 
C 781 3207 614 3264 525 3264 
C 486 3264 448 3258 422 3245 
C 544 3790 915 4058 1306 4058 
C 1862 4058 2227 3617 2227 3035 
C 2227 2479 1901 2000 1536 1584 
L 262 146 
L 262 0 
L 2515 0 
L 2669 989 
z
" transform="scale(0.015625)"/>
       </defs>
       <use xlink:href="#CMSY10-0" transform="scale(0.996264)"/>
       <use xlink:href="#CMR17-31" transform="translate(77.487468 0) scale(0.996264)"/>
       <use xlink:href="#CMR17-32" transform="translate(123.177945 0) scale(0.996264)"/>
      </g>
     </g>
    </g>
    <g id="xtick_2">
     <g id="line2d_2">
      <g>
       <use xlink:href="#m90f7993675" x="202.16413" y="415.8" style="stroke: #000000; stroke-width: 0.8"/>
      </g>
     </g>
     <g id="text_2">
      <!-- $\mathdefault{−10}$ -->
      <g transform="translate(191.661895 431.10218) scale(0.12 -0.12)">
       <defs>
        <path id="CMR17-30" d="M 2688 2025 
C 2688 2416 2682 3080 2413 3591 
C 2176 4039 1798 4198 1466 4198 
C 1158 4198 768 4058 525 3597 
C 269 3118 243 2524 243 2025 
C 243 1661 250 1106 448 619 
C 723 -39 1216 -128 1466 -128 
C 1760 -128 2208 -7 2470 600 
C 2662 1042 2688 1559 2688 2025 
z
M 1466 -26 
C 1056 -26 813 325 723 812 
C 653 1188 653 1738 653 2096 
C 653 2588 653 2997 736 3387 
C 858 3929 1216 4096 1466 4096 
C 1728 4096 2067 3923 2189 3400 
C 2272 3036 2278 2607 2278 2096 
C 2278 1680 2278 1169 2202 792 
C 2067 95 1690 -26 1466 -26 
z
" transform="scale(0.015625)"/>
       </defs>
       <use xlink:href="#CMSY10-0" transform="scale(0.996264)"/>
       <use xlink:href="#CMR17-31" transform="translate(77.487468 0) scale(0.996264)"/>
       <use xlink:href="#CMR17-30" transform="translate(123.177945 0) scale(0.996264)"/>
      </g>
     </g>
    </g>
    <g id="xtick_3">
     <g id="line2d_3">
      <g>
       <use xlink:href="#m90f7993675" x="268.426397" y="415.8" style="stroke: #000000; stroke-width: 0.8"/>
      </g>
     </g>
     <g id="text_3">
      <!-- $\mathdefault{−8}$ -->
      <g transform="translate(260.850658 431.10218) scale(0.12 -0.12)">
       <defs>
        <path id="CMR17-38" d="M 1741 2264 
C 2144 2467 2554 2773 2554 3263 
C 2554 3841 1990 4179 1472 4179 
C 890 4179 378 3759 378 3180 
C 378 3021 416 2747 666 2505 
C 730 2442 998 2251 1171 2130 
C 883 1983 211 1634 211 934 
C 211 279 838 -128 1459 -128 
C 2144 -128 2720 362 2720 1010 
C 2720 1590 2330 1857 2074 2029 
L 1741 2264 
z
M 902 2822 
C 851 2854 595 3051 595 3351 
C 595 3739 998 4032 1459 4032 
C 1965 4032 2336 3676 2336 3262 
C 2336 2669 1670 2331 1638 2331 
C 1632 2331 1626 2331 1574 2370 
L 902 2822 
z
M 2080 1519 
C 2176 1449 2483 1240 2483 851 
C 2483 381 2010 25 1472 25 
C 890 25 448 438 448 940 
C 448 1443 838 1862 1280 2060 
L 2080 1519 
z
" transform="scale(0.015625)"/>
       </defs>
       <use xlink:href="#CMSY10-0" transform="scale(0.996264)"/>
       <use xlink:href="#CMR17-38" transform="translate(77.487468 0) scale(0.996264)"/>
      </g>
     </g>
    </g>
    <g id="xtick_4">
     <g id="line2d_4">
      <g>
       <use xlink:href="#m90f7993675" x="334.688664" y="415.8" style="stroke: #000000; stroke-width: 0.8"/>
      </g>
     </g>
     <g id="text_4">
      <!-- $\mathdefault{−6}$ -->
      <g transform="translate(327.112925 431.10218) scale(0.12 -0.12)">
       <defs>
        <path id="CMR17-36" d="M 678 2176 
C 678 3690 1395 4032 1811 4032 
C 1946 4032 2272 4009 2400 3776 
C 2298 3776 2106 3776 2106 3553 
C 2106 3381 2246 3323 2336 3323 
C 2394 3323 2566 3348 2566 3560 
C 2566 3954 2246 4179 1805 4179 
C 1043 4179 243 3390 243 1984 
C 243 253 966 -128 1478 -128 
C 2099 -128 2688 427 2688 1283 
C 2688 2081 2170 2662 1517 2662 
C 1126 2662 838 2407 678 1960 
L 678 2176 
z
M 1478 25 
C 691 25 691 1200 691 1436 
C 691 1896 909 2560 1504 2560 
C 1613 2560 1926 2560 2138 2120 
C 2253 1870 2253 1609 2253 1289 
C 2253 944 2253 690 2118 434 
C 1978 171 1773 25 1478 25 
z
" transform="scale(0.015625)"/>
       </defs>
       <use xlink:href="#CMSY10-0" transform="scale(0.996264)"/>
       <use xlink:href="#CMR17-36" transform="translate(77.487468 0) scale(0.996264)"/>
      </g>
     </g>
    </g>
    <g id="xtick_5">
     <g id="line2d_5">
      <g>
       <use xlink:href="#m90f7993675" x="400.950932" y="415.8" style="stroke: #000000; stroke-width: 0.8"/>
      </g>
     </g>
     <g id="text_5">
      <!-- $\mathdefault{−4}$ -->
      <g transform="translate(393.375192 431.10218) scale(0.12 -0.12)">
       <defs>
        <path id="CMR17-34" d="M 2150 4122 
C 2150 4256 2144 4256 2029 4256 
L 128 1254 
L 128 1088 
L 1779 1088 
L 1779 457 
C 1779 224 1766 160 1318 160 
L 1197 160 
L 1197 0 
C 1402 0 1747 0 1965 0 
C 2182 0 2528 0 2733 0 
L 2733 160 
L 2611 160 
C 2163 160 2150 224 2150 457 
L 2150 1088 
L 2803 1088 
L 2803 1254 
L 2150 1254 
L 2150 4122 
z
M 1798 3703 
L 1798 1254 
L 256 1254 
L 1798 3703 
z
" transform="scale(0.015625)"/>
       </defs>
       <use xlink:href="#CMSY10-0" transform="scale(0.996264)"/>
       <use xlink:href="#CMR17-34" transform="translate(77.487468 0) scale(0.996264)"/>
      </g>
     </g>
    </g>
    <g id="xtick_6">
     <g id="line2d_6">
      <g>
       <use xlink:href="#m90f7993675" x="467.213199" y="415.8" style="stroke: #000000; stroke-width: 0.8"/>
      </g>
     </g>
     <g id="text_6">
      <!-- $\mathdefault{−2}$ -->
      <g transform="translate(459.637459 431.10218) scale(0.12 -0.12)">
       <use xlink:href="#CMSY10-0" transform="scale(0.996264)"/>
       <use xlink:href="#CMR17-32" transform="translate(77.487468 0) scale(0.996264)"/>
      </g>
     </g>
    </g>
    <g id="xtick_7">
     <g id="line2d_7">
      <g>
       <use xlink:href="#m90f7993675" x="533.475466" y="415.8" style="stroke: #000000; stroke-width: 0.8"/>
      </g>
     </g>
     <g id="text_7">
      <!-- $\mathdefault{0}$ -->
      <g transform="translate(530.548971 431.10218) scale(0.12 -0.12)">
       <use xlink:href="#CMR17-30" transform="scale(0.996264)"/>
      </g>
     </g>
    </g>
    <g id="xtick_8">
     <g id="line2d_8">
      <g>
       <use xlink:href="#m90f7993675" x="599.737733" y="415.8" style="stroke: #000000; stroke-width: 0.8"/>
      </g>
     </g>
     <g id="text_8">
      <!-- $\mathdefault{2}$ -->
      <g transform="translate(596.811238 431.10218) scale(0.12 -0.12)">
       <use xlink:href="#CMR17-32" transform="scale(0.996264)"/>
      </g>
     </g>
    </g>
    <g id="xtick_9">
     <g id="line2d_9">
      <g>
       <use xlink:href="#m90f7993675" x="666" y="415.8" style="stroke: #000000; stroke-width: 0.8"/>
      </g>
     </g>
     <g id="text_9">
      <!-- $\mathdefault{4}$ -->
      <g transform="translate(663.073505 431.10218) scale(0.12 -0.12)">
       <use xlink:href="#CMR17-34" transform="scale(0.996264)"/>
      </g>
     </g>
    </g>
    <g id="text_10">
     <!-- $N$ -->
     <g transform="translate(363.531942 447.112652) scale(0.14 -0.14)">
      <defs>
       <path id="CMMI12-4e" d="M 4736 3698 
C 4806 3974 4909 4166 5395 4166 
C 5414 4166 5491 4166 5491 4279 
C 5491 4352 5434 4352 5408 4352 
C 5280 4352 4954 4352 4826 4352 
L 4518 4352 
C 4429 4352 4314 4352 4224 4352 
C 4186 4352 4109 4352 4109 4230 
C 4109 4166 4160 4166 4205 4166 
C 4589 4166 4614 4019 4614 3903 
C 4614 3846 4608 3826 4589 3737 
L 3866 850 
L 2496 4249 
C 2451 4352 2445 4352 2304 4352 
L 1523 4352 
C 1395 4352 1338 4352 1338 4230 
C 1338 4166 1382 4166 1504 4166 
C 1536 4166 1914 4166 1914 4115 
C 1914 4102 1901 4051 1894 4032 
L 1043 635 
C 966 320 813 186 390 186 
C 358 186 294 186 294 67 
C 294 0 358 0 378 0 
C 506 0 832 0 960 0 
L 1267 0 
C 1357 0 1466 0 1555 0 
C 1600 0 1670 0 1670 122 
C 1670 180 1606 186 1581 186 
C 1370 186 1165 224 1165 454 
C 1165 505 1178 562 1190 613 
L 2054 4032 
C 2093 3968 2093 3956 2118 3898 
L 3642 115 
C 3674 38 3686 0 3744 0 
C 3808 0 3814 19 3840 128 
L 4736 3698 
z
" transform="scale(0.015625)"/>
      </defs>
      <use xlink:href="#CMMI12-4e" transform="scale(0.996264)"/>
     </g>
    </g>
   </g>
   <g id="matplotlib.axis_2">
    <g id="ytick_1">
     <g id="line2d_10">
      <defs>
       <path id="m7b878a05dc" d="M 0 0 
L -3.5 0 
" style="stroke: #000000; stroke-width: 0.8"/>
      </defs>
      <g>
       <use xlink:href="#m7b878a05dc" x="72" y="386.723077" style="stroke: #000000; stroke-width: 0.8"/>
      </g>
     </g>
     <g id="line2d_11">
      <defs>
       <path id="m7b0e19c51b" d="M 0 0 
L 3.5 0 
" style="stroke: #000000; stroke-width: 0.8"/>
      </defs>
      <g>
       <use xlink:href="#m7b0e19c51b" x="666" y="386.723077" style="stroke: #000000; stroke-width: 0.8"/>
      </g>
     </g>
     <g id="text_11">
      <!-- $0$ -->
      <g transform="translate(59.14701 390.874167) scale(0.12 -0.12)">
       <use xlink:href="#CMR17-30" transform="scale(0.996264)"/>
      </g>
     </g>
    </g>
    <g id="ytick_2">
     <g id="line2d_12">
      <g>
       <use xlink:href="#m7b878a05dc" x="72" y="314.030769" style="stroke: #000000; stroke-width: 0.8"/>
      </g>
     </g>
     <g id="line2d_13">
      <g>
       <use xlink:href="#m7b0e19c51b" x="666" y="314.030769" style="stroke: #000000; stroke-width: 0.8"/>
      </g>
     </g>
     <g id="text_12">
      <!-- $1/4$ -->
      <g transform="translate(47.441029 318.513957) scale(0.12 -0.12)">
       <defs>
        <path id="CMMI12-3d" d="M 2746 4562 
C 2746 4569 2784 4666 2784 4678 
C 2784 4755 2720 4800 2669 4800 
C 2637 4800 2579 4800 2528 4659 
L 384 -1363 
C 384 -1370 346 -1465 346 -1478 
C 346 -1555 410 -1600 461 -1600 
C 499 -1600 557 -1593 602 -1459 
L 2746 4562 
z
" transform="scale(0.015625)"/>
       </defs>
       <use xlink:href="#CMR17-31" transform="scale(0.996264)"/>
       <use xlink:href="#CMMI12-3d" transform="translate(45.690477 0) scale(0.996264)"/>
       <use xlink:href="#CMR17-34" transform="translate(94.465396 0) scale(0.996264)"/>
      </g>
     </g>
    </g>
    <g id="ytick_3">
     <g id="line2d_14">
      <g>
       <use xlink:href="#m7b878a05dc" x="72" y="241.338462" style="stroke: #000000; stroke-width: 0.8"/>
      </g>
     </g>
     <g id="line2d_15">
      <g>
       <use xlink:href="#m7b0e19c51b" x="666" y="241.338462" style="stroke: #000000; stroke-width: 0.8"/>
      </g>
     </g>
     <g id="text_13">
      <!-- $1/2$ -->
      <g transform="translate(47.441029 245.82165) scale(0.12 -0.12)">
       <use xlink:href="#CMR17-31" transform="scale(0.996264)"/>
       <use xlink:href="#CMMI12-3d" transform="translate(45.690477 0) scale(0.996264)"/>
       <use xlink:href="#CMR17-32" transform="translate(94.465396 0) scale(0.996264)"/>
      </g>
     </g>
    </g>
    <g id="ytick_4">
     <g id="line2d_16">
      <g>
       <use xlink:href="#m7b878a05dc" x="72" y="168.646154" style="stroke: #000000; stroke-width: 0.8"/>
      </g>
     </g>
     <g id="line2d_17">
      <g>
       <use xlink:href="#m7b0e19c51b" x="666" y="168.646154" style="stroke: #000000; stroke-width: 0.8"/>
      </g>
     </g>
     <g id="text_14">
      <!-- $3/4$ -->
      <g transform="translate(47.441029 173.129342) scale(0.12 -0.12)">
       <defs>
        <path id="CMR17-33" d="M 1414 2157 
C 1984 2157 2234 1662 2234 1090 
C 2234 320 1824 25 1453 25 
C 1114 25 563 194 390 693 
C 422 680 454 680 486 680 
C 640 680 755 782 755 948 
C 755 1133 614 1216 486 1216 
C 378 1216 211 1165 211 926 
C 211 335 787 -128 1466 -128 
C 2176 -128 2720 430 2720 1085 
C 2720 1707 2208 2157 1600 2227 
C 2086 2328 2554 2756 2554 3329 
C 2554 3820 2048 4179 1472 4179 
C 890 4179 378 3829 378 3329 
C 378 3110 544 3072 627 3072 
C 762 3072 877 3155 877 3321 
C 877 3486 762 3569 627 3569 
C 602 3569 570 3569 544 3557 
C 730 3959 1235 4032 1459 4032 
C 1683 4032 2106 3925 2106 3320 
C 2106 3143 2080 2828 1862 2550 
C 1670 2304 1453 2304 1242 2284 
C 1210 2284 1062 2269 1037 2269 
C 992 2263 966 2257 966 2208 
C 966 2163 973 2157 1101 2157 
L 1414 2157 
z
" transform="scale(0.015625)"/>
       </defs>
       <use xlink:href="#CMR17-33" transform="scale(0.996264)"/>
       <use xlink:href="#CMMI12-3d" transform="translate(45.690477 0) scale(0.996264)"/>
       <use xlink:href="#CMR17-34" transform="translate(94.465396 0) scale(0.996264)"/>
      </g>
     </g>
    </g>
    <g id="ytick_5">
     <g id="line2d_18">
      <g>
       <use xlink:href="#m7b878a05dc" x="72" y="95.953846" style="stroke: #000000; stroke-width: 0.8"/>
      </g>
     </g>
     <g id="line2d_19">
      <g>
       <use xlink:href="#m7b0e19c51b" x="666" y="95.953846" style="stroke: #000000; stroke-width: 0.8"/>
      </g>
     </g>
     <g id="text_15">
      <!-- $1$ -->
      <g transform="translate(59.14701 100.104936) scale(0.12 -0.12)">
       <use xlink:href="#CMR17-31" transform="scale(0.996264)"/>
      </g>
     </g>
    </g>
    <g id="text_16">
     <!-- Density Parameters -->
     <g transform="translate(40.729001 285.484657) rotate(-90) scale(0.14 -0.14)">
      <defs>
       <path id="CMR17-44" d="M 333 4352 
L 333 4186 
C 774 4186 845 4186 845 3900 
L 845 452 
C 845 166 774 166 333 166 
L 333 0 
L 2368 0 
C 3398 0 4224 943 4224 2141 
C 4224 3346 3411 4352 2368 4352 
L 333 4352 
z
M 1523 166 
C 1267 166 1254 197 1254 414 
L 1254 3938 
C 1254 4155 1267 4186 1523 4186 
L 2240 4186 
C 2771 4186 3750 3874 3750 2141 
C 3750 1242 3488 879 3366 707 
C 3213 510 2848 166 2240 166 
L 1523 166 
z
" transform="scale(0.015625)"/>
       <path id="CMR17-65" d="M 2438 1472 
C 2464 1498 2464 1511 2464 1576 
C 2464 2238 2118 2816 1389 2816 
C 710 2816 173 2169 173 1383 
C 173 551 781 -64 1459 -64 
C 2176 -64 2458 607 2458 740 
C 2458 784 2419 784 2406 784 
C 2362 784 2355 771 2330 696 
C 2189 265 1837 51 1504 51 
C 1229 51 954 203 781 480 
C 582 803 582 1176 582 1472 
L 2438 1472 
z
M 589 1568 
C 634 2505 1126 2714 1382 2714 
C 1818 2714 2112 2297 2118 1568 
L 589 1568 
z
" transform="scale(0.015625)"/>
       <path id="CMR17-6e" d="M 2656 1933 
C 2656 2259 2592 2790 1837 2790 
C 1331 2790 1069 2400 973 2144 
L 966 2144 
L 966 2790 
L 211 2720 
L 211 2554 
C 589 2554 646 2515 646 2208 
L 646 428 
C 646 184 621 153 211 153 
L 211 -13 
C 365 0 646 0 813 0 
C 979 0 1267 0 1421 -13 
L 1421 153 
C 1011 153 986 178 986 428 
L 986 1658 
C 986 2247 1344 2688 1792 2688 
C 2266 2688 2317 2266 2317 1958 
L 2317 428 
C 2317 184 2291 153 1882 153 
L 1882 -13 
C 2035 0 2317 0 2483 0 
C 2650 0 2938 0 3091 -13 
L 3091 153 
C 2682 153 2656 178 2656 428 
L 2656 1933 
z
" transform="scale(0.015625)"/>
       <path id="CMR17-73" d="M 1978 2697 
C 1978 2813 1971 2819 1933 2819 
C 1907 2819 1901 2813 1824 2717 
C 1805 2691 1747 2626 1728 2601 
C 1523 2819 1235 2819 1126 2819 
C 416 2819 160 2447 160 2076 
C 160 1498 813 1365 998 1325 
C 1402 1243 1542 1217 1677 1101 
C 1760 1025 1901 884 1901 654 
C 1901 384 1747 38 1158 38 
C 602 38 403 460 288 1021 
C 269 1110 269 1117 218 1117 
C 166 1117 160 1110 160 983 
L 160 63 
C 160 -51 166 -58 205 -58 
C 237 -58 243 -51 275 0 
C 314 57 410 211 448 276 
C 576 103 800 -64 1158 -64 
C 1792 -64 2131 283 2131 784 
C 2131 1112 1958 1285 1875 1362 
C 1683 1561 1459 1606 1190 1657 
C 838 1735 390 1825 390 2217 
C 390 2383 480 2737 1126 2737 
C 1811 2737 1850 2094 1862 1888 
C 1869 1856 1901 1849 1920 1849 
C 1978 1849 1978 1869 1978 1978 
L 1978 2697 
z
" transform="scale(0.015625)"/>
       <path id="CMR17-69" d="M 992 3909 
C 992 4049 877 4170 730 4170 
C 589 4170 467 4056 467 3909 
C 467 3769 582 3648 730 3648 
C 870 3648 992 3763 992 3909 
z
M 243 2706 
L 243 2541 
C 602 2541 653 2502 653 2197 
L 653 427 
C 653 184 627 153 218 153 
L 218 -13 
C 371 0 646 0 806 0 
C 960 0 1222 0 1370 -13 
L 1370 153 
C 992 153 979 191 979 420 
L 979 2776 
L 243 2706 
z
" transform="scale(0.015625)"/>
       <path id="CMR17-74" d="M 966 2560 
L 1862 2560 
L 1862 2725 
L 966 2725 
L 966 3904 
L 851 3904 
C 838 3245 614 2668 70 2668 
L 70 2560 
L 627 2560 
L 627 771 
C 627 650 627 -64 1370 -64 
C 1747 -64 1965 306 1965 777 
L 1965 1140 
L 1850 1140 
L 1850 783 
C 1850 344 1677 51 1408 51 
C 1222 51 966 178 966 758 
L 966 2560 
z
" transform="scale(0.015625)"/>
       <path id="CMR17-79" d="M 2496 2197 
C 2656 2586 2944 2586 3034 2586 
L 3034 2752 
C 2912 2752 2752 2752 2630 2752 
C 2496 2752 2285 2752 2157 2758 
L 2157 2592 
C 2400 2573 2406 2394 2406 2343 
C 2406 2280 2394 2248 2362 2171 
L 1664 449 
L 902 2306 
C 870 2382 870 2426 870 2433 
C 870 2573 1018 2586 1171 2586 
L 1171 2758 
C 1018 2752 742 2752 582 2752 
C 410 2752 205 2752 64 2758 
L 64 2586 
C 410 2586 448 2554 531 2350 
L 1485 15 
C 1197 -738 1030 -1178 627 -1178 
C 557 -1178 397 -1159 282 -1044 
C 429 -1031 493 -942 493 -833 
C 493 -725 416 -629 288 -629 
C 147 -629 77 -725 77 -840 
C 77 -1095 339 -1280 627 -1280 
C 998 -1280 1229 -922 1357 -604 
L 2496 2197 
z
" transform="scale(0.015625)"/>
       <path id="CMR17-50" d="M 1267 2042 
L 2291 2042 
C 3117 2042 3718 2578 3718 3184 
C 3718 3791 3130 4352 2291 4352 
L 333 4352 
L 333 4186 
C 774 4186 845 4186 845 3899 
L 845 446 
C 845 160 774 160 333 160 
L 333 0 
C 518 0 858 0 1056 0 
C 1254 0 1594 0 1779 0 
L 1779 160 
C 1338 160 1267 160 1267 446 
L 1267 2042 
z
M 1254 2176 
L 1254 3938 
C 1254 4155 1267 4186 1523 4186 
L 2170 4186 
C 2995 4186 3232 3714 3232 3184 
C 3232 2604 2950 2176 2170 2176 
L 1254 2176 
z
" transform="scale(0.015625)"/>
       <path id="CMR17-61" d="M 2304 1653 
C 2304 2072 2304 2294 2035 2543 
C 1798 2752 1523 2816 1306 2816 
C 800 2816 435 2407 435 1971 
C 435 1728 627 1728 666 1728 
C 749 1728 896 1778 896 1954 
C 896 2112 774 2181 666 2181 
C 640 2181 608 2174 589 2168 
C 723 2592 1069 2714 1293 2714 
C 1613 2714 1965 2429 1965 1885 
L 1965 1600 
C 1587 1600 1133 1549 774 1357 
C 371 1133 256 813 256 570 
C 256 77 832 -64 1171 -64 
C 1523 -64 1850 139 1990 511 
C 2003 233 2182 -18 2464 -18 
C 2598 -18 2938 70 2938 567 
L 2938 920 
L 2822 920 
L 2822 562 
C 2822 178 2650 128 2566 128 
C 2304 128 2304 458 2304 738 
L 2304 1653 
z
M 1965 870 
C 1965 317 1568 38 1216 38 
C 896 38 646 275 646 570 
C 646 761 730 1100 1101 1305 
C 1408 1478 1760 1504 1965 1504 
L 1965 870 
z
" transform="scale(0.015625)"/>
       <path id="CMR17-72" d="M 960 1497 
C 960 2112 1222 2688 1702 2688 
C 1747 2688 1792 2682 1837 2662 
C 1837 2662 1696 2617 1696 2452 
C 1696 2298 1818 2234 1914 2234 
C 1990 2234 2131 2279 2131 2458 
C 2131 2663 1926 2790 1709 2790 
C 1222 2790 1011 2317 947 2093 
L 941 2093 
L 941 2790 
L 198 2720 
L 198 2554 
C 576 2554 634 2515 634 2208 
L 634 428 
C 634 184 608 153 198 153 
L 198 -13 
C 352 0 646 0 813 0 
C 998 0 1325 0 1498 -13 
L 1498 153 
C 1037 153 960 153 960 440 
L 960 1497 
z
" transform="scale(0.015625)"/>
       <path id="CMR17-6d" d="M 4326 1933 
C 4326 2252 4269 2790 3507 2790 
C 3072 2790 2771 2496 2656 2151 
L 2650 2151 
C 2573 2676 2195 2790 1837 2790 
C 1331 2790 1069 2400 973 2144 
L 966 2144 
L 966 2790 
L 211 2720 
L 211 2554 
C 589 2554 646 2515 646 2208 
L 646 428 
C 646 184 621 153 211 153 
L 211 -13 
C 365 0 646 0 813 0 
C 979 0 1267 0 1421 -13 
L 1421 153 
C 1011 153 986 178 986 428 
L 986 1658 
C 986 2247 1344 2688 1792 2688 
C 2266 2688 2317 2266 2317 1958 
L 2317 428 
C 2317 184 2291 153 1882 153 
L 1882 -13 
C 2035 0 2317 0 2483 0 
C 2650 0 2938 0 3091 -13 
L 3091 153 
C 2682 153 2656 178 2656 428 
L 2656 1658 
C 2656 2247 3014 2688 3462 2688 
C 3936 2688 3987 2266 3987 1958 
L 3987 428 
C 3987 184 3962 153 3552 153 
L 3552 -13 
C 3706 0 3987 0 4154 0 
C 4320 0 4608 0 4762 -13 
L 4762 153 
C 4352 153 4326 178 4326 428 
L 4326 1933 
z
" transform="scale(0.015625)"/>
      </defs>
      <use xlink:href="#CMR17-44" transform="scale(0.996264)"/>
      <use xlink:href="#CMR17-65" transform="translate(70.393556 0) scale(0.996264)"/>
      <use xlink:href="#CMR17-6e" transform="translate(110.879216 0) scale(0.996264)"/>
      <use xlink:href="#CMR17-73" transform="translate(161.774586 0) scale(0.996264)"/>
      <use xlink:href="#CMR17-69" transform="translate(197.575924 0) scale(0.996264)"/>
      <use xlink:href="#CMR17-74" transform="translate(222.446982 0) scale(0.996264)"/>
      <use xlink:href="#CMR17-79" transform="translate(255.125296 0) scale(0.996264)"/>
      <use xlink:href="#CMR17-50" transform="translate(333.494178 0) scale(0.996264)"/>
      <use xlink:href="#CMR17-61" transform="translate(393.478025 0) scale(0.996264)"/>
      <use xlink:href="#CMR17-72" transform="translate(439.168502 0) scale(0.996264)"/>
      <use xlink:href="#CMR17-61" transform="translate(474.44927 0) scale(0.996264)"/>
      <use xlink:href="#CMR17-6d" transform="translate(520.139747 0) scale(0.996264)"/>
      <use xlink:href="#CMR17-65" transform="translate(597.059337 0) scale(0.996264)"/>
      <use xlink:href="#CMR17-74" transform="translate(637.544997 0) scale(0.996264)"/>
      <use xlink:href="#CMR17-65" transform="translate(672.825765 0) scale(0.996264)"/>
      <use xlink:href="#CMR17-72" transform="translate(713.311426 0) scale(0.996264)"/>
      <use xlink:href="#CMR17-73" transform="translate(748.592193 0) scale(0.996264)"/>
     </g>
    </g>
   </g>
   <g id="line2d_20">
    <path d="M 533.475466 444.876923 
L 533.475466 37.8 
" clip-path="url(#p9ffbea232a)" style="fill: none; stroke: #000000; stroke-width: 1.5; stroke-linecap: square"/>
   </g>
   <g id="line2d_21">
    <path d="M 224.324309 444.876923 
L 224.324309 37.8 
" clip-path="url(#p9ffbea232a)" style="fill: none; stroke-dasharray: 0.75,1.2375; stroke-dashoffset: 0; stroke: #000000; stroke-width: 0.75"/>
   </g>
   <g id="line2d_22">
    <path d="M 438.511318 444.876923 
L 438.511318 37.8 
" clip-path="url(#p9ffbea232a)" style="fill: none; stroke-dasharray: 2.775,1.2; stroke-dashoffset: 0; stroke: #000000; stroke-width: 0.75"/>
   </g>
   <g id="line2d_23">
    <path d="M 522.038553 444.876923 
L 522.038553 37.8 
" clip-path="url(#p9ffbea232a)" style="fill: none; stroke-dasharray: 4.8,1.2,0.75,1.2; stroke-dashoffset: 0; stroke: #000000; stroke-width: 0.75"/>
   </g>
   <g id="line2d_24">
    <path d="M 72 98.854269 
L 80.925563 99.739348 
L 88.830683 100.742634 
L 95.940653 101.865607 
L 102.417815 103.110656 
L 108.381443 104.480719 
L 113.924304 105.979996 
L 119.115973 107.612684 
L 124.016088 109.385225 
L 128.671031 111.304377 
L 133.117247 113.376943 
L 137.39118 115.61373 
L 141.522649 118.026531 
L 145.534845 120.627009 
L 149.454274 123.432699 
L 153.297501 126.457923 
L 157.084404 129.722654 
L 160.834864 133.250894 
L 164.565444 137.067589 
L 168.292712 141.201305 
L 172.033232 145.684368 
L 175.806883 150.557239 
L 179.633544 155.86513 
L 183.53972 161.667677 
L 187.55523 168.035936 
L 191.716517 175.058222 
L 196.076591 182.859045 
L 200.718282 191.628265 
L 205.774113 201.666703 
L 211.512448 213.571153 
L 218.705246 229.036986 
L 239.42554 273.907573 
L 245.170502 285.623007 
L 250.229646 295.445741 
L 254.881276 304.00061 
L 259.261229 311.59783 
L 263.449021 318.422743 
L 267.494349 324.59585 
L 271.436969 330.211389 
L 275.306701 335.340213 
L 279.126736 340.037455 
L 282.916953 344.348674 
L 286.69723 348.314403 
L 290.484134 351.967049 
L 294.297543 355.337968 
L 298.154022 358.45129 
L 302.070138 361.327815 
L 306.065769 363.987421 
L 310.164106 366.448381 
L 314.385029 368.723489 
L 318.758357 370.82763 
L 323.310593 372.77035 
L 328.078182 374.562169 
L 333.104195 376.211995 
L 338.435016 377.725849 
L 344.126967 379.108897 
L 350.256251 380.366792 
L 356.915636 381.50342 
L 364.224393 382.521791 
L 372.344866 383.424686 
L 381.502348 384.21435 
L 392.018212 384.89234 
L 404.389427 385.46036 
L 419.427709 385.919851 
L 438.604085 386.27246 
L 465.062714 386.521199 
L 508.905319 386.681612 
L 580.604692 386.723046 
L 666.00053 386.723077 
L 666.00053 386.723077 
" clip-path="url(#p9ffbea232a)" style="fill: none; stroke: #ff0000; stroke-width: 1.5; stroke-linecap: square"/>
   </g>
   <g id="line2d_25">
    <path d="M 72 383.822654 
L 80.925563 382.937575 
L 88.830683 381.934289 
L 95.940653 380.811316 
L 102.417815 379.566268 
L 108.381443 378.196204 
L 113.924304 376.696927 
L 119.115973 375.064239 
L 124.016088 373.291698 
L 128.671031 371.372546 
L 133.117247 369.29998 
L 137.39118 367.063193 
L 141.522649 364.650392 
L 145.534845 362.049914 
L 149.454274 359.244224 
L 153.297501 356.219 
L 157.084404 352.954269 
L 160.834864 349.426029 
L 164.565444 345.609334 
L 168.292712 341.475618 
L 172.033232 336.992555 
L 175.806883 332.119684 
L 179.633544 326.811793 
L 183.53972 321.009246 
L 187.55523 314.640987 
L 191.716517 307.618701 
L 196.076591 299.817878 
L 200.718282 291.048658 
L 205.774113 281.01022 
L 211.512448 269.10577 
L 218.705246 253.639938 
L 239.42554 208.76935 
L 245.170502 197.053916 
L 250.229646 187.231182 
L 254.881276 178.676313 
L 259.261229 171.079093 
L 263.449021 164.25418 
L 267.494349 158.081073 
L 271.436969 152.465534 
L 275.306701 147.33671 
L 279.126736 142.639468 
L 282.916953 138.328249 
L 286.69723 134.36252 
L 290.484134 130.709874 
L 294.297543 127.338955 
L 298.154022 124.225633 
L 302.070138 121.349109 
L 306.065769 118.689503 
L 310.164106 116.228543 
L 314.385029 113.953436 
L 318.758357 111.849296 
L 323.310593 109.906578 
L 328.078182 108.11476 
L 333.104195 106.464938 
L 338.435016 104.951091 
L 344.126967 103.568054 
L 350.256251 102.310181 
L 356.915636 101.173595 
L 364.224393 100.15531 
L 372.341553 99.252937 
L 381.489096 98.464424 
L 391.975142 97.789168 
L 404.217144 97.229852 
L 418.536478 96.803579 
L 433.584699 96.57456 
L 445.405934 96.601955 
L 453.615862 96.830896 
L 459.672257 97.213058 
L 464.44316 97.729734 
L 468.382467 98.374233 
L 471.748604 99.145623 
L 474.7006 100.046505 
L 477.344475 101.082916 
L 479.756431 102.265312 
L 481.989478 103.606517 
L 484.086687 105.125348 
L 486.08119 106.845381 
L 487.996177 108.792223 
L 489.854841 111.001697 
L 491.673747 113.513254 
L 493.469462 116.377656 
L 495.251924 119.646757 
L 497.031073 123.382244 
L 498.820161 127.665495 
L 500.629129 132.585281 
L 502.467914 138.244192 
L 504.34977 144.770582 
L 506.294575 152.337474 
L 508.322209 161.143628 
L 510.465802 171.472774 
L 512.778364 183.744798 
L 515.362603 198.704062 
L 518.483568 218.150896 
L 524.2716 255.99244 
L 528.257291 281.225884 
L 531.113207 297.922829 
L 533.588112 311.114479 
L 535.850978 322.004383 
L 537.978005 331.176208 
L 540.008951 338.974656 
L 541.973636 345.657298 
L 543.888623 351.400688 
L 545.770479 356.356762 
L 547.629143 360.638511 
L 549.477867 364.349774 
L 551.326592 367.571215 
L 553.185256 370.370994 
L 555.070425 372.814305 
L 556.995352 374.948997 
L 558.976601 376.81676 
L 561.037366 378.455109 
L 563.200838 379.89147 
L 565.503461 381.152543 
L 567.984993 382.256362 
L 570.701756 383.218712 
L 573.726641 384.050607 
L 577.165666 384.760872 
L 581.171236 385.354971 
L 585.991836 385.837402 
L 592.061484 386.211222 
L 600.258159 386.479174 
L 612.79503 386.64465 
L 638.408812 386.715363 
L 666.00053 386.722442 
L 666.00053 386.722442 
" clip-path="url(#p9ffbea232a)" style="fill: none; stroke: #008000; stroke-width: 1.5; stroke-linecap: square"/>
   </g>
   <g id="line2d_26">
    <path d="M 72 386.723077 
L 435.148494 386.611988 
L 447.811264 386.373522 
L 455.603738 386.015902 
L 461.29569 385.540812 
L 465.801542 384.948636 
L 469.552001 384.23703 
L 472.778986 383.402783 
L 475.624962 382.440956 
L 478.189322 381.342237 
L 480.541642 380.093815 
L 482.728306 378.682171 
L 484.78907 377.087046 
L 486.757068 375.281113 
L 488.652176 373.238211 
L 490.497587 370.918699 
L 492.309868 368.27874 
L 494.098956 365.274048 
L 495.881418 361.838304 
L 497.66388 357.911113 
L 499.459595 353.406366 
L 501.278501 348.230541 
L 503.133852 342.264991 
L 505.035587 335.385101 
L 507.006897 327.398764 
L 509.070975 318.084443 
L 511.267578 307.114486 
L 513.662969 293.981141 
L 516.392985 277.721739 
L 519.88502 255.479841 
L 528.60517 199.353642 
L 531.404762 183.142442 
L 533.849849 170.250589 
L 536.096149 159.567693 
L 538.209924 150.567399 
L 540.234244 142.897125 
L 542.192302 136.329063 
L 544.103976 130.677811 
L 545.982519 125.803784 
L 547.841183 121.587568 
L 549.689907 117.935037 
L 551.538632 114.766029 
L 553.400609 112.008367 
L 555.289091 109.603359 
L 557.217331 107.503436 
L 559.205207 105.664384 
L 561.275911 104.05037 
L 563.452635 102.635232 
L 565.771824 101.393331 
L 568.276548 100.306059 
L 571.02313 99.358979 
L 574.087772 98.541174 
L 577.579807 97.844346 
L 581.661579 97.26283 
L 586.594825 96.792611 
L 592.846695 96.430637 
L 601.374682 96.174316 
L 614.686825 96.019928 
L 643.494461 95.958714 
L 666.00053 95.954481 
L 666.00053 95.954481 
" clip-path="url(#p9ffbea232a)" style="fill: none; stroke: #0000ff; stroke-width: 1.5; stroke-linecap: square"/>
   </g>
   <g id="patch_3">
    <path d="M 72 415.8 
L 72 37.8 
" style="fill: none; stroke: #000000; stroke-width: 0.8; stroke-linejoin: miter; stroke-linecap: square"/>
   </g>
   <g id="patch_4">
    <path d="M 666 415.8 
L 666 37.8 
" style="fill: none; stroke: #000000; stroke-width: 0.8; stroke-linejoin: miter; stroke-linecap: square"/>
   </g>
   <g id="patch_5">
    <path d="M 72 415.8 
L 666 415.8 
" style="fill: none; stroke: #000000; stroke-width: 0.8; stroke-linejoin: miter; stroke-linecap: square"/>
   </g>
   <g id="patch_6">
    <path d="M 72 37.8 
L 666 37.8 
" style="fill: none; stroke: #000000; stroke-width: 0.8; stroke-linejoin: miter; stroke-linecap: square"/>
   </g>
   <g id="text_17">
    <g id="patch_7">
     <path d="M 186.393175 364.77075 
L 256.079695 364.77075 
L 256.079695 344.543974 
L 186.393175 344.543974 
z
" style="fill: #ffffff; stroke: #ffffff; stroke-linejoin: miter"/>
    </g>
    <!-- $z=11283.0$ -->
    <g transform="translate(191.193175 357.646154) scale(0.12 -0.12)">
     <defs>
      <path id="CMMI12-7a" d="M 813 486 
C 1088 803 1312 1004 1632 1296 
C 2016 1632 2182 1793 2272 1891 
C 2720 2338 2944 2713 2944 2764 
C 2944 2816 2893 2816 2880 2816 
C 2835 2816 2822 2793 2790 2750 
C 2630 2494 2477 2367 2310 2367 
C 2176 2367 2106 2421 1984 2565 
C 1850 2715 1741 2816 1555 2816 
C 1088 2816 806 2257 806 2128 
C 806 2108 813 2068 870 2068 
C 922 2068 928 2091 947 2133 
C 1056 2372 1363 2414 1485 2414 
C 1619 2414 1747 2376 1882 2327 
C 2125 2240 2227 2240 2291 2240 
C 2336 2240 2362 2240 2394 2246 
C 2182 1994 1837 1683 1549 1418 
L 902 816 
C 512 415 275 33 275 -12 
C 275 -51 307 -64 346 -64 
C 384 -64 390 -57 435 14 
C 538 163 742 384 979 384 
C 1114 384 1178 342 1306 193 
C 1427 61 1536 -64 1741 -64 
C 2368 -64 2726 732 2726 876 
C 2726 903 2720 942 2656 942 
C 2605 942 2598 917 2579 855 
C 2438 488 2061 338 1811 338 
C 1677 338 1549 376 1414 425 
C 1158 512 1088 512 1005 512 
C 941 512 870 512 813 486 
z
" transform="scale(0.015625)"/>
      <path id="CMR17-3d" d="M 4115 2017 
C 4211 2017 4307 2017 4307 2125 
C 4307 2240 4198 2240 4090 2240 
L 512 2240 
C 403 2240 294 2240 294 2125 
C 294 2017 390 2017 486 2017 
L 4115 2017 
z
M 4090 896 
C 4198 896 4307 896 4307 1011 
C 4307 1119 4211 1119 4115 1119 
L 486 1119 
C 390 1119 294 1119 294 1011 
C 294 896 403 896 512 896 
L 4090 896 
z
" transform="scale(0.015625)"/>
      <path id="CMMI12-3a" d="M 1178 307 
C 1178 492 1024 619 870 619 
C 685 619 557 466 557 313 
C 557 128 710 0 864 0 
C 1050 0 1178 153 1178 307 
z
" transform="scale(0.015625)"/>
     </defs>
     <use xlink:href="#CMMI12-7a" transform="scale(0.996264)"/>
     <use xlink:href="#CMR17-3d" transform="translate(77.429154 0) scale(0.996264)"/>
     <use xlink:href="#CMR17-31" transform="translate(176.817951 0) scale(0.996264)"/>
     <use xlink:href="#CMR17-31" transform="translate(222.508428 0) scale(0.996264)"/>
     <use xlink:href="#CMR17-32" transform="translate(268.198905 0) scale(0.996264)"/>
     <use xlink:href="#CMR17-38" transform="translate(313.889382 0) scale(0.996264)"/>
     <use xlink:href="#CMR17-33" transform="translate(359.579859 0) scale(0.996264)"/>
     <use xlink:href="#CMMI12-3a" transform="translate(405.270336 0) scale(0.996264)"/>
     <use xlink:href="#CMR17-30" transform="translate(432.367513 0) scale(0.996264)"/>
    </g>
   </g>
   <g id="text_18">
    <g id="patch_8">
     <path d="M 400.580184 74.001519 
L 452.707733 74.001519 
L 452.707733 53.774743 
L 400.580184 53.774743 
z
" style="fill: #ffffff; stroke: #ffffff; stroke-linejoin: miter"/>
    </g>
    <!-- $z=16.6$ -->
    <g transform="translate(405.380184 66.876923) scale(0.12 -0.12)">
     <use xlink:href="#CMMI12-7a" transform="scale(0.996264)"/>
     <use xlink:href="#CMR17-3d" transform="translate(77.429154 0) scale(0.996264)"/>
     <use xlink:href="#CMR17-31" transform="translate(176.817951 0) scale(0.996264)"/>
     <use xlink:href="#CMR17-36" transform="translate(222.508428 0) scale(0.996264)"/>
     <use xlink:href="#CMMI12-3a" transform="translate(268.198905 0) scale(0.996264)"/>
     <use xlink:href="#CMR17-36" transform="translate(295.296082 0) scale(0.996264)"/>
    </g>
   </g>
   <g id="text_19">
    <g id="patch_9">
     <path d="M 474.168079 74.001519 
L 520.442638 74.001519 
L 520.442638 53.774743 
L 474.168079 53.774743 
z
" style="fill: #ffffff; stroke: #ffffff; stroke-linejoin: miter"/>
    </g>
    <!-- $z=0.4$ -->
    <g transform="translate(478.968079 66.876923) scale(0.12 -0.12)">
     <use xlink:href="#CMMI12-7a" transform="scale(0.996264)"/>
     <use xlink:href="#CMR17-3d" transform="translate(77.429154 0) scale(0.996264)"/>
     <use xlink:href="#CMR17-30" transform="translate(176.817951 0) scale(0.996264)"/>
     <use xlink:href="#CMMI12-3a" transform="translate(222.508428 0) scale(0.996264)"/>
     <use xlink:href="#CMR17-34" transform="translate(249.605605 0) scale(0.996264)"/>
    </g>
   </g>
   <g id="legend_1">
    <g id="patch_10">
     <path d="M 80.4 116.547368 
L 166.133759 116.547368 
Q 168.533759 116.547368 168.533759 114.147368 
L 168.533759 46.2 
Q 168.533759 43.8 166.133759 43.8 
L 80.4 43.8 
Q 78 43.8 78 46.2 
L 78 114.147368 
Q 78 116.547368 80.4 116.547368 
z
" style="fill: #ffffff; opacity: 0.8; stroke: #cccccc; stroke-linejoin: miter"/>
    </g>
    <g id="line2d_27">
     <path d="M 82.8 52.8 
L 94.8 52.8 
L 106.8 52.8 
" style="fill: none; stroke: #000000; stroke-width: 1.5; stroke-linecap: square"/>
    </g>
    <g id="text_20">
     <!-- Today -->
     <g transform="translate(116.4 57) scale(0.12 -0.12)">
      <defs>
       <path id="CMR17-54" d="M 3981 4326 
L 288 4326 
L 179 2918 
L 294 2918 
C 378 3976 467 4160 1453 4160 
C 1568 4160 1754 4160 1805 4154 
C 1926 4135 1926 4058 1926 3912 
L 1926 459 
C 1926 230 1907 160 1376 160 
L 1197 160 
L 1197 0 
C 1504 0 1824 0 2138 0 
C 2451 0 2771 0 3078 0 
L 3078 160 
L 2899 160 
C 2368 160 2349 230 2349 459 
L 2349 3912 
C 2349 4052 2349 4129 2464 4154 
C 2515 4160 2701 4160 2816 4160 
C 3795 4160 3891 3976 3974 2918 
L 4090 2918 
L 3981 4326 
z
" transform="scale(0.015625)"/>
       <path id="CMR17-6f" d="M 2758 1356 
C 2758 2176 2163 2816 1466 2816 
C 768 2816 173 2176 173 1356 
C 173 551 768 -64 1466 -64 
C 2163 -64 2758 551 2758 1356 
z
M 1466 51 
C 1165 51 909 230 762 480 
C 602 767 582 1126 582 1408 
C 582 1677 595 2010 762 2298 
C 890 2509 1139 2714 1466 2714 
C 1754 2714 1997 2554 2150 2330 
C 2349 2029 2349 1607 2349 1408 
C 2349 1158 2336 775 2163 467 
C 1984 173 1709 51 1466 51 
z
" transform="scale(0.015625)"/>
       <path id="CMR17-64" d="M 1869 4326 
L 1869 4160 
C 2246 4160 2304 4122 2304 3820 
L 2304 2345 
C 2278 2377 2016 2790 1498 2790 
C 845 2790 211 2208 211 1364 
C 211 525 806 -64 1434 -64 
C 1978 -64 2259 337 2291 380 
L 2291 -63 
L 3066 -63 
L 3066 128 
C 2688 128 2630 166 2630 473 
L 2630 4396 
L 1869 4326 
z
M 2291 755 
C 2291 563 2176 390 2029 262 
C 1811 70 1594 38 1472 38 
C 1286 38 621 134 621 1356 
C 621 2612 1363 2688 1530 2688 
C 1824 2688 2061 2522 2208 2291 
C 2291 2157 2291 2138 2291 2023 
L 2291 755 
z
" transform="scale(0.015625)"/>
      </defs>
      <use xlink:href="#CMR17-54" transform="scale(0.996264)"/>
      <use xlink:href="#CMR17-6f" transform="translate(58.702625 0) scale(0.996264)"/>
      <use xlink:href="#CMR17-64" transform="translate(106.995541 0) scale(0.996264)"/>
      <use xlink:href="#CMR17-61" transform="translate(157.890911 0) scale(0.996264)"/>
      <use xlink:href="#CMR17-79" transform="translate(200.978934 0) scale(0.996264)"/>
     </g>
    </g>
    <g id="line2d_28">
     <path d="M 82.8 69.524596 
L 94.8 69.524596 
L 106.8 69.524596 
" style="fill: none; stroke-dasharray: 0.75,1.2375; stroke-dashoffset: 0; stroke: #000000; stroke-width: 0.75"/>
    </g>
    <g id="text_21">
     <!-- $\Omega_m=\Omega_r$ -->
     <g transform="translate(116.4 73.724596) scale(0.12 -0.12)">
      <defs>
       <path id="CMR17-a" d="M 4038 935 
L 3923 935 
C 3866 641 3846 563 3814 461 
C 3782 365 3763 314 3392 314 
L 2874 314 
C 2944 686 3098 961 3366 1391 
C 3699 1935 3974 2377 3974 2910 
C 3974 3775 3155 4480 2138 4480 
C 1094 4480 294 3768 294 2910 
C 294 2377 576 1922 890 1416 
C 1171 961 1325 686 1395 314 
L 877 314 
C 512 314 493 365 461 454 
C 422 557 410 641 346 935 
L 230 935 
L 416 0 
L 1382 0 
C 1517 0 1523 6 1523 102 
C 1523 558 1286 1154 1178 1429 
C 973 1929 781 2416 781 2916 
C 781 3871 1466 4377 2131 4377 
C 2829 4377 3488 3851 3488 2916 
C 3488 2422 3315 1981 3078 1397 
C 2976 1135 2746 551 2746 102 
C 2746 0 2752 0 2886 0 
L 3853 0 
L 4038 935 
z
" transform="scale(0.015625)"/>
       <path id="CMMI12-6d" d="M 1318 1871 
C 1331 1910 1491 2229 1728 2433 
C 1894 2586 2112 2689 2362 2689 
C 2618 2689 2707 2497 2707 2242 
C 2707 2203 2707 2076 2630 1775 
L 2470 1118 
C 2419 926 2298 453 2285 383 
C 2259 287 2221 121 2221 96 
C 2221 6 2291 -64 2387 -64 
C 2579 -64 2611 83 2669 313 
L 3053 1839 
C 3066 1890 3398 2689 4102 2689 
C 4358 2689 4448 2497 4448 2242 
C 4448 1884 4198 1188 4058 805 
C 4000 651 3968 568 3968 453 
C 3968 166 4166 -64 4474 -64 
C 5069 -64 5293 875 5293 913 
C 5293 945 5267 971 5229 971 
C 5171 971 5165 952 5133 843 
C 4986 332 4749 64 4493 64 
C 4429 64 4326 64 4326 269 
C 4326 436 4403 640 4429 710 
C 4544 1018 4832 1773 4832 2145 
C 4832 2528 4608 2816 4122 2816 
C 3693 2816 3347 2574 3091 2197 
C 3072 2542 2861 2816 2381 2816 
C 1811 2816 1510 2415 1395 2255 
C 1376 2618 1114 2816 832 2816 
C 646 2816 499 2727 378 2484 
C 262 2254 173 1865 173 1839 
C 173 1814 198 1782 243 1782 
C 294 1782 301 1788 339 1935 
C 435 2312 557 2689 813 2689 
C 960 2689 1011 2586 1011 2395 
C 1011 2254 947 2005 902 1807 
L 723 1118 
C 698 996 627 709 595 594 
C 550 428 480 128 480 96 
C 480 6 550 -64 646 -64 
C 723 -64 813 -26 864 70 
C 877 102 934 326 966 453 
L 1107 1028 
L 1318 1871 
z
" transform="scale(0.015625)"/>
       <path id="CMMI12-72" d="M 2490 2612 
C 2291 2574 2189 2433 2189 2293 
C 2189 2139 2310 2088 2400 2088 
C 2579 2088 2726 2242 2726 2433 
C 2726 2638 2528 2816 2208 2816 
C 1952 2816 1658 2701 1389 2312 
C 1344 2650 1088 2816 832 2816 
C 582 2816 454 2625 378 2484 
C 269 2254 173 1871 173 1839 
C 173 1814 198 1782 243 1782 
C 294 1782 301 1788 339 1935 
C 435 2318 557 2689 813 2689 
C 966 2689 1011 2580 1011 2395 
C 1011 2254 947 2005 902 1807 
L 723 1118 
C 698 996 627 709 595 594 
C 550 428 480 128 480 96 
C 480 6 550 -64 646 -64 
C 717 -64 838 -19 877 109 
C 896 160 1133 1124 1171 1271 
C 1203 1411 1242 1546 1274 1686 
C 1299 1775 1325 1878 1344 1961 
C 1363 2018 1536 2331 1696 2472 
C 1773 2542 1939 2689 2202 2689 
C 2304 2689 2406 2670 2490 2612 
z
" transform="scale(0.015625)"/>
      </defs>
      <use xlink:href="#CMR17-a" transform="scale(0.996264)"/>
      <use xlink:href="#CMMI12-6d" transform="translate(66.509881 -14.943915) scale(0.697382)"/>
      <use xlink:href="#CMR17-3d" transform="translate(154.410812 0) scale(0.996264)"/>
      <use xlink:href="#CMR17-a" transform="translate(253.799609 0) scale(0.996264)"/>
      <use xlink:href="#CMMI12-72" transform="translate(320.30949 -14.943915) scale(0.697382)"/>
     </g>
    </g>
    <g id="line2d_29">
     <path d="M 82.8 86.815568 
L 94.8 86.815568 
L 106.8 86.815568 
" style="fill: none; stroke-dasharray: 2.775,1.2; stroke-dashoffset: 0; stroke: #000000; stroke-width: 0.75"/>
    </g>
    <g id="text_22">
     <!-- max$(\Omega_m)$ -->
     <g transform="translate(116.4 91.015568) scale(0.12 -0.12)">
      <defs>
       <path id="CMR17-78" d="M 1664 1477 
C 1856 1726 2074 2006 2253 2216 
C 2464 2458 2707 2560 2989 2560 
L 2989 2726 
C 2880 2726 2656 2726 2541 2726 
C 2368 2726 2170 2726 2022 2732 
L 2022 2566 
C 2112 2553 2163 2489 2163 2400 
C 2163 2285 2099 2215 2067 2171 
L 1594 1573 
L 1030 2306 
C 973 2376 973 2388 973 2420 
C 973 2497 1037 2560 1146 2560 
L 1146 2732 
C 992 2726 717 2726 557 2726 
C 384 2726 179 2726 38 2732 
L 38 2560 
C 384 2560 461 2534 614 2343 
L 1350 1395 
C 1363 1382 1395 1344 1395 1325 
C 1395 1299 838 619 768 530 
C 480 185 179 160 6 160 
L 6 0 
C 115 0 339 0 454 0 
C 582 0 864 0 979 -6 
L 979 160 
C 941 166 838 179 838 325 
C 838 440 890 510 947 586 
L 1478 1236 
L 2035 512 
C 2086 442 2163 346 2163 301 
C 2163 211 2086 160 1984 160 
L 1984 -6 
C 2138 0 2413 0 2573 0 
C 2746 0 2950 0 3091 -6 
L 3091 160 
C 2771 160 2675 172 2522 370 
L 1664 1477 
z
" transform="scale(0.015625)"/>
       <path id="CMR17-28" d="M 1958 -1561 
C 1958 -1555 1958 -1542 1939 -1523 
C 1645 -1224 858 -407 858 1581 
C 858 3569 1632 4379 1946 4697 
C 1946 4704 1958 4717 1958 4736 
C 1958 4755 1939 4768 1914 4768 
C 1843 4768 1299 4296 986 3594 
C 666 2887 576 2199 576 1588 
C 576 1128 621 351 1005 -471 
C 1312 -1135 1837 -1600 1914 -1600 
C 1946 -1600 1958 -1587 1958 -1561 
z
" transform="scale(0.015625)"/>
       <path id="CMR17-29" d="M 1683 1581 
C 1683 2040 1638 2817 1254 3639 
C 947 4303 422 4768 346 4768 
C 326 4768 301 4761 301 4729 
C 301 4717 307 4710 314 4697 
C 621 4378 1402 3568 1402 1584 
C 1402 -407 627 -1217 314 -1537 
C 307 -1549 301 -1556 301 -1568 
C 301 -1600 326 -1600 346 -1600 
C 416 -1600 960 -1128 1274 -426 
C 1594 281 1683 969 1683 1581 
z
" transform="scale(0.015625)"/>
      </defs>
      <use xlink:href="#CMR17-6d" transform="scale(0.996264)"/>
      <use xlink:href="#CMR17-61" transform="translate(76.91959 0) scale(0.996264)"/>
      <use xlink:href="#CMR17-78" transform="translate(122.610067 0) scale(0.996264)"/>
      <use xlink:href="#CMR17-28" transform="translate(170.902983 0) scale(0.996264)"/>
      <use xlink:href="#CMR17-a" transform="translate(206.183751 0) scale(0.996264)"/>
      <use xlink:href="#CMMI12-6d" transform="translate(272.693631 -14.943915) scale(0.697382)"/>
      <use xlink:href="#CMR17-29" transform="translate(332.920554 0) scale(0.996264)"/>
     </g>
    </g>
    <g id="line2d_30">
     <path d="M 82.8 104.20436 
L 94.8 104.20436 
L 106.8 104.20436 
" style="fill: none; stroke-dasharray: 4.8,1.2,0.75,1.2; stroke-dashoffset: 0; stroke: #000000; stroke-width: 0.75"/>
    </g>
    <g id="text_23">
     <!-- $\Omega_m=\Omega_\phi$ -->
     <g transform="translate(116.4 108.40436) scale(0.12 -0.12)">
      <defs>
       <path id="CMMI12-1e" d="M 2752 4390 
C 2752 4448 2707 4448 2688 4448 
C 2630 4448 2624 4435 2598 4326 
L 2253 2939 
C 2234 2856 2227 2849 2221 2843 
C 2214 2830 2170 2824 2157 2824 
C 1107 2734 301 1864 301 1057 
C 301 361 832 -64 1498 -64 
C 1446 -261 1402 -463 1350 -659 
C 1261 -995 1210 -1204 1210 -1229 
C 1210 -1241 1210 -1280 1274 -1280 
C 1293 -1280 1318 -1280 1331 -1254 
C 1344 -1241 1382 -1089 1408 -1008 
L 1645 -64 
C 2739 -64 3571 854 3571 1680 
C 3571 2343 3085 2816 2374 2816 
L 2752 4390 
z
M 2336 2701 
C 2758 2701 3181 2463 3181 1828 
C 3181 1097 2675 128 1677 50 
L 2336 2701 
z
M 1530 50 
C 1216 50 691 220 691 938 
C 691 1761 1274 2676 2195 2676 
L 1530 50 
z
" transform="scale(0.015625)"/>
      </defs>
      <use xlink:href="#CMR17-a" transform="scale(0.996264)"/>
      <use xlink:href="#CMMI12-6d" transform="translate(66.509881 -14.943915) scale(0.697382)"/>
      <use xlink:href="#CMR17-3d" transform="translate(154.410812 0) scale(0.996264)"/>
      <use xlink:href="#CMR17-a" transform="translate(253.799609 0) scale(0.996264)"/>
      <use xlink:href="#CMMI12-1e" transform="translate(320.30949 -14.943915) scale(0.697382)"/>
     </g>
    </g>
   </g>
   <g id="legend_2">
    <g id="patch_11">
     <path d="M 80.4 273.0961 
L 134.744846 273.0961 
Q 137.144846 273.0961 137.144846 270.6961 
L 137.144846 220.7039 
Q 137.144846 218.3039 134.744846 218.3039 
L 80.4 218.3039 
Q 78 218.3039 78 220.7039 
L 78 270.6961 
Q 78 273.0961 80.4 273.0961 
z
" style="fill: #ffffff; opacity: 0.8; stroke: #cccccc; stroke-linejoin: miter"/>
    </g>
    <g id="line2d_31">
     <path d="M 82.8 227.3039 
L 94.8 227.3039 
L 106.8 227.3039 
" style="fill: none; stroke: #ff0000; stroke-width: 1.5; stroke-linecap: square"/>
    </g>
    <g id="text_24">
     <!-- $\Omega_r$ -->
     <g transform="translate(116.4 231.5039) scale(0.12 -0.12)">
      <use xlink:href="#CMR17-a" transform="scale(0.996264)"/>
      <use xlink:href="#CMMI12-72" transform="translate(66.509881 -14.943915) scale(0.697382)"/>
     </g>
    </g>
    <g id="line2d_32">
     <path d="M 82.8 244.028496 
L 94.8 244.028496 
L 106.8 244.028496 
" style="fill: none; stroke: #008000; stroke-width: 1.5; stroke-linecap: square"/>
    </g>
    <g id="text_25">
     <!-- $\Omega_m$ -->
     <g transform="translate(116.4 248.228496) scale(0.12 -0.12)">
      <use xlink:href="#CMR17-a" transform="scale(0.996264)"/>
      <use xlink:href="#CMMI12-6d" transform="translate(66.509881 -14.943915) scale(0.697382)"/>
     </g>
    </g>
    <g id="line2d_33">
     <path d="M 82.8 260.753091 
L 94.8 260.753091 
L 106.8 260.753091 
" style="fill: none; stroke: #0000ff; stroke-width: 1.5; stroke-linecap: square"/>
    </g>
    <g id="text_26">
     <!-- $\Omega_\phi$ -->
     <g transform="translate(116.4 264.953091) scale(0.12 -0.12)">
      <use xlink:href="#CMR17-a" transform="scale(0.996264)"/>
      <use xlink:href="#CMMI12-1e" transform="translate(66.509881 -14.943915) scale(0.697382)"/>
     </g>
    </g>
   </g>
  </g>
 </g>
 <defs>
  <clipPath id="p9ffbea232a">
   <rect x="72" y="37.8" width="594" height="378"/>
  </clipPath>
 </defs>
</svg>
