<?xml version="1.0" encoding="utf-8" standalone="no"?>
<!DOCTYPE svg PUBLIC "-//W3C//DTD SVG 1.1//EN"
  "http://www.w3.org/Graphics/SVG/1.1/DTD/svg11.dtd">
<svg xmlns:xlink="http://www.w3.org/1999/xlink" width="720pt" height="504pt" viewBox="0 0 720 504" xmlns="http://www.w3.org/2000/svg" version="1.1">
 <metadata>
  <rdf:RDF xmlns:dc="http://purl.org/dc/elements/1.1/" xmlns:cc="http://creativecommons.org/ns#" xmlns:rdf="http://www.w3.org/1999/02/22-rdf-syntax-ns#">
   <cc:Work>
    <dc:type rdf:resource="http://purl.org/dc/dcmitype/StillImage"/>
    <dc:date>2024-05-23T17:41:23.093657</dc:date>
    <dc:format>image/svg+xml</dc:format>
    <dc:creator>
     <cc:Agent>
      <dc:title>Matplotlib v3.8.3, https://matplotlib.org/</dc:title>
     </cc:Agent>
    </dc:creator>
   </cc:Work>
  </rdf:RDF>
 </metadata>
 <defs>
  <style type="text/css">*{stroke-linejoin: round; stroke-linecap: butt}</style>
 </defs>
 <g id="figure_1">
  <g id="patch_1">
   <path d="M 0 504 
L 720 504 
L 720 0 
L 0 0 
z
" style="fill: #ffffff"/>
  </g>
  <g id="axes_1">
   <g id="patch_2">
    <path d="M 72 415.8 
L 666 415.8 
L 666 37.8 
L 72 37.8 
z
" style="fill: #ffffff"/>
   </g>
   <g id="matplotlib.axis_1">
    <g id="xtick_1">
     <g id="line2d_1">
      <defs>
       <path id="m6db17e983d" d="M 0 0 
L 0 3.5 
" style="stroke: #000000; stroke-width: 0.8"/>
      </defs>
      <g>
       <use xlink:href="#m6db17e983d" x="135.558409" y="415.8" style="stroke: #000000; stroke-width: 0.8"/>
      </g>
     </g>
     <g id="text_1">
      <!-- $\mathdefault{−12.5}$ -->
      <g transform="translate(120.503848 431.10218) scale(0.12 -0.12)">
       <defs>
        <path id="CMSY10-0" d="M 4218 1472 
C 4326 1472 4442 1472 4442 1600 
C 4442 1728 4326 1728 4218 1728 
L 755 1728 
C 646 1728 531 1728 531 1600 
C 531 1472 646 1472 755 1472 
L 4218 1472 
z
" transform="scale(0.015625)"/>
        <path id="CMR17-31" d="M 1702 4058 
C 1702 4192 1696 4192 1606 4192 
C 1357 3916 979 3827 621 3827 
C 602 3827 570 3827 563 3808 
C 557 3795 557 3782 557 3648 
C 755 3648 1088 3686 1344 3839 
L 1344 461 
C 1344 236 1331 160 781 160 
L 589 160 
L 589 0 
C 896 0 1216 0 1523 0 
C 1830 0 2150 0 2458 0 
L 2458 160 
L 2266 160 
C 1715 160 1702 230 1702 458 
L 1702 4058 
z
" transform="scale(0.015625)"/>
        <path id="CMR17-32" d="M 2669 989 
L 2554 989 
C 2490 536 2438 459 2413 420 
C 2381 369 1920 369 1830 369 
L 602 369 
C 832 619 1280 1072 1824 1597 
C 2214 1967 2669 2402 2669 3035 
C 2669 3790 2067 4224 1395 4224 
C 691 4224 262 3604 262 3030 
C 262 2780 448 2748 525 2748 
C 589 2748 781 2787 781 3010 
C 781 3207 614 3264 525 3264 
C 486 3264 448 3258 422 3245 
C 544 3790 915 4058 1306 4058 
C 1862 4058 2227 3617 2227 3035 
C 2227 2479 1901 2000 1536 1584 
L 262 146 
L 262 0 
L 2515 0 
L 2669 989 
z
" transform="scale(0.015625)"/>
        <path id="CMMI12-3a" d="M 1178 307 
C 1178 492 1024 619 870 619 
C 685 619 557 466 557 313 
C 557 128 710 0 864 0 
C 1050 0 1178 153 1178 307 
z
" transform="scale(0.015625)"/>
        <path id="CMR17-35" d="M 730 3692 
C 794 3666 1056 3584 1325 3584 
C 1920 3584 2246 3911 2432 4100 
C 2432 4157 2432 4192 2394 4192 
C 2387 4192 2374 4192 2323 4163 
C 2099 4058 1837 3973 1517 3973 
C 1325 3973 1037 3999 723 4139 
C 653 4171 640 4171 634 4171 
C 602 4171 595 4164 595 4037 
L 595 2203 
C 595 2089 595 2057 659 2057 
C 691 2057 704 2070 736 2114 
C 941 2401 1222 2522 1542 2522 
C 1766 2522 2246 2382 2246 1289 
C 2246 1085 2246 715 2054 421 
C 1894 159 1645 25 1370 25 
C 947 25 518 320 403 814 
C 429 807 480 795 506 795 
C 589 795 749 840 749 1038 
C 749 1210 627 1280 506 1280 
C 358 1280 262 1190 262 1011 
C 262 454 704 -128 1382 -128 
C 2042 -128 2669 440 2669 1264 
C 2669 2030 2170 2624 1549 2624 
C 1222 2624 947 2503 730 2274 
L 730 3692 
z
" transform="scale(0.015625)"/>
       </defs>
       <use xlink:href="#CMSY10-0" transform="scale(0.996264)"/>
       <use xlink:href="#CMR17-31" transform="translate(77.487468 0) scale(0.996264)"/>
       <use xlink:href="#CMR17-32" transform="translate(123.177945 0) scale(0.996264)"/>
       <use xlink:href="#CMMI12-3a" transform="translate(168.868422 0) scale(0.996264)"/>
       <use xlink:href="#CMR17-35" transform="translate(195.965599 0) scale(0.996264)"/>
      </g>
     </g>
    </g>
    <g id="xtick_2">
     <g id="line2d_2">
      <g>
       <use xlink:href="#m6db17e983d" x="215.928347" y="415.8" style="stroke: #000000; stroke-width: 0.8"/>
      </g>
     </g>
     <g id="text_2">
      <!-- $\mathdefault{−10.0}$ -->
      <g transform="translate(200.873786 431.10218) scale(0.12 -0.12)">
       <defs>
        <path id="CMR17-30" d="M 2688 2025 
C 2688 2416 2682 3080 2413 3591 
C 2176 4039 1798 4198 1466 4198 
C 1158 4198 768 4058 525 3597 
C 269 3118 243 2524 243 2025 
C 243 1661 250 1106 448 619 
C 723 -39 1216 -128 1466 -128 
C 1760 -128 2208 -7 2470 600 
C 2662 1042 2688 1559 2688 2025 
z
M 1466 -26 
C 1056 -26 813 325 723 812 
C 653 1188 653 1738 653 2096 
C 653 2588 653 2997 736 3387 
C 858 3929 1216 4096 1466 4096 
C 1728 4096 2067 3923 2189 3400 
C 2272 3036 2278 2607 2278 2096 
C 2278 1680 2278 1169 2202 792 
C 2067 95 1690 -26 1466 -26 
z
" transform="scale(0.015625)"/>
       </defs>
       <use xlink:href="#CMSY10-0" transform="scale(0.996264)"/>
       <use xlink:href="#CMR17-31" transform="translate(77.487468 0) scale(0.996264)"/>
       <use xlink:href="#CMR17-30" transform="translate(123.177945 0) scale(0.996264)"/>
       <use xlink:href="#CMMI12-3a" transform="translate(168.868422 0) scale(0.996264)"/>
       <use xlink:href="#CMR17-30" transform="translate(195.965599 0) scale(0.996264)"/>
      </g>
     </g>
    </g>
    <g id="xtick_3">
     <g id="line2d_3">
      <g>
       <use xlink:href="#m6db17e983d" x="296.298285" y="415.8" style="stroke: #000000; stroke-width: 0.8"/>
      </g>
     </g>
     <g id="text_3">
      <!-- $\mathdefault{−7.5}$ -->
      <g transform="translate(284.170219 431.10218) scale(0.12 -0.12)">
       <defs>
        <path id="CMR17-37" d="M 2886 3941 
L 2886 4081 
L 1382 4081 
C 634 4081 621 4165 595 4288 
L 480 4288 
L 294 3094 
L 410 3094 
C 429 3215 474 3540 550 3661 
C 589 3712 1062 3712 1171 3712 
L 2579 3712 
L 1869 2661 
C 1395 1954 1069 999 1069 165 
C 1069 89 1069 -128 1299 -128 
C 1530 -128 1530 89 1530 171 
L 1530 465 
C 1530 1508 1709 2196 2003 2636 
L 2886 3941 
z
" transform="scale(0.015625)"/>
       </defs>
       <use xlink:href="#CMSY10-0" transform="scale(0.996264)"/>
       <use xlink:href="#CMR17-37" transform="translate(77.487468 0) scale(0.996264)"/>
       <use xlink:href="#CMMI12-3a" transform="translate(123.177945 0) scale(0.996264)"/>
       <use xlink:href="#CMR17-35" transform="translate(150.275122 0) scale(0.996264)"/>
      </g>
     </g>
    </g>
    <g id="xtick_4">
     <g id="line2d_4">
      <g>
       <use xlink:href="#m6db17e983d" x="376.668223" y="415.8" style="stroke: #000000; stroke-width: 0.8"/>
      </g>
     </g>
     <g id="text_4">
      <!-- $\mathdefault{−5.0}$ -->
      <g transform="translate(364.540157 431.10218) scale(0.12 -0.12)">
       <use xlink:href="#CMSY10-0" transform="scale(0.996264)"/>
       <use xlink:href="#CMR17-35" transform="translate(77.487468 0) scale(0.996264)"/>
       <use xlink:href="#CMMI12-3a" transform="translate(123.177945 0) scale(0.996264)"/>
       <use xlink:href="#CMR17-30" transform="translate(150.275122 0) scale(0.996264)"/>
      </g>
     </g>
    </g>
    <g id="xtick_5">
     <g id="line2d_5">
      <g>
       <use xlink:href="#m6db17e983d" x="457.038161" y="415.8" style="stroke: #000000; stroke-width: 0.8"/>
      </g>
     </g>
     <g id="text_5">
      <!-- $\mathdefault{−2.5}$ -->
      <g transform="translate(444.910095 431.10218) scale(0.12 -0.12)">
       <use xlink:href="#CMSY10-0" transform="scale(0.996264)"/>
       <use xlink:href="#CMR17-32" transform="translate(77.487468 0) scale(0.996264)"/>
       <use xlink:href="#CMMI12-3a" transform="translate(123.177945 0) scale(0.996264)"/>
       <use xlink:href="#CMR17-35" transform="translate(150.275122 0) scale(0.996264)"/>
      </g>
     </g>
    </g>
    <g id="xtick_6">
     <g id="line2d_6">
      <g>
       <use xlink:href="#m6db17e983d" x="537.408099" y="415.8" style="stroke: #000000; stroke-width: 0.8"/>
      </g>
     </g>
     <g id="text_6">
      <!-- $\mathdefault{0.0}$ -->
      <g transform="translate(529.929278 431.10218) scale(0.12 -0.12)">
       <use xlink:href="#CMR17-30" transform="scale(0.996264)"/>
       <use xlink:href="#CMMI12-3a" transform="translate(45.690477 0) scale(0.996264)"/>
       <use xlink:href="#CMR17-30" transform="translate(72.787654 0) scale(0.996264)"/>
      </g>
     </g>
    </g>
    <g id="xtick_7">
     <g id="line2d_7">
      <g>
       <use xlink:href="#m6db17e983d" x="617.778037" y="415.8" style="stroke: #000000; stroke-width: 0.8"/>
      </g>
     </g>
     <g id="text_7">
      <!-- $\mathdefault{2.5}$ -->
      <g transform="translate(610.299216 431.10218) scale(0.12 -0.12)">
       <use xlink:href="#CMR17-32" transform="scale(0.996264)"/>
       <use xlink:href="#CMMI12-3a" transform="translate(45.690477 0) scale(0.996264)"/>
       <use xlink:href="#CMR17-35" transform="translate(72.787654 0) scale(0.996264)"/>
      </g>
     </g>
    </g>
    <g id="text_8">
     <!-- $N$ -->
     <g transform="translate(363.531942 447.112652) scale(0.14 -0.14)">
      <defs>
       <path id="CMMI12-4e" d="M 4736 3698 
C 4806 3974 4909 4166 5395 4166 
C 5414 4166 5491 4166 5491 4279 
C 5491 4352 5434 4352 5408 4352 
C 5280 4352 4954 4352 4826 4352 
L 4518 4352 
C 4429 4352 4314 4352 4224 4352 
C 4186 4352 4109 4352 4109 4230 
C 4109 4166 4160 4166 4205 4166 
C 4589 4166 4614 4019 4614 3903 
C 4614 3846 4608 3826 4589 3737 
L 3866 850 
L 2496 4249 
C 2451 4352 2445 4352 2304 4352 
L 1523 4352 
C 1395 4352 1338 4352 1338 4230 
C 1338 4166 1382 4166 1504 4166 
C 1536 4166 1914 4166 1914 4115 
C 1914 4102 1901 4051 1894 4032 
L 1043 635 
C 966 320 813 186 390 186 
C 358 186 294 186 294 67 
C 294 0 358 0 378 0 
C 506 0 832 0 960 0 
L 1267 0 
C 1357 0 1466 0 1555 0 
C 1600 0 1670 0 1670 122 
C 1670 180 1606 186 1581 186 
C 1370 186 1165 224 1165 454 
C 1165 505 1178 562 1190 613 
L 2054 4032 
C 2093 3968 2093 3956 2118 3898 
L 3642 115 
C 3674 38 3686 0 3744 0 
C 3808 0 3814 19 3840 128 
L 4736 3698 
z
" transform="scale(0.015625)"/>
      </defs>
      <use xlink:href="#CMMI12-4e" transform="scale(0.996264)"/>
     </g>
    </g>
   </g>
   <g id="matplotlib.axis_2">
    <g id="ytick_1">
     <g id="line2d_8">
      <defs>
       <path id="ma736488ca3" d="M 0 0 
L -3.5 0 
" style="stroke: #000000; stroke-width: 0.8"/>
      </defs>
      <g>
       <use xlink:href="#ma736488ca3" x="72" y="386.723077" style="stroke: #000000; stroke-width: 0.8"/>
      </g>
     </g>
     <g id="line2d_9">
      <defs>
       <path id="m5a0076bd7e" d="M 0 0 
L 3.5 0 
" style="stroke: #000000; stroke-width: 0.8"/>
      </defs>
      <g>
       <use xlink:href="#m5a0076bd7e" x="666" y="386.723077" style="stroke: #000000; stroke-width: 0.8"/>
      </g>
     </g>
     <g id="text_9">
      <!-- $0$ -->
      <g transform="translate(59.14701 390.874167) scale(0.12 -0.12)">
       <use xlink:href="#CMR17-30" transform="scale(0.996264)"/>
      </g>
     </g>
    </g>
    <g id="ytick_2">
     <g id="line2d_10">
      <g>
       <use xlink:href="#ma736488ca3" x="72" y="314.030769" style="stroke: #000000; stroke-width: 0.8"/>
      </g>
     </g>
     <g id="line2d_11">
      <g>
       <use xlink:href="#m5a0076bd7e" x="666" y="314.030769" style="stroke: #000000; stroke-width: 0.8"/>
      </g>
     </g>
     <g id="text_10">
      <!-- $1/4$ -->
      <g transform="translate(47.441029 318.513957) scale(0.12 -0.12)">
       <defs>
        <path id="CMMI12-3d" d="M 2746 4562 
C 2746 4569 2784 4666 2784 4678 
C 2784 4755 2720 4800 2669 4800 
C 2637 4800 2579 4800 2528 4659 
L 384 -1363 
C 384 -1370 346 -1465 346 -1478 
C 346 -1555 410 -1600 461 -1600 
C 499 -1600 557 -1593 602 -1459 
L 2746 4562 
z
" transform="scale(0.015625)"/>
        <path id="CMR17-34" d="M 2150 4122 
C 2150 4256 2144 4256 2029 4256 
L 128 1254 
L 128 1088 
L 1779 1088 
L 1779 457 
C 1779 224 1766 160 1318 160 
L 1197 160 
L 1197 0 
C 1402 0 1747 0 1965 0 
C 2182 0 2528 0 2733 0 
L 2733 160 
L 2611 160 
C 2163 160 2150 224 2150 457 
L 2150 1088 
L 2803 1088 
L 2803 1254 
L 2150 1254 
L 2150 4122 
z
M 1798 3703 
L 1798 1254 
L 256 1254 
L 1798 3703 
z
" transform="scale(0.015625)"/>
       </defs>
       <use xlink:href="#CMR17-31" transform="scale(0.996264)"/>
       <use xlink:href="#CMMI12-3d" transform="translate(45.690477 0) scale(0.996264)"/>
       <use xlink:href="#CMR17-34" transform="translate(94.465396 0) scale(0.996264)"/>
      </g>
     </g>
    </g>
    <g id="ytick_3">
     <g id="line2d_12">
      <g>
       <use xlink:href="#ma736488ca3" x="72" y="241.338462" style="stroke: #000000; stroke-width: 0.8"/>
      </g>
     </g>
     <g id="line2d_13">
      <g>
       <use xlink:href="#m5a0076bd7e" x="666" y="241.338462" style="stroke: #000000; stroke-width: 0.8"/>
      </g>
     </g>
     <g id="text_11">
      <!-- $1/2$ -->
      <g transform="translate(47.441029 245.82165) scale(0.12 -0.12)">
       <use xlink:href="#CMR17-31" transform="scale(0.996264)"/>
       <use xlink:href="#CMMI12-3d" transform="translate(45.690477 0) scale(0.996264)"/>
       <use xlink:href="#CMR17-32" transform="translate(94.465396 0) scale(0.996264)"/>
      </g>
     </g>
    </g>
    <g id="ytick_4">
     <g id="line2d_14">
      <g>
       <use xlink:href="#ma736488ca3" x="72" y="168.646154" style="stroke: #000000; stroke-width: 0.8"/>
      </g>
     </g>
     <g id="line2d_15">
      <g>
       <use xlink:href="#m5a0076bd7e" x="666" y="168.646154" style="stroke: #000000; stroke-width: 0.8"/>
      </g>
     </g>
     <g id="text_12">
      <!-- $3/4$ -->
      <g transform="translate(47.441029 173.129342) scale(0.12 -0.12)">
       <defs>
        <path id="CMR17-33" d="M 1414 2157 
C 1984 2157 2234 1662 2234 1090 
C 2234 320 1824 25 1453 25 
C 1114 25 563 194 390 693 
C 422 680 454 680 486 680 
C 640 680 755 782 755 948 
C 755 1133 614 1216 486 1216 
C 378 1216 211 1165 211 926 
C 211 335 787 -128 1466 -128 
C 2176 -128 2720 430 2720 1085 
C 2720 1707 2208 2157 1600 2227 
C 2086 2328 2554 2756 2554 3329 
C 2554 3820 2048 4179 1472 4179 
C 890 4179 378 3829 378 3329 
C 378 3110 544 3072 627 3072 
C 762 3072 877 3155 877 3321 
C 877 3486 762 3569 627 3569 
C 602 3569 570 3569 544 3557 
C 730 3959 1235 4032 1459 4032 
C 1683 4032 2106 3925 2106 3320 
C 2106 3143 2080 2828 1862 2550 
C 1670 2304 1453 2304 1242 2284 
C 1210 2284 1062 2269 1037 2269 
C 992 2263 966 2257 966 2208 
C 966 2163 973 2157 1101 2157 
L 1414 2157 
z
" transform="scale(0.015625)"/>
       </defs>
       <use xlink:href="#CMR17-33" transform="scale(0.996264)"/>
       <use xlink:href="#CMMI12-3d" transform="translate(45.690477 0) scale(0.996264)"/>
       <use xlink:href="#CMR17-34" transform="translate(94.465396 0) scale(0.996264)"/>
      </g>
     </g>
    </g>
    <g id="ytick_5">
     <g id="line2d_16">
      <g>
       <use xlink:href="#ma736488ca3" x="72" y="95.953846" style="stroke: #000000; stroke-width: 0.8"/>
      </g>
     </g>
     <g id="line2d_17">
      <g>
       <use xlink:href="#m5a0076bd7e" x="666" y="95.953846" style="stroke: #000000; stroke-width: 0.8"/>
      </g>
     </g>
     <g id="text_13">
      <!-- $1$ -->
      <g transform="translate(59.14701 100.104936) scale(0.12 -0.12)">
       <use xlink:href="#CMR17-31" transform="scale(0.996264)"/>
      </g>
     </g>
    </g>
    <g id="text_14">
     <!-- Density Parameters -->
     <g transform="translate(40.729001 285.484657) rotate(-90) scale(0.14 -0.14)">
      <defs>
       <path id="CMR17-44" d="M 333 4352 
L 333 4186 
C 774 4186 845 4186 845 3900 
L 845 452 
C 845 166 774 166 333 166 
L 333 0 
L 2368 0 
C 3398 0 4224 943 4224 2141 
C 4224 3346 3411 4352 2368 4352 
L 333 4352 
z
M 1523 166 
C 1267 166 1254 197 1254 414 
L 1254 3938 
C 1254 4155 1267 4186 1523 4186 
L 2240 4186 
C 2771 4186 3750 3874 3750 2141 
C 3750 1242 3488 879 3366 707 
C 3213 510 2848 166 2240 166 
L 1523 166 
z
" transform="scale(0.015625)"/>
       <path id="CMR17-65" d="M 2438 1472 
C 2464 1498 2464 1511 2464 1576 
C 2464 2238 2118 2816 1389 2816 
C 710 2816 173 2169 173 1383 
C 173 551 781 -64 1459 -64 
C 2176 -64 2458 607 2458 740 
C 2458 784 2419 784 2406 784 
C 2362 784 2355 771 2330 696 
C 2189 265 1837 51 1504 51 
C 1229 51 954 203 781 480 
C 582 803 582 1176 582 1472 
L 2438 1472 
z
M 589 1568 
C 634 2505 1126 2714 1382 2714 
C 1818 2714 2112 2297 2118 1568 
L 589 1568 
z
" transform="scale(0.015625)"/>
       <path id="CMR17-6e" d="M 2656 1933 
C 2656 2259 2592 2790 1837 2790 
C 1331 2790 1069 2400 973 2144 
L 966 2144 
L 966 2790 
L 211 2720 
L 211 2554 
C 589 2554 646 2515 646 2208 
L 646 428 
C 646 184 621 153 211 153 
L 211 -13 
C 365 0 646 0 813 0 
C 979 0 1267 0 1421 -13 
L 1421 153 
C 1011 153 986 178 986 428 
L 986 1658 
C 986 2247 1344 2688 1792 2688 
C 2266 2688 2317 2266 2317 1958 
L 2317 428 
C 2317 184 2291 153 1882 153 
L 1882 -13 
C 2035 0 2317 0 2483 0 
C 2650 0 2938 0 3091 -13 
L 3091 153 
C 2682 153 2656 178 2656 428 
L 2656 1933 
z
" transform="scale(0.015625)"/>
       <path id="CMR17-73" d="M 1978 2697 
C 1978 2813 1971 2819 1933 2819 
C 1907 2819 1901 2813 1824 2717 
C 1805 2691 1747 2626 1728 2601 
C 1523 2819 1235 2819 1126 2819 
C 416 2819 160 2447 160 2076 
C 160 1498 813 1365 998 1325 
C 1402 1243 1542 1217 1677 1101 
C 1760 1025 1901 884 1901 654 
C 1901 384 1747 38 1158 38 
C 602 38 403 460 288 1021 
C 269 1110 269 1117 218 1117 
C 166 1117 160 1110 160 983 
L 160 63 
C 160 -51 166 -58 205 -58 
C 237 -58 243 -51 275 0 
C 314 57 410 211 448 276 
C 576 103 800 -64 1158 -64 
C 1792 -64 2131 283 2131 784 
C 2131 1112 1958 1285 1875 1362 
C 1683 1561 1459 1606 1190 1657 
C 838 1735 390 1825 390 2217 
C 390 2383 480 2737 1126 2737 
C 1811 2737 1850 2094 1862 1888 
C 1869 1856 1901 1849 1920 1849 
C 1978 1849 1978 1869 1978 1978 
L 1978 2697 
z
" transform="scale(0.015625)"/>
       <path id="CMR17-69" d="M 992 3909 
C 992 4049 877 4170 730 4170 
C 589 4170 467 4056 467 3909 
C 467 3769 582 3648 730 3648 
C 870 3648 992 3763 992 3909 
z
M 243 2706 
L 243 2541 
C 602 2541 653 2502 653 2197 
L 653 427 
C 653 184 627 153 218 153 
L 218 -13 
C 371 0 646 0 806 0 
C 960 0 1222 0 1370 -13 
L 1370 153 
C 992 153 979 191 979 420 
L 979 2776 
L 243 2706 
z
" transform="scale(0.015625)"/>
       <path id="CMR17-74" d="M 966 2560 
L 1862 2560 
L 1862 2725 
L 966 2725 
L 966 3904 
L 851 3904 
C 838 3245 614 2668 70 2668 
L 70 2560 
L 627 2560 
L 627 771 
C 627 650 627 -64 1370 -64 
C 1747 -64 1965 306 1965 777 
L 1965 1140 
L 1850 1140 
L 1850 783 
C 1850 344 1677 51 1408 51 
C 1222 51 966 178 966 758 
L 966 2560 
z
" transform="scale(0.015625)"/>
       <path id="CMR17-79" d="M 2496 2197 
C 2656 2586 2944 2586 3034 2586 
L 3034 2752 
C 2912 2752 2752 2752 2630 2752 
C 2496 2752 2285 2752 2157 2758 
L 2157 2592 
C 2400 2573 2406 2394 2406 2343 
C 2406 2280 2394 2248 2362 2171 
L 1664 449 
L 902 2306 
C 870 2382 870 2426 870 2433 
C 870 2573 1018 2586 1171 2586 
L 1171 2758 
C 1018 2752 742 2752 582 2752 
C 410 2752 205 2752 64 2758 
L 64 2586 
C 410 2586 448 2554 531 2350 
L 1485 15 
C 1197 -738 1030 -1178 627 -1178 
C 557 -1178 397 -1159 282 -1044 
C 429 -1031 493 -942 493 -833 
C 493 -725 416 -629 288 -629 
C 147 -629 77 -725 77 -840 
C 77 -1095 339 -1280 627 -1280 
C 998 -1280 1229 -922 1357 -604 
L 2496 2197 
z
" transform="scale(0.015625)"/>
       <path id="CMR17-50" d="M 1267 2042 
L 2291 2042 
C 3117 2042 3718 2578 3718 3184 
C 3718 3791 3130 4352 2291 4352 
L 333 4352 
L 333 4186 
C 774 4186 845 4186 845 3899 
L 845 446 
C 845 160 774 160 333 160 
L 333 0 
C 518 0 858 0 1056 0 
C 1254 0 1594 0 1779 0 
L 1779 160 
C 1338 160 1267 160 1267 446 
L 1267 2042 
z
M 1254 2176 
L 1254 3938 
C 1254 4155 1267 4186 1523 4186 
L 2170 4186 
C 2995 4186 3232 3714 3232 3184 
C 3232 2604 2950 2176 2170 2176 
L 1254 2176 
z
" transform="scale(0.015625)"/>
       <path id="CMR17-61" d="M 2304 1653 
C 2304 2072 2304 2294 2035 2543 
C 1798 2752 1523 2816 1306 2816 
C 800 2816 435 2407 435 1971 
C 435 1728 627 1728 666 1728 
C 749 1728 896 1778 896 1954 
C 896 2112 774 2181 666 2181 
C 640 2181 608 2174 589 2168 
C 723 2592 1069 2714 1293 2714 
C 1613 2714 1965 2429 1965 1885 
L 1965 1600 
C 1587 1600 1133 1549 774 1357 
C 371 1133 256 813 256 570 
C 256 77 832 -64 1171 -64 
C 1523 -64 1850 139 1990 511 
C 2003 233 2182 -18 2464 -18 
C 2598 -18 2938 70 2938 567 
L 2938 920 
L 2822 920 
L 2822 562 
C 2822 178 2650 128 2566 128 
C 2304 128 2304 458 2304 738 
L 2304 1653 
z
M 1965 870 
C 1965 317 1568 38 1216 38 
C 896 38 646 275 646 570 
C 646 761 730 1100 1101 1305 
C 1408 1478 1760 1504 1965 1504 
L 1965 870 
z
" transform="scale(0.015625)"/>
       <path id="CMR17-72" d="M 960 1497 
C 960 2112 1222 2688 1702 2688 
C 1747 2688 1792 2682 1837 2662 
C 1837 2662 1696 2617 1696 2452 
C 1696 2298 1818 2234 1914 2234 
C 1990 2234 2131 2279 2131 2458 
C 2131 2663 1926 2790 1709 2790 
C 1222 2790 1011 2317 947 2093 
L 941 2093 
L 941 2790 
L 198 2720 
L 198 2554 
C 576 2554 634 2515 634 2208 
L 634 428 
C 634 184 608 153 198 153 
L 198 -13 
C 352 0 646 0 813 0 
C 998 0 1325 0 1498 -13 
L 1498 153 
C 1037 153 960 153 960 440 
L 960 1497 
z
" transform="scale(0.015625)"/>
       <path id="CMR17-6d" d="M 4326 1933 
C 4326 2252 4269 2790 3507 2790 
C 3072 2790 2771 2496 2656 2151 
L 2650 2151 
C 2573 2676 2195 2790 1837 2790 
C 1331 2790 1069 2400 973 2144 
L 966 2144 
L 966 2790 
L 211 2720 
L 211 2554 
C 589 2554 646 2515 646 2208 
L 646 428 
C 646 184 621 153 211 153 
L 211 -13 
C 365 0 646 0 813 0 
C 979 0 1267 0 1421 -13 
L 1421 153 
C 1011 153 986 178 986 428 
L 986 1658 
C 986 2247 1344 2688 1792 2688 
C 2266 2688 2317 2266 2317 1958 
L 2317 428 
C 2317 184 2291 153 1882 153 
L 1882 -13 
C 2035 0 2317 0 2483 0 
C 2650 0 2938 0 3091 -13 
L 3091 153 
C 2682 153 2656 178 2656 428 
L 2656 1658 
C 2656 2247 3014 2688 3462 2688 
C 3936 2688 3987 2266 3987 1958 
L 3987 428 
C 3987 184 3962 153 3552 153 
L 3552 -13 
C 3706 0 3987 0 4154 0 
C 4320 0 4608 0 4762 -13 
L 4762 153 
C 4352 153 4326 178 4326 428 
L 4326 1933 
z
" transform="scale(0.015625)"/>
      </defs>
      <use xlink:href="#CMR17-44" transform="scale(0.996264)"/>
      <use xlink:href="#CMR17-65" transform="translate(70.393556 0) scale(0.996264)"/>
      <use xlink:href="#CMR17-6e" transform="translate(110.879216 0) scale(0.996264)"/>
      <use xlink:href="#CMR17-73" transform="translate(161.774586 0) scale(0.996264)"/>
      <use xlink:href="#CMR17-69" transform="translate(197.575924 0) scale(0.996264)"/>
      <use xlink:href="#CMR17-74" transform="translate(222.446982 0) scale(0.996264)"/>
      <use xlink:href="#CMR17-79" transform="translate(255.125296 0) scale(0.996264)"/>
      <use xlink:href="#CMR17-50" transform="translate(333.494178 0) scale(0.996264)"/>
      <use xlink:href="#CMR17-61" transform="translate(393.478025 0) scale(0.996264)"/>
      <use xlink:href="#CMR17-72" transform="translate(439.168502 0) scale(0.996264)"/>
      <use xlink:href="#CMR17-61" transform="translate(474.44927 0) scale(0.996264)"/>
      <use xlink:href="#CMR17-6d" transform="translate(520.139747 0) scale(0.996264)"/>
      <use xlink:href="#CMR17-65" transform="translate(597.059337 0) scale(0.996264)"/>
      <use xlink:href="#CMR17-74" transform="translate(637.544997 0) scale(0.996264)"/>
      <use xlink:href="#CMR17-65" transform="translate(672.825765 0) scale(0.996264)"/>
      <use xlink:href="#CMR17-72" transform="translate(713.311426 0) scale(0.996264)"/>
      <use xlink:href="#CMR17-73" transform="translate(748.592193 0) scale(0.996264)"/>
     </g>
    </g>
   </g>
   <g id="line2d_18">
    <path d="M 537.408099 444.876923 
L 537.408099 37.8 
" clip-path="url(#p3ac147ec2f)" style="fill: none; stroke: #000000; stroke-width: 1.5; stroke-linecap: square"/>
   </g>
   <g id="line2d_19">
    <path d="M 197.277946 444.876923 
L 197.277946 37.8 
" clip-path="url(#p3ac147ec2f)" style="fill: none; stroke-dasharray: 0.75,1.2375; stroke-dashoffset: 0; stroke: #000000; stroke-width: 0.75"/>
   </g>
   <g id="line2d_20">
    <path d="M 429.290811 444.876923 
L 429.290811 37.8 
" clip-path="url(#p3ac147ec2f)" style="fill: none; stroke-dasharray: 2.775,1.2; stroke-dashoffset: 0; stroke: #000000; stroke-width: 0.75"/>
   </g>
   <g id="line2d_21">
    <path d="M 525.995522 444.876923 
L 525.995522 37.8 
" clip-path="url(#p3ac147ec2f)" style="fill: none; stroke-dasharray: 4.8,1.2,0.75,1.2; stroke-dashoffset: 0; stroke: #000000; stroke-width: 0.75"/>
   </g>
   <g id="line2d_22">
    <path d="M 72 101.740154 
L 78.346036 102.972432 
L 84.184131 104.329819 
L 89.604302 105.815873 
L 94.680487 107.436156 
L 99.46734 109.19577 
L 104.013082 111.102249 
L 108.356291 113.163797 
L 112.532329 115.391488 
L 116.566916 117.795369 
L 120.48577 120.388983 
L 124.314609 123.190114 
L 128.069508 126.213389 
L 131.769755 129.479042 
L 135.434638 133.01137 
L 139.080233 136.835625 
L 142.725828 140.984505 
L 146.387497 145.491559 
L 150.081315 150.394127 
L 153.829783 155.74254 
L 157.655408 161.592694 
L 161.590336 168.021385 
L 165.66993 175.118208 
L 169.948843 183.014921 
L 174.507444 191.903325 
L 179.480756 202.09929 
L 185.138822 214.22333 
L 192.272486 230.068605 
L 212.352192 274.976977 
L 218.142065 287.191737 
L 223.263258 297.487744 
L 227.992244 306.504919 
L 232.444757 314.524045 
L 236.669017 321.681554 
L 240.681101 328.049453 
L 244.487436 333.681097 
L 248.113742 338.655798 
L 251.595382 343.060118 
L 254.987007 346.996111 
L 258.343269 350.553168 
L 261.71882 353.808394 
L 265.165097 356.823944 
L 268.730321 359.648313 
L 272.449857 362.310851 
L 276.346207 364.82592 
L 280.432231 367.198087 
L 284.711144 369.424406 
L 289.18616 371.501237 
L 293.863709 373.425927 
L 298.76308 375.200183 
L 303.913206 376.827255 
L 309.359095 378.312754 
L 315.158613 379.66208 
L 321.388915 380.880769 
L 328.149662 381.973546 
L 335.569444 382.944013 
L 343.831507 383.796118 
L 353.196249 384.533282 
L 364.059094 385.159117 
L 377.040498 385.676724 
L 393.178846 386.088208 
L 414.39338 386.394292 
L 445.07553 386.596486 
L 499.971632 386.701905 
L 663.007526 386.723077 
L 666.000514 386.723077 
L 666.000514 386.723077 
" clip-path="url(#p3ac147ec2f)" style="fill: none; stroke: #ff0000; stroke-width: 1.5; stroke-linecap: square"/>
   </g>
   <g id="line2d_23">
    <path d="M 72 380.936769 
L 78.346036 379.704491 
L 84.184131 378.347104 
L 89.604302 376.86105 
L 94.680487 375.240767 
L 99.46734 373.481154 
L 104.013082 371.574675 
L 108.356291 369.513129 
L 112.532329 367.285439 
L 116.566916 364.881561 
L 120.48577 362.287951 
L 124.314609 359.486827 
L 128.069508 356.463562 
L 131.772969 353.19496 
L 135.437853 349.662389 
L 139.083448 345.837892 
L 142.729043 341.688778 
L 146.390712 337.181512 
L 150.084529 332.278771 
L 153.832998 326.930256 
L 157.661837 321.075041 
L 161.596765 314.646244 
L 165.679575 307.543919 
L 169.964917 299.635583 
L 174.529948 290.735475 
L 179.519333 280.508865 
L 185.219192 268.301087 
L 192.532886 252.073999 
L 209.716047 213.75566 
L 215.181225 202.237718 
L 219.781618 193.046299 
L 223.835494 185.430398 
L 227.493949 179.018704 
L 230.850211 173.574731 
L 233.978221 168.915961 
L 236.939061 164.897809 
L 239.800243 161.384425 
L 242.635705 158.251662 
L 245.548324 155.364949 
L 248.708482 152.550139 
L 252.540536 149.448216 
L 271.138214 134.808099 
L 279.425995 128.119145 
L 284.135693 124.612244 
L 288.286013 121.794839 
L 292.204867 119.400375 
L 296.033706 117.319779 
L 299.852901 115.496716 
L 303.720318 113.896909 
L 307.687394 112.497053 
L 311.802351 111.281891 
L 316.123056 110.239483 
L 320.726664 109.360032 
L 325.728909 108.634338 
L 331.335539 108.050768 
L 337.999841 107.589198 
L 347.187769 107.194961 
L 383.039334 105.84192 
L 401.264094 105.178714 
L 415.447838 104.89348 
L 430.911076 104.811949 
L 446.731157 104.94354 
L 457.105351 105.232045 
L 463.985045 105.63455 
L 469.135171 106.15037 
L 473.275847 106.782125 
L 476.757486 107.533123 
L 479.779408 108.408407 
L 482.46699 109.415435 
L 484.903816 110.564042 
L 487.150968 111.868169 
L 489.253454 113.345553 
L 491.243422 115.016215 
L 493.153019 116.911513 
L 495.001535 119.062217 
L 496.808259 121.509268 
L 498.589264 124.301317 
L 500.357409 127.494113 
L 502.12234 131.149001 
L 503.893701 135.338328 
L 505.68435 140.15578 
L 507.507148 145.712609 
L 509.371738 152.126605 
L 511.297409 159.566442 
L 513.306666 168.239659 
L 515.431655 178.424569 
L 517.730245 190.564234 
L 520.308523 205.421918 
L 523.452607 224.918177 
L 534.543703 294.94316 
L 537.109122 308.995352 
L 539.414141 320.420061 
L 541.561634 329.970301 
L 543.603039 338.059995 
L 545.567288 344.95672 
L 547.476885 350.868445 
L 549.347905 355.95327 
L 551.193206 360.337892 
L 553.025648 364.129699 
L 554.854875 367.412897 
L 556.693747 370.263592 
L 558.551907 372.74005 
L 560.44543 374.89808 
L 562.393605 376.784463 
L 564.415721 378.434813 
L 566.537496 379.880294 
L 568.794293 381.147948 
L 571.224689 382.256182 
L 573.883338 383.221149 
L 576.840963 384.054229 
L 580.20044 384.764602 
L 584.112864 385.358497 
L 588.822562 385.84059 
L 594.750672 386.213696 
L 602.758765 386.480857 
L 615.023266 386.645574 
L 640.172728 386.715598 
L 666.000514 386.7224 
L 666.000514 386.7224 
" clip-path="url(#p3ac147ec2f)" style="fill: none; stroke: #008000; stroke-width: 1.5; stroke-linecap: square"/>
   </g>
   <g id="line2d_24">
    <path d="M 72 386.723077 
L 199.544387 386.611989 
L 210.43938 386.370367 
L 217.386585 386.004116 
L 222.658874 385.510823 
L 227.034231 384.883266 
L 230.895218 384.108093 
L 234.486161 383.161517 
L 238.016023 381.999747 
L 241.780566 380.520687 
L 246.834248 378.270622 
L 252.878091 375.624608 
L 256.089687 374.469181 
L 258.876928 373.698951 
L 261.509857 373.200316 
L 264.126713 372.931087 
L 266.843228 372.877287 
L 269.787994 373.045623 
L 273.173189 373.469098 
L 277.509969 374.249882 
L 295.972625 377.830639 
L 301.408869 378.511168 
L 306.909409 378.974247 
L 312.705713 379.236341 
L 319.045319 379.296155 
L 326.40402 379.135602 
L 336.533887 378.671257 
L 355.080128 377.804255 
L 364.917448 377.601597 
L 375.767433 377.61022 
L 394.757318 377.898608 
L 414.274432 378.098117 
L 432.486333 378.049284 
L 449.167984 377.798363 
L 458.799556 377.449955 
L 465.248465 377.00466 
L 470.144621 376.451579 
L 474.118127 375.78528 
L 477.484034 375.000471 
L 480.42237 374.090923 
L 483.045656 373.049148 
L 485.43426 371.863341 
L 487.646049 370.517772 
L 489.719602 368.996021 
L 491.690281 367.273073 
L 493.583804 365.320402 
L 495.422675 363.101544 
L 497.222969 360.576419 
L 499.000759 357.693768 
L 500.76569 354.401265 
L 502.530621 350.629641 
L 504.305197 346.303035 
L 506.102276 341.323584 
L 507.931503 335.586264 
L 509.808952 328.949047 
L 511.750697 321.248253 
L 513.782458 312.257987 
L 515.94281 301.660933 
L 518.292837 288.984295 
L 520.964344 273.30329 
L 524.346324 252.032753 
L 533.376727 194.544356 
L 536.102886 179.036032 
L 538.49792 166.656793 
L 540.70328 156.396919 
L 542.783262 147.751801 
L 544.776444 140.395617 
L 546.705331 134.106826 
L 548.58921 128.705283 
L 550.444155 124.04754 
L 552.279812 120.027005 
L 554.109039 116.546038 
L 555.941481 113.528732 
L 557.789997 110.906702 
L 559.667446 108.624217 
L 561.593118 106.629826 
L 563.583085 104.886903 
L 565.663068 103.360001 
L 567.861998 102.022149 
L 570.215239 100.852023 
L 572.774228 99.830449 
L 575.600046 98.945241 
L 578.782709 98.185801 
L 582.447593 97.545452 
L 586.797231 97.01837 
L 592.16275 96.601403 
L 599.177466 96.291623 
L 609.281615 96.08599 
L 627.027368 95.979238 
L 666.000514 95.954523 
L 666.000514 95.954523 
" clip-path="url(#p3ac147ec2f)" style="fill: none; stroke: #0000ff; stroke-width: 1.5; stroke-linecap: square"/>
   </g>
   <g id="patch_3">
    <path d="M 72 415.8 
L 72 37.8 
" style="fill: none; stroke: #000000; stroke-width: 0.8; stroke-linejoin: miter; stroke-linecap: square"/>
   </g>
   <g id="patch_4">
    <path d="M 666 415.8 
L 666 37.8 
" style="fill: none; stroke: #000000; stroke-width: 0.8; stroke-linejoin: miter; stroke-linecap: square"/>
   </g>
   <g id="patch_5">
    <path d="M 72 415.8 
L 666 415.8 
" style="fill: none; stroke: #000000; stroke-width: 0.8; stroke-linejoin: miter; stroke-linecap: square"/>
   </g>
   <g id="patch_6">
    <path d="M 72 37.8 
L 666 37.8 
" style="fill: none; stroke: #000000; stroke-width: 0.8; stroke-linejoin: miter; stroke-linecap: square"/>
   </g>
   <g id="text_15">
    <g id="patch_7">
     <path d="M 160.329971 364.77075 
L 230.01649 364.77075 
L 230.01649 344.543974 
L 160.329971 344.543974 
z
" style="fill: #ffffff; stroke: #ffffff; stroke-linejoin: miter"/>
    </g>
    <!-- $z=39344.7$ -->
    <g transform="translate(165.129971 357.646154) scale(0.12 -0.12)">
     <defs>
      <path id="CMMI12-7a" d="M 813 486 
C 1088 803 1312 1004 1632 1296 
C 2016 1632 2182 1793 2272 1891 
C 2720 2338 2944 2713 2944 2764 
C 2944 2816 2893 2816 2880 2816 
C 2835 2816 2822 2793 2790 2750 
C 2630 2494 2477 2367 2310 2367 
C 2176 2367 2106 2421 1984 2565 
C 1850 2715 1741 2816 1555 2816 
C 1088 2816 806 2257 806 2128 
C 806 2108 813 2068 870 2068 
C 922 2068 928 2091 947 2133 
C 1056 2372 1363 2414 1485 2414 
C 1619 2414 1747 2376 1882 2327 
C 2125 2240 2227 2240 2291 2240 
C 2336 2240 2362 2240 2394 2246 
C 2182 1994 1837 1683 1549 1418 
L 902 816 
C 512 415 275 33 275 -12 
C 275 -51 307 -64 346 -64 
C 384 -64 390 -57 435 14 
C 538 163 742 384 979 384 
C 1114 384 1178 342 1306 193 
C 1427 61 1536 -64 1741 -64 
C 2368 -64 2726 732 2726 876 
C 2726 903 2720 942 2656 942 
C 2605 942 2598 917 2579 855 
C 2438 488 2061 338 1811 338 
C 1677 338 1549 376 1414 425 
C 1158 512 1088 512 1005 512 
C 941 512 870 512 813 486 
z
" transform="scale(0.015625)"/>
      <path id="CMR17-3d" d="M 4115 2017 
C 4211 2017 4307 2017 4307 2125 
C 4307 2240 4198 2240 4090 2240 
L 512 2240 
C 403 2240 294 2240 294 2125 
C 294 2017 390 2017 486 2017 
L 4115 2017 
z
M 4090 896 
C 4198 896 4307 896 4307 1011 
C 4307 1119 4211 1119 4115 1119 
L 486 1119 
C 390 1119 294 1119 294 1011 
C 294 896 403 896 512 896 
L 4090 896 
z
" transform="scale(0.015625)"/>
      <path id="CMR17-39" d="M 2253 1864 
C 2253 464 1670 31 1190 31 
C 1043 31 685 31 538 294 
C 704 268 826 357 826 518 
C 826 692 685 749 595 749 
C 538 749 365 723 365 506 
C 365 71 742 -128 1203 -128 
C 1939 -128 2688 674 2688 2073 
C 2688 3817 1971 4179 1485 4179 
C 851 4179 243 3628 243 2778 
C 243 1991 762 1408 1414 1408 
C 1952 1408 2189 1903 2253 2112 
L 2253 1864 
z
M 1427 1510 
C 1254 1510 1011 1542 813 1922 
C 678 2169 678 2461 678 2771 
C 678 3146 678 3405 858 3684 
C 947 3817 1114 4032 1485 4032 
C 2240 4032 2240 2885 2240 2632 
C 2240 2182 2035 1510 1427 1510 
z
" transform="scale(0.015625)"/>
     </defs>
     <use xlink:href="#CMMI12-7a" transform="scale(0.996264)"/>
     <use xlink:href="#CMR17-3d" transform="translate(77.429154 0) scale(0.996264)"/>
     <use xlink:href="#CMR17-33" transform="translate(176.817951 0) scale(0.996264)"/>
     <use xlink:href="#CMR17-39" transform="translate(222.508428 0) scale(0.996264)"/>
     <use xlink:href="#CMR17-33" transform="translate(268.198905 0) scale(0.996264)"/>
     <use xlink:href="#CMR17-34" transform="translate(313.889382 0) scale(0.996264)"/>
     <use xlink:href="#CMR17-34" transform="translate(359.579859 0) scale(0.996264)"/>
     <use xlink:href="#CMMI12-3a" transform="translate(405.270336 0) scale(0.996264)"/>
     <use xlink:href="#CMR17-37" transform="translate(432.367513 0) scale(0.996264)"/>
    </g>
   </g>
   <g id="text_16">
    <g id="patch_8">
     <path d="M 385.913241 74.001519 
L 438.040789 74.001519 
L 438.040789 53.774743 
L 385.913241 53.774743 
z
" style="fill: #ffffff; stroke: #ffffff; stroke-linejoin: miter"/>
    </g>
    <!-- $z=27.9$ -->
    <g transform="translate(390.713241 66.876923) scale(0.12 -0.12)">
     <use xlink:href="#CMMI12-7a" transform="scale(0.996264)"/>
     <use xlink:href="#CMR17-3d" transform="translate(77.429154 0) scale(0.996264)"/>
     <use xlink:href="#CMR17-32" transform="translate(176.817951 0) scale(0.996264)"/>
     <use xlink:href="#CMR17-37" transform="translate(222.508428 0) scale(0.996264)"/>
     <use xlink:href="#CMMI12-3a" transform="translate(268.198905 0) scale(0.996264)"/>
     <use xlink:href="#CMR17-39" transform="translate(295.296082 0) scale(0.996264)"/>
    </g>
   </g>
   <g id="text_17">
    <g id="patch_9">
     <path d="M 479.403154 74.001519 
L 525.677713 74.001519 
L 525.677713 53.774743 
L 479.403154 53.774743 
z
" style="fill: #ffffff; stroke: #ffffff; stroke-linejoin: miter"/>
    </g>
    <!-- $z=0.4$ -->
    <g transform="translate(484.203154 66.876923) scale(0.12 -0.12)">
     <use xlink:href="#CMMI12-7a" transform="scale(0.996264)"/>
     <use xlink:href="#CMR17-3d" transform="translate(77.429154 0) scale(0.996264)"/>
     <use xlink:href="#CMR17-30" transform="translate(176.817951 0) scale(0.996264)"/>
     <use xlink:href="#CMMI12-3a" transform="translate(222.508428 0) scale(0.996264)"/>
     <use xlink:href="#CMR17-34" transform="translate(249.605605 0) scale(0.996264)"/>
    </g>
   </g>
   <g id="legend_1">
    <g id="patch_10">
     <path d="M 80.4 116.547368 
L 166.133759 116.547368 
Q 168.533759 116.547368 168.533759 114.147368 
L 168.533759 46.2 
Q 168.533759 43.8 166.133759 43.8 
L 80.4 43.8 
Q 78 43.8 78 46.2 
L 78 114.147368 
Q 78 116.547368 80.4 116.547368 
z
" style="fill: #ffffff; opacity: 0.8; stroke: #cccccc; stroke-linejoin: miter"/>
    </g>
    <g id="line2d_25">
     <path d="M 82.8 52.8 
L 94.8 52.8 
L 106.8 52.8 
" style="fill: none; stroke: #000000; stroke-width: 1.5; stroke-linecap: square"/>
    </g>
    <g id="text_18">
     <!-- Today -->
     <g transform="translate(116.4 57) scale(0.12 -0.12)">
      <defs>
       <path id="CMR17-54" d="M 3981 4326 
L 288 4326 
L 179 2918 
L 294 2918 
C 378 3976 467 4160 1453 4160 
C 1568 4160 1754 4160 1805 4154 
C 1926 4135 1926 4058 1926 3912 
L 1926 459 
C 1926 230 1907 160 1376 160 
L 1197 160 
L 1197 0 
C 1504 0 1824 0 2138 0 
C 2451 0 2771 0 3078 0 
L 3078 160 
L 2899 160 
C 2368 160 2349 230 2349 459 
L 2349 3912 
C 2349 4052 2349 4129 2464 4154 
C 2515 4160 2701 4160 2816 4160 
C 3795 4160 3891 3976 3974 2918 
L 4090 2918 
L 3981 4326 
z
" transform="scale(0.015625)"/>
       <path id="CMR17-6f" d="M 2758 1356 
C 2758 2176 2163 2816 1466 2816 
C 768 2816 173 2176 173 1356 
C 173 551 768 -64 1466 -64 
C 2163 -64 2758 551 2758 1356 
z
M 1466 51 
C 1165 51 909 230 762 480 
C 602 767 582 1126 582 1408 
C 582 1677 595 2010 762 2298 
C 890 2509 1139 2714 1466 2714 
C 1754 2714 1997 2554 2150 2330 
C 2349 2029 2349 1607 2349 1408 
C 2349 1158 2336 775 2163 467 
C 1984 173 1709 51 1466 51 
z
" transform="scale(0.015625)"/>
       <path id="CMR17-64" d="M 1869 4326 
L 1869 4160 
C 2246 4160 2304 4122 2304 3820 
L 2304 2345 
C 2278 2377 2016 2790 1498 2790 
C 845 2790 211 2208 211 1364 
C 211 525 806 -64 1434 -64 
C 1978 -64 2259 337 2291 380 
L 2291 -63 
L 3066 -63 
L 3066 128 
C 2688 128 2630 166 2630 473 
L 2630 4396 
L 1869 4326 
z
M 2291 755 
C 2291 563 2176 390 2029 262 
C 1811 70 1594 38 1472 38 
C 1286 38 621 134 621 1356 
C 621 2612 1363 2688 1530 2688 
C 1824 2688 2061 2522 2208 2291 
C 2291 2157 2291 2138 2291 2023 
L 2291 755 
z
" transform="scale(0.015625)"/>
      </defs>
      <use xlink:href="#CMR17-54" transform="scale(0.996264)"/>
      <use xlink:href="#CMR17-6f" transform="translate(58.702625 0) scale(0.996264)"/>
      <use xlink:href="#CMR17-64" transform="translate(106.995541 0) scale(0.996264)"/>
      <use xlink:href="#CMR17-61" transform="translate(157.890911 0) scale(0.996264)"/>
      <use xlink:href="#CMR17-79" transform="translate(200.978934 0) scale(0.996264)"/>
     </g>
    </g>
    <g id="line2d_26">
     <path d="M 82.8 69.524596 
L 94.8 69.524596 
L 106.8 69.524596 
" style="fill: none; stroke-dasharray: 0.75,1.2375; stroke-dashoffset: 0; stroke: #000000; stroke-width: 0.75"/>
    </g>
    <g id="text_19">
     <!-- $\Omega_m=\Omega_r$ -->
     <g transform="translate(116.4 73.724596) scale(0.12 -0.12)">
      <defs>
       <path id="CMR17-a" d="M 4038 935 
L 3923 935 
C 3866 641 3846 563 3814 461 
C 3782 365 3763 314 3392 314 
L 2874 314 
C 2944 686 3098 961 3366 1391 
C 3699 1935 3974 2377 3974 2910 
C 3974 3775 3155 4480 2138 4480 
C 1094 4480 294 3768 294 2910 
C 294 2377 576 1922 890 1416 
C 1171 961 1325 686 1395 314 
L 877 314 
C 512 314 493 365 461 454 
C 422 557 410 641 346 935 
L 230 935 
L 416 0 
L 1382 0 
C 1517 0 1523 6 1523 102 
C 1523 558 1286 1154 1178 1429 
C 973 1929 781 2416 781 2916 
C 781 3871 1466 4377 2131 4377 
C 2829 4377 3488 3851 3488 2916 
C 3488 2422 3315 1981 3078 1397 
C 2976 1135 2746 551 2746 102 
C 2746 0 2752 0 2886 0 
L 3853 0 
L 4038 935 
z
" transform="scale(0.015625)"/>
       <path id="CMMI12-6d" d="M 1318 1871 
C 1331 1910 1491 2229 1728 2433 
C 1894 2586 2112 2689 2362 2689 
C 2618 2689 2707 2497 2707 2242 
C 2707 2203 2707 2076 2630 1775 
L 2470 1118 
C 2419 926 2298 453 2285 383 
C 2259 287 2221 121 2221 96 
C 2221 6 2291 -64 2387 -64 
C 2579 -64 2611 83 2669 313 
L 3053 1839 
C 3066 1890 3398 2689 4102 2689 
C 4358 2689 4448 2497 4448 2242 
C 4448 1884 4198 1188 4058 805 
C 4000 651 3968 568 3968 453 
C 3968 166 4166 -64 4474 -64 
C 5069 -64 5293 875 5293 913 
C 5293 945 5267 971 5229 971 
C 5171 971 5165 952 5133 843 
C 4986 332 4749 64 4493 64 
C 4429 64 4326 64 4326 269 
C 4326 436 4403 640 4429 710 
C 4544 1018 4832 1773 4832 2145 
C 4832 2528 4608 2816 4122 2816 
C 3693 2816 3347 2574 3091 2197 
C 3072 2542 2861 2816 2381 2816 
C 1811 2816 1510 2415 1395 2255 
C 1376 2618 1114 2816 832 2816 
C 646 2816 499 2727 378 2484 
C 262 2254 173 1865 173 1839 
C 173 1814 198 1782 243 1782 
C 294 1782 301 1788 339 1935 
C 435 2312 557 2689 813 2689 
C 960 2689 1011 2586 1011 2395 
C 1011 2254 947 2005 902 1807 
L 723 1118 
C 698 996 627 709 595 594 
C 550 428 480 128 480 96 
C 480 6 550 -64 646 -64 
C 723 -64 813 -26 864 70 
C 877 102 934 326 966 453 
L 1107 1028 
L 1318 1871 
z
" transform="scale(0.015625)"/>
       <path id="CMMI12-72" d="M 2490 2612 
C 2291 2574 2189 2433 2189 2293 
C 2189 2139 2310 2088 2400 2088 
C 2579 2088 2726 2242 2726 2433 
C 2726 2638 2528 2816 2208 2816 
C 1952 2816 1658 2701 1389 2312 
C 1344 2650 1088 2816 832 2816 
C 582 2816 454 2625 378 2484 
C 269 2254 173 1871 173 1839 
C 173 1814 198 1782 243 1782 
C 294 1782 301 1788 339 1935 
C 435 2318 557 2689 813 2689 
C 966 2689 1011 2580 1011 2395 
C 1011 2254 947 2005 902 1807 
L 723 1118 
C 698 996 627 709 595 594 
C 550 428 480 128 480 96 
C 480 6 550 -64 646 -64 
C 717 -64 838 -19 877 109 
C 896 160 1133 1124 1171 1271 
C 1203 1411 1242 1546 1274 1686 
C 1299 1775 1325 1878 1344 1961 
C 1363 2018 1536 2331 1696 2472 
C 1773 2542 1939 2689 2202 2689 
C 2304 2689 2406 2670 2490 2612 
z
" transform="scale(0.015625)"/>
      </defs>
      <use xlink:href="#CMR17-a" transform="scale(0.996264)"/>
      <use xlink:href="#CMMI12-6d" transform="translate(66.509881 -14.943915) scale(0.697382)"/>
      <use xlink:href="#CMR17-3d" transform="translate(154.410812 0) scale(0.996264)"/>
      <use xlink:href="#CMR17-a" transform="translate(253.799609 0) scale(0.996264)"/>
      <use xlink:href="#CMMI12-72" transform="translate(320.30949 -14.943915) scale(0.697382)"/>
     </g>
    </g>
    <g id="line2d_27">
     <path d="M 82.8 86.815568 
L 94.8 86.815568 
L 106.8 86.815568 
" style="fill: none; stroke-dasharray: 2.775,1.2; stroke-dashoffset: 0; stroke: #000000; stroke-width: 0.75"/>
    </g>
    <g id="text_20">
     <!-- max$(\Omega_m)$ -->
     <g transform="translate(116.4 91.015568) scale(0.12 -0.12)">
      <defs>
       <path id="CMR17-78" d="M 1664 1477 
C 1856 1726 2074 2006 2253 2216 
C 2464 2458 2707 2560 2989 2560 
L 2989 2726 
C 2880 2726 2656 2726 2541 2726 
C 2368 2726 2170 2726 2022 2732 
L 2022 2566 
C 2112 2553 2163 2489 2163 2400 
C 2163 2285 2099 2215 2067 2171 
L 1594 1573 
L 1030 2306 
C 973 2376 973 2388 973 2420 
C 973 2497 1037 2560 1146 2560 
L 1146 2732 
C 992 2726 717 2726 557 2726 
C 384 2726 179 2726 38 2732 
L 38 2560 
C 384 2560 461 2534 614 2343 
L 1350 1395 
C 1363 1382 1395 1344 1395 1325 
C 1395 1299 838 619 768 530 
C 480 185 179 160 6 160 
L 6 0 
C 115 0 339 0 454 0 
C 582 0 864 0 979 -6 
L 979 160 
C 941 166 838 179 838 325 
C 838 440 890 510 947 586 
L 1478 1236 
L 2035 512 
C 2086 442 2163 346 2163 301 
C 2163 211 2086 160 1984 160 
L 1984 -6 
C 2138 0 2413 0 2573 0 
C 2746 0 2950 0 3091 -6 
L 3091 160 
C 2771 160 2675 172 2522 370 
L 1664 1477 
z
" transform="scale(0.015625)"/>
       <path id="CMR17-28" d="M 1958 -1561 
C 1958 -1555 1958 -1542 1939 -1523 
C 1645 -1224 858 -407 858 1581 
C 858 3569 1632 4379 1946 4697 
C 1946 4704 1958 4717 1958 4736 
C 1958 4755 1939 4768 1914 4768 
C 1843 4768 1299 4296 986 3594 
C 666 2887 576 2199 576 1588 
C 576 1128 621 351 1005 -471 
C 1312 -1135 1837 -1600 1914 -1600 
C 1946 -1600 1958 -1587 1958 -1561 
z
" transform="scale(0.015625)"/>
       <path id="CMR17-29" d="M 1683 1581 
C 1683 2040 1638 2817 1254 3639 
C 947 4303 422 4768 346 4768 
C 326 4768 301 4761 301 4729 
C 301 4717 307 4710 314 4697 
C 621 4378 1402 3568 1402 1584 
C 1402 -407 627 -1217 314 -1537 
C 307 -1549 301 -1556 301 -1568 
C 301 -1600 326 -1600 346 -1600 
C 416 -1600 960 -1128 1274 -426 
C 1594 281 1683 969 1683 1581 
z
" transform="scale(0.015625)"/>
      </defs>
      <use xlink:href="#CMR17-6d" transform="scale(0.996264)"/>
      <use xlink:href="#CMR17-61" transform="translate(76.91959 0) scale(0.996264)"/>
      <use xlink:href="#CMR17-78" transform="translate(122.610067 0) scale(0.996264)"/>
      <use xlink:href="#CMR17-28" transform="translate(170.902983 0) scale(0.996264)"/>
      <use xlink:href="#CMR17-a" transform="translate(206.183751 0) scale(0.996264)"/>
      <use xlink:href="#CMMI12-6d" transform="translate(272.693631 -14.943915) scale(0.697382)"/>
      <use xlink:href="#CMR17-29" transform="translate(332.920554 0) scale(0.996264)"/>
     </g>
    </g>
    <g id="line2d_28">
     <path d="M 82.8 104.20436 
L 94.8 104.20436 
L 106.8 104.20436 
" style="fill: none; stroke-dasharray: 4.8,1.2,0.75,1.2; stroke-dashoffset: 0; stroke: #000000; stroke-width: 0.75"/>
    </g>
    <g id="text_21">
     <!-- $\Omega_m=\Omega_\phi$ -->
     <g transform="translate(116.4 108.40436) scale(0.12 -0.12)">
      <defs>
       <path id="CMMI12-1e" d="M 2752 4390 
C 2752 4448 2707 4448 2688 4448 
C 2630 4448 2624 4435 2598 4326 
L 2253 2939 
C 2234 2856 2227 2849 2221 2843 
C 2214 2830 2170 2824 2157 2824 
C 1107 2734 301 1864 301 1057 
C 301 361 832 -64 1498 -64 
C 1446 -261 1402 -463 1350 -659 
C 1261 -995 1210 -1204 1210 -1229 
C 1210 -1241 1210 -1280 1274 -1280 
C 1293 -1280 1318 -1280 1331 -1254 
C 1344 -1241 1382 -1089 1408 -1008 
L 1645 -64 
C 2739 -64 3571 854 3571 1680 
C 3571 2343 3085 2816 2374 2816 
L 2752 4390 
z
M 2336 2701 
C 2758 2701 3181 2463 3181 1828 
C 3181 1097 2675 128 1677 50 
L 2336 2701 
z
M 1530 50 
C 1216 50 691 220 691 938 
C 691 1761 1274 2676 2195 2676 
L 1530 50 
z
" transform="scale(0.015625)"/>
      </defs>
      <use xlink:href="#CMR17-a" transform="scale(0.996264)"/>
      <use xlink:href="#CMMI12-6d" transform="translate(66.509881 -14.943915) scale(0.697382)"/>
      <use xlink:href="#CMR17-3d" transform="translate(154.410812 0) scale(0.996264)"/>
      <use xlink:href="#CMR17-a" transform="translate(253.799609 0) scale(0.996264)"/>
      <use xlink:href="#CMMI12-1e" transform="translate(320.30949 -14.943915) scale(0.697382)"/>
     </g>
    </g>
   </g>
   <g id="legend_2">
    <g id="patch_11">
     <path d="M 80.4 273.0961 
L 134.744846 273.0961 
Q 137.144846 273.0961 137.144846 270.6961 
L 137.144846 220.7039 
Q 137.144846 218.3039 134.744846 218.3039 
L 80.4 218.3039 
Q 78 218.3039 78 220.7039 
L 78 270.6961 
Q 78 273.0961 80.4 273.0961 
z
" style="fill: #ffffff; opacity: 0.8; stroke: #cccccc; stroke-linejoin: miter"/>
    </g>
    <g id="line2d_29">
     <path d="M 82.8 227.3039 
L 94.8 227.3039 
L 106.8 227.3039 
" style="fill: none; stroke: #ff0000; stroke-width: 1.5; stroke-linecap: square"/>
    </g>
    <g id="text_22">
     <!-- $\Omega_r$ -->
     <g transform="translate(116.4 231.5039) scale(0.12 -0.12)">
      <use xlink:href="#CMR17-a" transform="scale(0.996264)"/>
      <use xlink:href="#CMMI12-72" transform="translate(66.509881 -14.943915) scale(0.697382)"/>
     </g>
    </g>
    <g id="line2d_30">
     <path d="M 82.8 244.028496 
L 94.8 244.028496 
L 106.8 244.028496 
" style="fill: none; stroke: #008000; stroke-width: 1.5; stroke-linecap: square"/>
    </g>
    <g id="text_23">
     <!-- $\Omega_m$ -->
     <g transform="translate(116.4 248.228496) scale(0.12 -0.12)">
      <use xlink:href="#CMR17-a" transform="scale(0.996264)"/>
      <use xlink:href="#CMMI12-6d" transform="translate(66.509881 -14.943915) scale(0.697382)"/>
     </g>
    </g>
    <g id="line2d_31">
     <path d="M 82.8 260.753091 
L 94.8 260.753091 
L 106.8 260.753091 
" style="fill: none; stroke: #0000ff; stroke-width: 1.5; stroke-linecap: square"/>
    </g>
    <g id="text_24">
     <!-- $\Omega_\phi$ -->
     <g transform="translate(116.4 264.953091) scale(0.12 -0.12)">
      <use xlink:href="#CMR17-a" transform="scale(0.996264)"/>
      <use xlink:href="#CMMI12-1e" transform="translate(66.509881 -14.943915) scale(0.697382)"/>
     </g>
    </g>
   </g>
  </g>
 </g>
 <defs>
  <clipPath id="p3ac147ec2f">
   <rect x="72" y="37.8" width="594" height="378"/>
  </clipPath>
 </defs>
</svg>
