<?xml version="1.0" encoding="utf-8" standalone="no"?>
<!DOCTYPE svg PUBLIC "-//W3C//DTD SVG 1.1//EN"
  "http://www.w3.org/Graphics/SVG/1.1/DTD/svg11.dtd">
<svg xmlns:xlink="http://www.w3.org/1999/xlink" width="432pt" height="288pt" viewBox="0 0 432 288" xmlns="http://www.w3.org/2000/svg" version="1.1">
 <metadata>
  <rdf:RDF xmlns:dc="http://purl.org/dc/elements/1.1/" xmlns:cc="http://creativecommons.org/ns#" xmlns:rdf="http://www.w3.org/1999/02/22-rdf-syntax-ns#">
   <cc:Work>
    <dc:type rdf:resource="http://purl.org/dc/dcmitype/StillImage"/>
    <dc:date>2024-05-07T22:27:27.943154</dc:date>
    <dc:format>image/svg+xml</dc:format>
    <dc:creator>
     <cc:Agent>
      <dc:title>Matplotlib v3.8.3, https://matplotlib.org/</dc:title>
     </cc:Agent>
    </dc:creator>
   </cc:Work>
  </rdf:RDF>
 </metadata>
 <defs>
  <style type="text/css">*{stroke-linejoin: round; stroke-linecap: butt}</style>
 </defs>
 <g id="figure_1">
  <g id="patch_1">
   <path d="M 0 288 
L 432 288 
L 432 0 
L 0 0 
z
" style="fill: #ffffff"/>
  </g>
  <g id="axes_1">
   <g id="patch_2">
    <path d="M 43.2 230.4 
L 388.8 230.4 
L 388.8 36 
L 43.2 36 
z
" style="fill: #ffffff"/>
   </g>
   <g id="matplotlib.axis_1">
    <g id="xtick_1">
     <g id="line2d_1">
      <defs>
       <path id="m848df4288b" d="M 0 0 
L 0 3.5 
" style="stroke: #000000; stroke-width: 0.8"/>
      </defs>
      <g>
       <use xlink:href="#m848df4288b" x="191.314286" y="230.4" style="stroke: #000000; stroke-width: 0.8"/>
      </g>
     </g>
     <g id="text_1">
      <!-- $0$ -->
      <g transform="translate(188.387791 245.70218) scale(0.12 -0.12)">
       <defs>
        <path id="CMR17-30" d="M 2688 2025 
C 2688 2416 2682 3080 2413 3591 
C 2176 4039 1798 4198 1466 4198 
C 1158 4198 768 4058 525 3597 
C 269 3118 243 2524 243 2025 
C 243 1661 250 1106 448 619 
C 723 -39 1216 -128 1466 -128 
C 1760 -128 2208 -7 2470 600 
C 2662 1042 2688 1559 2688 2025 
z
M 1466 -26 
C 1056 -26 813 325 723 812 
C 653 1188 653 1738 653 2096 
C 653 2588 653 2997 736 3387 
C 858 3929 1216 4096 1466 4096 
C 1728 4096 2067 3923 2189 3400 
C 2272 3036 2278 2607 2278 2096 
C 2278 1680 2278 1169 2202 792 
C 2067 95 1690 -26 1466 -26 
z
" transform="scale(0.015625)"/>
       </defs>
       <use xlink:href="#CMR17-30" transform="scale(0.996264)"/>
      </g>
     </g>
    </g>
    <g id="xtick_2">
     <g id="line2d_2">
      <g>
       <use xlink:href="#m848df4288b" x="240.685714" y="230.4" style="stroke: #000000; stroke-width: 0.8"/>
      </g>
     </g>
     <g id="text_2">
      <!-- $\phi_m$ -->
      <g transform="translate(233.476406 245.70218) scale(0.12 -0.12)">
       <defs>
        <path id="CMMI12-1e" d="M 2752 4390 
C 2752 4448 2707 4448 2688 4448 
C 2630 4448 2624 4435 2598 4326 
L 2253 2939 
C 2234 2856 2227 2849 2221 2843 
C 2214 2830 2170 2824 2157 2824 
C 1107 2734 301 1864 301 1057 
C 301 361 832 -64 1498 -64 
C 1446 -261 1402 -463 1350 -659 
C 1261 -995 1210 -1204 1210 -1229 
C 1210 -1241 1210 -1280 1274 -1280 
C 1293 -1280 1318 -1280 1331 -1254 
C 1344 -1241 1382 -1089 1408 -1008 
L 1645 -64 
C 2739 -64 3571 854 3571 1680 
C 3571 2343 3085 2816 2374 2816 
L 2752 4390 
z
M 2336 2701 
C 2758 2701 3181 2463 3181 1828 
C 3181 1097 2675 128 1677 50 
L 2336 2701 
z
M 1530 50 
C 1216 50 691 220 691 938 
C 691 1761 1274 2676 2195 2676 
L 1530 50 
z
" transform="scale(0.015625)"/>
        <path id="CMMI12-6d" d="M 1318 1871 
C 1331 1910 1491 2229 1728 2433 
C 1894 2586 2112 2689 2362 2689 
C 2618 2689 2707 2497 2707 2242 
C 2707 2203 2707 2076 2630 1775 
L 2470 1118 
C 2419 926 2298 453 2285 383 
C 2259 287 2221 121 2221 96 
C 2221 6 2291 -64 2387 -64 
C 2579 -64 2611 83 2669 313 
L 3053 1839 
C 3066 1890 3398 2689 4102 2689 
C 4358 2689 4448 2497 4448 2242 
C 4448 1884 4198 1188 4058 805 
C 4000 651 3968 568 3968 453 
C 3968 166 4166 -64 4474 -64 
C 5069 -64 5293 875 5293 913 
C 5293 945 5267 971 5229 971 
C 5171 971 5165 952 5133 843 
C 4986 332 4749 64 4493 64 
C 4429 64 4326 64 4326 269 
C 4326 436 4403 640 4429 710 
C 4544 1018 4832 1773 4832 2145 
C 4832 2528 4608 2816 4122 2816 
C 3693 2816 3347 2574 3091 2197 
C 3072 2542 2861 2816 2381 2816 
C 1811 2816 1510 2415 1395 2255 
C 1376 2618 1114 2816 832 2816 
C 646 2816 499 2727 378 2484 
C 262 2254 173 1865 173 1839 
C 173 1814 198 1782 243 1782 
C 294 1782 301 1788 339 1935 
C 435 2312 557 2689 813 2689 
C 960 2689 1011 2586 1011 2395 
C 1011 2254 947 2005 902 1807 
L 723 1118 
C 698 996 627 709 595 594 
C 550 428 480 128 480 96 
C 480 6 550 -64 646 -64 
C 723 -64 813 -26 864 70 
C 877 102 934 326 966 453 
L 1107 1028 
L 1318 1871 
z
" transform="scale(0.015625)"/>
       </defs>
       <use xlink:href="#CMMI12-1e" transform="scale(0.996264)"/>
       <use xlink:href="#CMMI12-6d" transform="translate(57.73418 -14.943915) scale(0.697382)"/>
      </g>
     </g>
    </g>
   </g>
   <g id="matplotlib.axis_2">
    <g id="ytick_1">
     <g id="line2d_3">
      <defs>
       <path id="m0bac116a45" d="M 0 0 
L -3.5 0 
" style="stroke: #000000; stroke-width: 0.8"/>
      </defs>
      <g>
       <use xlink:href="#m0bac116a45" x="43.2" y="208.8" style="stroke: #000000; stroke-width: 0.8"/>
      </g>
     </g>
     <g id="text_3">
      <!-- $0$ -->
      <g transform="translate(30.34701 212.95109) scale(0.12 -0.12)">
       <use xlink:href="#CMR17-30" transform="scale(0.996264)"/>
      </g>
     </g>
    </g>
    <g id="ytick_2">
     <g id="line2d_4">
      <g>
       <use xlink:href="#m0bac116a45" x="43.2" y="165.6" style="stroke: #000000; stroke-width: 0.8"/>
      </g>
     </g>
     <g id="text_4">
      <!-- $\rho_c$ -->
      <g transform="translate(26.494498 169.75109) scale(0.12 -0.12)">
       <defs>
        <path id="CMMI12-1a" d="M 198 -1107 
C 192 -1139 179 -1177 179 -1216 
C 179 -1312 256 -1376 352 -1376 
C 448 -1376 538 -1312 576 -1222 
C 602 -1164 781 -397 986 390 
C 1114 70 1350 -64 1600 -64 
C 2323 -64 3142 830 3142 1795 
C 3142 2478 2726 2816 2285 2816 
C 1722 2816 1037 2235 826 1385 
L 198 -1107 
z
M 1594 64 
C 1158 64 1050 569 1050 645 
C 1050 684 1210 1295 1229 1391 
C 1555 2670 2182 2670 2278 2670 
C 2566 2670 2726 2410 2726 2036 
C 2726 1712 2554 1084 2445 819 
C 2253 381 1920 64 1594 64 
z
" transform="scale(0.015625)"/>
        <path id="CMMI12-63" d="M 2502 2431 
C 2381 2431 2323 2431 2234 2355 
C 2195 2323 2125 2227 2125 2125 
C 2125 1997 2221 1920 2342 1920 
C 2496 1920 2669 2044 2669 2292 
C 2669 2588 2374 2816 1933 2816 
C 1094 2816 256 1903 256 996 
C 256 441 602 -64 1254 -64 
C 2125 -64 2675 622 2675 706 
C 2675 744 2637 776 2611 776 
C 2592 776 2586 770 2528 713 
C 2118 162 1510 64 1267 64 
C 826 64 685 446 685 764 
C 685 988 794 1605 1024 2039 
C 1190 2338 1536 2682 1939 2682 
C 2022 2682 2374 2682 2502 2431 
z
" transform="scale(0.015625)"/>
       </defs>
       <use xlink:href="#CMMI12-1a" transform="scale(0.996264)"/>
       <use xlink:href="#CMMI12-63" transform="translate(50.314373 -14.943915) scale(0.697382)"/>
      </g>
     </g>
    </g>
    <g id="text_5">
     <!-- $V(\phi)$ -->
     <g transform="translate(9.765293 33.011208) scale(0.12 -0.12)">
      <defs>
       <path id="CMMI12-56" d="M 3962 3640 
C 4179 3984 4378 4136 4704 4162 
C 4768 4168 4819 4168 4819 4282 
C 4819 4308 4806 4346 4749 4346 
C 4634 4346 4358 4346 4243 4346 
C 4058 4346 3866 4346 3686 4346 
C 3635 4346 3571 4346 3571 4226 
C 3571 4168 3629 4162 3654 4162 
C 3891 4143 3917 4029 3917 3952 
C 3917 3857 3827 3710 3821 3704 
L 1811 540 
L 1363 3969 
C 1363 4160 1696 4160 1766 4160 
C 1862 4160 1920 4160 1920 4282 
C 1920 4346 1850 4346 1830 4346 
C 1722 4346 1594 4346 1485 4346 
L 1126 4346 
C 659 4346 467 4346 461 4346 
C 422 4346 346 4346 346 4230 
C 346 4160 390 4160 493 4160 
C 819 4160 838 4102 858 3944 
L 1370 24 
C 1389 -109 1389 -128 1478 -128 
C 1555 -128 1587 -109 1651 -8 
L 3962 3640 
z
" transform="scale(0.015625)"/>
       <path id="CMR17-28" d="M 1958 -1561 
C 1958 -1555 1958 -1542 1939 -1523 
C 1645 -1224 858 -407 858 1581 
C 858 3569 1632 4379 1946 4697 
C 1946 4704 1958 4717 1958 4736 
C 1958 4755 1939 4768 1914 4768 
C 1843 4768 1299 4296 986 3594 
C 666 2887 576 2199 576 1588 
C 576 1128 621 351 1005 -471 
C 1312 -1135 1837 -1600 1914 -1600 
C 1946 -1600 1958 -1587 1958 -1561 
z
" transform="scale(0.015625)"/>
       <path id="CMR17-29" d="M 1683 1581 
C 1683 2040 1638 2817 1254 3639 
C 947 4303 422 4768 346 4768 
C 326 4768 301 4761 301 4729 
C 301 4717 307 4710 314 4697 
C 621 4378 1402 3568 1402 1584 
C 1402 -407 627 -1217 314 -1537 
C 307 -1549 301 -1556 301 -1568 
C 301 -1600 326 -1600 346 -1600 
C 416 -1600 960 -1128 1274 -426 
C 1594 281 1683 969 1683 1581 
z
" transform="scale(0.015625)"/>
      </defs>
      <use xlink:href="#CMMI12-56" transform="scale(0.996264)"/>
      <use xlink:href="#CMR17-28" transform="translate(78.547321 0) scale(0.996264)"/>
      <use xlink:href="#CMMI12-1e" transform="translate(113.828089 0) scale(0.996264)"/>
      <use xlink:href="#CMR17-29" transform="translate(171.562269 0) scale(0.996264)"/>
     </g>
    </g>
   </g>
   <g id="line2d_5">
    <path d="M 191.314286 289 
L 191.314286 -1 
" clip-path="url(#p47e989d96e)" style="fill: none; stroke: #000000; stroke-width: 0.5; stroke-linecap: square"/>
   </g>
   <g id="line2d_6">
    <path d="M -1 208.8 
L 433 208.8 
" clip-path="url(#p47e989d96e)" style="fill: none; stroke: #000000; stroke-width: 0.5; stroke-linecap: square"/>
   </g>
   <g id="line2d_7">
    <path d="M 240.685714 252 
L 240.685714 165.6 
" clip-path="url(#p47e989d96e)" style="fill: none; stroke-dasharray: 3.2,0.8,0.5,0.8; stroke-dashoffset: 0; stroke: #000000; stroke-width: 0.5"/>
   </g>
   <g id="line2d_8">
    <path d="M -1 165.6 
L 240.685714 165.6 
" clip-path="url(#p47e989d96e)" style="fill: none; stroke-dasharray: 3.2,0.8,0.5,0.8; stroke-dashoffset: 0; stroke: #000000; stroke-width: 0.5"/>
   </g>
   <g id="line2d_9">
    <path d="M 433 48.286307 
L 426.991069 55.611266 
L 420.812759 62.794148 
L 414.634449 69.640231 
L 408.456139 76.165307 
L 402.277829 82.384429 
L 395.713374 88.673044 
L 389.14892 94.648828 
L 382.584466 100.327343 
L 376.020011 105.723378 
L 369.069413 111.144537 
L 362.118814 116.280578 
L 355.168215 121.146497 
L 347.831472 126.005382 
L 340.494729 130.594925 
L 333.157986 134.930056 
L 325.435098 139.233995 
L 317.712211 143.28717 
L 309.603179 147.289094 
L 301.494147 151.046557 
L 292.998971 154.737004 
L 284.11765 158.343305 
L 275.23633 161.709046 
L 265.968865 164.981991 
L 256.315255 168.149653 
L 246.275502 171.201342 
L 235.849604 174.12816 
L 225.037561 176.922966 
L 213.839374 179.580325 
L 202.255043 182.09643 
L 190.284567 184.469012 
L 177.541803 186.763477 
L 164.412894 188.901384 
L 150.511697 190.939418 
L 135.838211 192.864662 
L 120.392436 194.667472 
L 103.788228 196.378677 
L 86.025586 197.980549 
L 67.104512 199.46032 
L 46.63886 200.83392 
L 24.628631 202.086591 
L 0.301535 203.243256 
L -1 203.299183 
L -1 203.299183 
" clip-path="url(#p47e989d96e)" style="fill: none; stroke-dasharray: 5.55,2.4; stroke-dashoffset: 0; stroke: #ff0000; stroke-width: 1.5"/>
   </g>
   <g id="line2d_10">
    <path d="M 433 208.795914 
L 344.356173 208.671916 
L 316.553778 208.422631 
L 299.177281 208.058585 
L 286.434517 207.583408 
L 276.008618 206.975591 
L 267.513442 206.261886 
L 260.176699 205.424431 
L 253.998389 204.508296 
L 248.206223 203.424797 
L 243.186347 202.266819 
L 238.552614 200.977658 
L 234.305026 199.573622 
L 230.443582 198.079674 
L 226.582139 196.343824 
L 223.106839 194.542485 
L 219.63154 192.480648 
L 216.542385 190.398877 
L 213.45323 188.051546 
L 210.364075 185.404779 
L 207.661064 182.813315 
L 204.958054 179.934797 
L 202.255043 176.737429 
L 199.552032 173.185892 
L 196.849022 169.240954 
L 194.146011 164.85904 
L 191.443001 159.991746 
L 189.126134 155.392859 
L 186.809268 150.360649 
L 184.492402 144.854286 
L 182.175536 138.829094 
L 179.858669 132.236187 
L 177.541803 125.022073 
L 175.224937 117.12822 
L 172.908071 108.490579 
L 170.591204 99.03907 
L 168.274338 88.697006 
L 165.957472 77.380476 
L 163.640606 64.997662 
L 161.323739 51.448095 
L 159.006873 36.621841 
L 156.690007 20.398604 
L 154.373141 2.646756 
L 153.922371 -1 
L 153.922371 -1 
" clip-path="url(#p47e989d96e)" style="fill: none; stroke-dasharray: 5.55,2.4; stroke-dashoffset: 0; stroke: #008000; stroke-width: 1.5"/>
   </g>
   <g id="line2d_11">
    <path d="M 433 48.282221 
L 426.991069 55.606106 
L 420.812759 62.787587 
L 414.634449 69.631889 
L 408.456139 76.154701 
L 402.277829 82.370944 
L 395.713374 88.65564 
L 389.14892 94.626366 
L 382.584466 100.298354 
L 376.020011 105.685963 
L 369.069413 111.095518 
L 362.118814 116.216357 
L 355.168215 121.062358 
L 348.217616 125.646266 
L 340.880873 130.213233 
L 333.54413 134.513023 
L 326.207387 138.555821 
L 318.870644 142.349722 
L 311.533901 145.900342 
L 304.197158 149.210288 
L 296.860415 152.278431 
L 289.523672 155.098931 
L 282.573073 157.531882 
L 276.008618 159.6011 
L 269.830308 161.327299 
L 264.038143 162.729519 
L 258.632122 163.826539 
L 253.2261 164.691651 
L 248.206223 165.257621 
L 243.572491 165.547202 
L 239.324903 165.587744 
L 235.463459 165.411876 
L 231.602015 165.005837 
L 228.126716 164.417837 
L 224.651417 163.591682 
L 221.562262 162.632945 
L 218.473107 161.437826 
L 215.383952 159.978878 
L 212.680941 158.461593 
L 209.97793 156.69535 
L 207.27492 154.654253 
L 204.571909 152.309504 
L 201.868899 149.629082 
L 199.552032 147.037524 
L 197.235166 144.148528 
L 194.9183 140.935017 
L 192.601434 137.367349 
L 190.284567 133.41307 
L 187.967701 129.036652 
L 185.650835 124.199206 
L 183.333969 118.85816 
L 181.017102 112.966915 
L 178.700236 106.474468 
L 176.38337 99.324996 
L 174.066504 91.457397 
L 171.749637 82.804803 
L 169.432771 73.294027 
L 167.115905 62.844974 
L 164.799039 51.36999 
L 162.482172 38.773144 
L 160.165306 24.949458 
L 157.84844 9.784046 
L 156.322286 -1 
L 156.322286 -1 
" clip-path="url(#p47e989d96e)" style="fill: none; stroke: #0000ff; stroke-width: 1.5; stroke-linecap: square"/>
   </g>
   <g id="line2d_12">
    <defs>
     <path id="mfd92ef5bcf" d="M 0 -3 
L -0.673542 -0.927051 
L -2.85317 -0.927051 
L -1.089814 0.354102 
L -1.763356 2.427051 
L -0 1.145898 
L 1.763356 2.427051 
L 1.089814 0.354102 
L 2.85317 -0.927051 
L 0.673542 -0.927051 
z
" style="stroke: #000000; stroke-linejoin: bevel"/>
    </defs>
    <g clip-path="url(#p47e989d96e)">
     <use xlink:href="#mfd92ef5bcf" x="240.685714" y="165.6" style="stroke: #000000; stroke-linejoin: bevel"/>
    </g>
   </g>
   <g id="patch_3">
    <path d="M 43.2 230.4 
L 43.2 36 
" style="fill: none; stroke: #000000; stroke-width: 0.8; stroke-linejoin: miter; stroke-linecap: square"/>
   </g>
   <g id="patch_4">
    <path d="M 388.8 230.4 
L 388.8 36 
" style="fill: none; stroke: #000000; stroke-width: 0.8; stroke-linejoin: miter; stroke-linecap: square"/>
   </g>
   <g id="patch_5">
    <path d="M 43.2 230.4 
L 388.8 230.4 
" style="fill: none; stroke: #000000; stroke-width: 0.8; stroke-linejoin: miter; stroke-linecap: square"/>
   </g>
   <g id="patch_6">
    <path d="M 43.2 36 
L 388.8 36 
" style="fill: none; stroke: #000000; stroke-width: 0.8; stroke-linejoin: miter; stroke-linecap: square"/>
   </g>
   <g id="text_6">
    <!-- $\phi$ -->
    <g transform="translate(388.8 243.36) scale(0.12 -0.12)">
     <use xlink:href="#CMMI12-1e" transform="scale(0.996264)"/>
    </g>
   </g>
   <g id="text_7">
    <!-- $0&lt;V_{01}&lt;V_{02}, \ \ \ \ \lambda_2&lt;0&lt;\lambda_1,\ \ \ \ \left|\frac{\lambda_1}{\lambda_2}\right|&lt;1$ -->
    <g transform="translate(109.924935 26) scale(0.12 -0.12)">
     <defs>
      <path id="CMMI12-3c" d="M 4218 3104 
C 4333 3155 4346 3200 4346 3238 
C 4346 3309 4294 3360 4224 3360 
C 4211 3360 4205 3353 4115 3315 
L 653 1719 
C 538 1667 525 1622 525 1584 
C 525 1539 531 1501 653 1442 
L 4115 -154 
C 4198 -192 4211 -192 4224 -192 
C 4294 -192 4346 -141 4346 -70 
C 4346 -32 4333 13 4218 64 
L 922 1581 
L 4218 3104 
z
" transform="scale(0.015625)"/>
      <path id="CMR17-31" d="M 1702 4058 
C 1702 4192 1696 4192 1606 4192 
C 1357 3916 979 3827 621 3827 
C 602 3827 570 3827 563 3808 
C 557 3795 557 3782 557 3648 
C 755 3648 1088 3686 1344 3839 
L 1344 461 
C 1344 236 1331 160 781 160 
L 589 160 
L 589 0 
C 896 0 1216 0 1523 0 
C 1830 0 2150 0 2458 0 
L 2458 160 
L 2266 160 
C 1715 160 1702 230 1702 458 
L 1702 4058 
z
" transform="scale(0.015625)"/>
      <path id="CMR17-32" d="M 2669 989 
L 2554 989 
C 2490 536 2438 459 2413 420 
C 2381 369 1920 369 1830 369 
L 602 369 
C 832 619 1280 1072 1824 1597 
C 2214 1967 2669 2402 2669 3035 
C 2669 3790 2067 4224 1395 4224 
C 691 4224 262 3604 262 3030 
C 262 2780 448 2748 525 2748 
C 589 2748 781 2787 781 3010 
C 781 3207 614 3264 525 3264 
C 486 3264 448 3258 422 3245 
C 544 3790 915 4058 1306 4058 
C 1862 4058 2227 3617 2227 3035 
C 2227 2479 1901 2000 1536 1584 
L 262 146 
L 262 0 
L 2515 0 
L 2669 989 
z
" transform="scale(0.015625)"/>
      <path id="CMMI12-3b" d="M 1248 -31 
C 1248 343 1126 619 864 619 
C 659 619 557 453 557 313 
C 557 172 653 0 870 0 
C 954 0 1024 26 1082 83 
C 1094 96 1101 96 1107 96 
C 1120 96 1120 5 1120 -27 
C 1120 -240 1082 -659 710 -1080 
C 640 -1157 640 -1170 640 -1183 
C 640 -1216 672 -1248 704 -1248 
C 755 -1248 1248 -771 1248 -31 
z
" transform="scale(0.015625)"/>
      <path id="CMMI12-15" d="M 1978 3965 
C 1818 4416 1312 4416 1229 4416 
C 1190 4416 1120 4416 1120 4352 
C 1120 4302 1158 4295 1190 4289 
C 1286 4276 1363 4263 1466 4080 
C 1530 3959 2189 2059 2189 2046 
C 2189 2040 2182 2033 2131 1982 
L 467 311 
C 390 234 339 183 339 102 
C 339 12 416 -64 518 -64 
C 544 -64 614 -51 653 -13 
C 755 82 1670 1194 2253 1881 
C 2419 1383 2624 797 2822 261 
C 2854 166 2886 76 2976 -6 
C 3040 -64 3053 -64 3232 -64 
L 3354 -64 
C 3379 -64 3424 -64 3424 -13 
C 3424 13 3418 19 3392 45 
C 3334 115 3290 229 3264 306 
L 1978 3965 
z
" transform="scale(0.015625)"/>
      <path id="CMEX10-c" d="M 928 -3738 
C 928 -3840 928 -3974 1062 -3974 
C 1203 -3974 1203 -3846 1203 -3738 
L 1203 -102 
C 1203 0 1203 134 1069 134 
C 928 134 928 6 928 -102 
L 928 -3738 
z
" transform="scale(0.015625)"/>
     </defs>
     <use xlink:href="#CMR17-30" transform="scale(0.996264)"/>
     <use xlink:href="#CMMI12-3c" transform="translate(73.364486 0) scale(0.996264)"/>
     <use xlink:href="#CMMI12-56" transform="translate(176.91059 0) scale(0.996264)"/>
     <use xlink:href="#CMR17-30" transform="translate(233.780169 -14.943915) scale(0.697382)"/>
     <use xlink:href="#CMR17-31" transform="translate(265.763351 -14.943915) scale(0.697382)"/>
     <use xlink:href="#CMMI12-3c" transform="translate(325.918674 0) scale(0.996264)"/>
     <use xlink:href="#CMMI12-56" transform="translate(429.464779 0) scale(0.996264)"/>
     <use xlink:href="#CMR17-30" transform="translate(486.334358 -14.943915) scale(0.697382)"/>
     <use xlink:href="#CMR17-32" transform="translate(518.31754 -14.943915) scale(0.697382)"/>
     <use xlink:href="#CMMI12-3b" transform="translate(550.798854 0) scale(0.996264)"/>
     <use xlink:href="#CMMI12-15" transform="translate(714.804301 0) scale(0.996264)"/>
     <use xlink:href="#CMR17-32" transform="translate(771.708373 -14.943915) scale(0.697382)"/>
     <use xlink:href="#CMMI12-3c" transform="translate(831.863696 0) scale(0.996264)"/>
     <use xlink:href="#CMR17-30" transform="translate(935.409801 0) scale(0.996264)"/>
     <use xlink:href="#CMMI12-3c" transform="translate(1008.774286 0) scale(0.996264)"/>
     <use xlink:href="#CMMI12-15" transform="translate(1112.320391 0) scale(0.996264)"/>
     <use xlink:href="#CMR17-31" transform="translate(1169.224463 -14.943915) scale(0.697382)"/>
     <use xlink:href="#CMMI12-3b" transform="translate(1201.705777 0) scale(0.996264)"/>
     <use xlink:href="#CMEX10-c" transform="translate(1365.711225 114.571273) scale(0.996264)"/>
     <use xlink:href="#CMEX10-c" transform="translate(1365.711225 54.794825) scale(0.996264)"/>
     <use xlink:href="#CMEX10-c" transform="translate(1365.711225 -4.981624) scale(0.996264)"/>
     <use xlink:href="#CMMI12-15" transform="translate(1400.115594 41.344728) scale(0.697382)"/>
     <use xlink:href="#CMR17-31" transform="translate(1439.948262 30.884032) scale(0.498132)"/>
     <use xlink:href="#CMMI12-15" transform="translate(1400.115594 -34.355253) scale(0.697382)"/>
     <use xlink:href="#CMR17-32" transform="translate(1439.948262 -44.815949) scale(0.498132)"/>
     <use xlink:href="#CMEX10-c" transform="translate(1464.487147 114.571273) scale(0.996264)"/>
     <use xlink:href="#CMEX10-c" transform="translate(1464.487147 54.794825) scale(0.996264)"/>
     <use xlink:href="#CMEX10-c" transform="translate(1464.487147 -4.981624) scale(0.996264)"/>
     <use xlink:href="#CMMI12-3c" transform="translate(1525.370011 0) scale(0.996264)"/>
     <use xlink:href="#CMR17-31" transform="translate(1628.916116 0) scale(0.996264)"/>
     <path d="M 1400.115594 22.914133 
L 1463.291633 22.914133 
L 1463.291633 26.899083 
L 1400.115594 26.899083 
L 1400.115594 22.914133 
z
"/>
    </g>
   </g>
   <g id="legend_1">
    <g id="patch_7">
     <path d="M 51.6 99.465504 
L 119.461571 99.465504 
Q 121.861571 99.465504 121.861571 97.065504 
L 121.861571 44.4 
Q 121.861571 42 119.461571 42 
L 51.6 42 
Q 49.2 42 49.2 44.4 
L 49.2 97.065504 
Q 49.2 99.465504 51.6 99.465504 
z
" style="fill: #ffffff; opacity: 0.8; stroke: #cccccc; stroke-linejoin: miter"/>
    </g>
    <g id="line2d_13">
     <path d="M 54 51.566376 
L 66 51.566376 
L 78 51.566376 
" style="fill: none; stroke-dasharray: 5.55,2.4; stroke-dashoffset: 0; stroke: #ff0000; stroke-width: 1.5"/>
    </g>
    <g id="text_8">
     <!-- $V_1(\phi)$ -->
     <g transform="translate(87.6 55.766376) scale(0.12 -0.12)">
      <use xlink:href="#CMMI12-56" transform="scale(0.996264)"/>
      <use xlink:href="#CMR17-31" transform="translate(56.869579 -14.943915) scale(0.697382)"/>
      <use xlink:href="#CMR17-28" transform="translate(89.350893 0) scale(0.996264)"/>
      <use xlink:href="#CMMI12-1e" transform="translate(124.631661 0) scale(0.996264)"/>
      <use xlink:href="#CMR17-29" transform="translate(182.365841 0) scale(0.996264)"/>
     </g>
    </g>
    <g id="line2d_14">
     <path d="M 54 69.521544 
L 66 69.521544 
L 78 69.521544 
" style="fill: none; stroke-dasharray: 5.55,2.4; stroke-dashoffset: 0; stroke: #008000; stroke-width: 1.5"/>
    </g>
    <g id="text_9">
     <!-- $V_2(\phi)$ -->
     <g transform="translate(87.6 73.721544) scale(0.12 -0.12)">
      <use xlink:href="#CMMI12-56" transform="scale(0.996264)"/>
      <use xlink:href="#CMR17-32" transform="translate(56.869579 -14.943915) scale(0.697382)"/>
      <use xlink:href="#CMR17-28" transform="translate(89.350893 0) scale(0.996264)"/>
      <use xlink:href="#CMMI12-1e" transform="translate(124.631661 0) scale(0.996264)"/>
      <use xlink:href="#CMR17-29" transform="translate(182.365841 0) scale(0.996264)"/>
     </g>
    </g>
    <g id="line2d_15">
     <path d="M 54 87.476712 
L 66 87.476712 
L 78 87.476712 
" style="fill: none; stroke: #0000ff; stroke-width: 1.5; stroke-linecap: square"/>
    </g>
    <g id="text_10">
     <!-- $V_{T}(\phi)$ -->
     <g transform="translate(87.6 91.676712) scale(0.12 -0.12)">
      <defs>
       <path id="CMMI12-54" d="M 2669 3910 
C 2707 4064 2720 4121 2816 4147 
C 2867 4160 3078 4160 3213 4160 
C 3853 4160 4154 4134 4154 3634 
C 4154 3537 4128 3295 4090 3057 
L 4083 2980 
C 4083 2954 4109 2916 4147 2916 
C 4211 2916 4211 2948 4230 3050 
L 4416 4184 
C 4429 4243 4429 4256 4429 4275 
C 4429 4345 4390 4345 4262 4345 
L 762 4345 
C 614 4345 608 4339 570 4224 
L 179 3070 
C 173 3056 154 2986 154 2980 
C 154 2948 179 2916 218 2916 
C 269 2916 282 2941 307 3024 
C 576 3801 710 4160 1562 4160 
L 1990 4160 
C 2144 4160 2208 4160 2208 4089 
C 2208 4069 2208 4057 2176 3941 
L 1318 499 
C 1254 249 1242 185 563 185 
C 403 185 358 185 358 64 
C 358 0 429 0 461 0 
C 621 0 787 0 947 0 
L 1946 0 
C 2106 0 2278 0 2438 0 
C 2509 0 2573 0 2573 121 
C 2573 185 2528 185 2362 185 
C 1786 185 1786 243 1786 339 
C 1786 346 1786 391 1811 494 
L 2669 3910 
z
" transform="scale(0.015625)"/>
      </defs>
      <use xlink:href="#CMMI12-56" transform="scale(0.996264)"/>
      <use xlink:href="#CMMI12-54" transform="translate(56.869579 -14.943915) scale(0.697382)"/>
      <use xlink:href="#CMR17-28" transform="translate(106.874033 0) scale(0.996264)"/>
      <use xlink:href="#CMMI12-1e" transform="translate(142.154801 0) scale(0.996264)"/>
      <use xlink:href="#CMR17-29" transform="translate(199.888981 0) scale(0.996264)"/>
     </g>
    </g>
   </g>
  </g>
 </g>
 <defs>
  <clipPath id="p47e989d96e">
   <rect x="43.2" y="36" width="345.6" height="194.4"/>
  </clipPath>
 </defs>
</svg>
